<?xml version="1.0" standalone="no"?>
<!DOCTYPE svg PUBLIC "-//W3C//DTD SVG 1.1//EN" "http://www.w3.org/Graphics/SVG/1.1/DTD/svg11.dtd" >
<svg>
<metadata>
Created by FontForge 20120731 at Sun Jul 21 03:40:32 2019
 By www-data
(c) 1999-2011 Typodermic Fonts. www.typodermic.com/license.html - Design: Ray Larabie Languages &#38; kerning: Chikako Larabie
</metadata>
<defs>
<font id="NeuropoliticalRg-Regular" horiz-adv-x="888" >
  <font-face 
    font-family="Neuropolitical Rg"
    font-weight="400"
    font-stretch="normal"
    units-per-em="1000"
    panose-1="2 11 6 5 2 2 1 8 1 4"
    ascent="780"
    descent="-220"
    x-height="542"
    cap-height="682"
    bbox="-139 -220 1399 980"
    underline-thickness="20"
    underline-position="-123"
    unicode-range="U+0017-FB02"
  />
<missing-glyph horiz-adv-x="967" 
d="M145 -220q-44 0 -67 19.5t-23 58.5v839q0 39 23 58.5t67 19.5h676q91 0 91 -78v-839q0 -78 -91 -78h-676zM812 347q12 46 12 82q0 66 -40.5 104.5t-125.5 61.5l-149 40l-48 -180l122 -32q30 -9 30 -29q0 -6 -1 -9l-6 -19q-6 -22 -27 -22q-7 0 -16 3l-137 36q-25 6 -46 10
t-39 4q-29 0 -50 -8.5t-37.5 -28t-29.5 -50.5t-26 -76l209 -56q5 22 13 30t19 8q5 0 15 -2l109 -28q55 -16 96 -16q59 0 92.5 33.5t50.5 102.5zM382 66q4 12 4 24q0 18 -14 29t-46 20l-72 20q-26 6 -40 6q-20 0 -30.5 -10.5t-15.5 -31.5l-11 -41q-4 -12 -4 -24
q0 -19 14 -30.5t46 -19.5l73 -19q22 -7 39 -7q37 0 47 42z" />
    <glyph glyph-name="copyright" unicode="&#x28;C&#x29;" horiz-adv-x="868" 
d="M314 0q-75 0 -125 12.5t-80 40t-42.5 72t-12.5 109.5v214q0 64 12.5 109t42.5 72.5t80 40t125 12.5h239q76 0 126 -12.5t80 -40t42.5 -72.5t12.5 -109v-214q0 -65 -12.5 -109.5t-42.5 -72t-80 -40t-126 -12.5h-239zM744 448q0 46 -8.5 77.5t-30 50.5t-58.5 27t-94 8h-239
q-57 0 -94 -8t-58 -27t-29.5 -50.5t-8.5 -77.5v-214q0 -47 8.5 -78.5t29.5 -50t58 -26.5t94 -8h239q57 0 94 8t58.5 26.5t30 50t8.5 78.5v214zM374 189q-36 0 -59.5 6t-38 19t-20.5 34.5t-6 51.5v100q0 30 6 51.5t20.5 34.5t38.5 19t59 6h221v-59h-216q-37 0 -48.5 -11
t-11.5 -44v-94q0 -34 12.5 -44.5t47.5 -10.5h216v-59h-221z" />
    <glyph glyph-name="registered" unicode="&#x28;R&#x29;" horiz-adv-x="868" 
d="M314 0q-76 0 -126 12.5t-80 40t-42.5 72t-12.5 109.5v214q0 64 12.5 109t42.5 72.5t80 40t126 12.5h239q76 0 126 -12.5t80 -40t42.5 -72.5t12.5 -109v-214q0 -65 -12.5 -109.5t-42.5 -72t-80 -40t-126 -12.5h-239zM743 448q0 46 -8.5 77t-29.5 50t-58 27t-94 8h-239
q-57 0 -94 -8t-58 -27t-29.5 -50t-8.5 -77v-214q0 -47 8.5 -78.5t29.5 -50t58 -26.5t94 -8h239q57 0 94 8t58 26.5t29.5 50t8.5 78.5v214zM513 190l-195 116v-116h-67v321h250q34 0 58 -4t39.5 -15t23 -29.5t7.5 -47.5v-22q0 -34 -11.5 -53t-35.5 -28t-60.5 -10.5
t-85.5 -1.5l196 -110h-119zM560 411q0 26 -13 33t-52 7h-177v-100h177q38 0 51.5 8t13.5 35v17z" />
    <glyph glyph-name="uni2117" unicode="&#x28;P&#x29;" horiz-adv-x="868" 
d="M314 0q-75 0 -125 12.5t-80 40t-42.5 72t-12.5 109.5v214q0 64 12.5 109t42.5 72.5t80 40t125 12.5h239q76 0 126 -12.5t80 -40t42.5 -72.5t12.5 -109v-214q0 -65 -12.5 -109.5t-42.5 -72t-80 -40t-126 -12.5h-239zM744 448q0 46 -8.5 77.5t-30 50.5t-58.5 27t-94 8h-239
q-57 0 -94 -8t-58 -27t-29.5 -50.5t-8.5 -77.5v-214q0 -47 8.5 -78.5t29.5 -50t58 -26.5t94 -8h239q57 0 94 8t58.5 26.5t30 50t8.5 78.5v214zM319 282v-93h-68v322h256q68 0 94.5 -23t26.5 -80v-28q0 -29 -6 -48t-20 -30t-37 -15.5t-58 -4.5h-188zM560 405q0 27 -12.5 37
t-41.5 10h-187v-115h187q30 0 42 9t12 36v23z" />
    <glyph glyph-name=".notdef" horiz-adv-x="967" 
d="M145 -220q-44 0 -67 19.5t-23 58.5v839q0 39 23 58.5t67 19.5h676q91 0 91 -78v-839q0 -78 -91 -78h-676zM812 347q12 46 12 82q0 66 -40.5 104.5t-125.5 61.5l-149 40l-48 -180l122 -32q30 -9 30 -29q0 -6 -1 -9l-6 -19q-6 -22 -27 -22q-7 0 -16 3l-137 36q-25 6 -46 10
t-39 4q-29 0 -50 -8.5t-37.5 -28t-29.5 -50.5t-26 -76l209 -56q5 22 13 30t19 8q5 0 15 -2l109 -28q55 -16 96 -16q59 0 92.5 33.5t50.5 102.5zM382 66q4 12 4 24q0 18 -14 29t-46 20l-72 20q-26 6 -40 6q-20 0 -30.5 -10.5t-15.5 -31.5l-11 -41q-4 -12 -4 -24
q0 -19 14 -30.5t46 -19.5l73 -19q22 -7 39 -7q37 0 47 42z" />
    <glyph glyph-name="uni0017" horiz-adv-x="397" 
 />
    <glyph glyph-name="space" unicode=" " horiz-adv-x="397" 
 />
    <glyph glyph-name="exclam" unicode="!" horiz-adv-x="284" 
d="M66 207v475h151v-475h-151zM117 0q-28 0 -39.5 10.5t-11.5 34.5v58q0 24 11.5 35t39.5 11h49q28 0 39.5 -11t11.5 -35v-58q0 -24 -11.5 -34.5t-39.5 -10.5h-49z" />
    <glyph glyph-name="quotedbl" unicode="&#x22;" horiz-adv-x="418" 
d="M42 455zM57 455l-15 264h135l-17 -264h-103zM256 455l-15 264h135l-17 -264h-103z" />
    <glyph glyph-name="numbersign" unicode="#" horiz-adv-x="658" 
d="M380 160h-152l-22 -160h-98l21 160h-105l14 98h105l22 160h-107l14 98h106l23 166h99l-23 -166h152l23 166h97l-23 -166h106l-13 -98h-107l-21 -160h106l-13 -98h-107l-22 -160h-97zM241 258h153l21 160h-152z" />
    <glyph glyph-name="dollar" unicode="$" horiz-adv-x="835" 
d="M476 0v-73h-107v73h-314v127h314v160h-113q-59 0 -97.5 8.5t-61 28.5t-32 52.5t-9.5 79.5v34q0 57 12 94t36.5 59t63.5 30.5t93 8.5h108v50h107v-332h99q59 0 99.5 -8.5t66 -29.5t36.5 -55.5t11 -86.5v-43q0 -48 -11 -81.5t-36 -54.5t-64 -31t-96 -10h-105zM369 554h-101
q-23 0 -38 -3t-23.5 -11t-11.5 -22t-3 -35v-17q0 -19 3 -32t11 -20.5t22 -10.5t36 -3h105v154zM652 219q0 20 -3.5 33t-12.5 21t-25.5 11t-41.5 3h-93v-160h99q46 0 61.5 14.5t15.5 54.5v23z" />
    <glyph glyph-name="percent" unicode="%" horiz-adv-x="1049" 
d="M52 0zM184 351q-38 0 -63.5 6t-40.5 20t-21.5 36.5t-6.5 54.5v107q0 32 6.5 54.5t21.5 36.5t40.5 20t63.5 6h135q39 0 64.5 -6t40.5 -20t21.5 -36.5t6.5 -54.5v-107q0 -32 -6.5 -54.5t-21.5 -36.5t-40.5 -20t-64.5 -6h-135zM358 568q0 25 -9.5 34t-35.5 9h-122
q-27 0 -36.5 -9t-9.5 -34v-94q0 -25 9.5 -34t36.5 -9h122q26 0 35.5 9t9.5 34v94zM224 0l479 682h116l-479 -682h-116zM729 -10q-38 0 -63.5 6t-40.5 20t-21.5 36.5t-6.5 54.5v107q0 32 6.5 54.5t21.5 36.5t40.5 20t63.5 6h135q39 0 64.5 -6t40.5 -20t21.5 -36.5t6.5 -54.5
v-107q0 -32 -6.5 -54.5t-21.5 -36.5t-40.5 -20t-64.5 -6h-135zM903 207q0 25 -9.5 34t-35.5 9h-122q-27 0 -36.5 -9t-9.5 -34v-94q0 -25 9.5 -34t36.5 -9h122q26 0 35.5 9t9.5 34v94z" />
    <glyph glyph-name="ampersand" unicode="&#x26;" horiz-adv-x="930" 
d="M694 39q-45 -24 -100.5 -31.5t-129.5 -7.5h-211q-58 0 -98 12t-64.5 32.5t-35.5 48t-11 58.5v64q0 34 7 59t24 43t45.5 30.5t72.5 22.5q-44 27 -62 52.5t-18 63.5v70q0 66 40.5 96t127.5 30h229q96 0 138 -37t42 -100v-44q0 -23 -5 -44.5t-18.5 -39.5t-36 -32t-57.5 -22
l-140 -34l239 -152q29 39 29 115v40h132v-43q0 -112 -55 -182l164 -107h-188zM294 569q-29 0 -40.5 -10t-11.5 -35v-22q0 -15 1.5 -26t6 -19t12.5 -15t22 -16l38 -24l184 43q25 6 35 15t10 35v36q0 22 -14 30t-46 8h-197zM490 119q45 0 76 7l-263 170q-33 -7 -55 -13
t-34.5 -14.5t-17.5 -22t-5 -34.5v-44q0 -24 15 -36.5t55 -12.5h229z" />
    <glyph glyph-name="quotesingle" unicode="'" horiz-adv-x="219" 
d="M57 455l-15 264h135l-17 -264h-103z" />
    <glyph glyph-name="parenleft" unicode="(" horiz-adv-x="359" 
d="M315 -220q-52 0 -91 14.5t-65.5 40t-39.5 61.5t-13 79v685q0 43 13 79t39.5 61.5t65.5 40t91 14.5h31v-80h-32q-109 0 -109 -114v-688q0 -59 27.5 -86.5t81.5 -27.5h32v-79h-31z" />
    <glyph glyph-name="parenright" unicode=")" horiz-adv-x="359" 
d="M9 -220v79h32q54 0 81.5 27.5t27.5 86.5v688q0 114 -109 114h-32v80h31q52 0 91 -14.5t65.5 -40t39.5 -61.5t13 -79v-685q0 -43 -13 -79t-39.5 -61.5t-65.5 -40t-91 -14.5h-31z" />
    <glyph glyph-name="asterisk" unicode="*" horiz-adv-x="567" 
d="M462 340l-71 -52l-108 160l-109 -160q-18 12 -36 25l-36 26l120 153l-188 55l27 84l184 -68l-7 197h89l-8 -197l184 68l28 -84l-188 -55z" />
    <glyph glyph-name="plus" unicode="+" horiz-adv-x="590" 
d="M246 117v187h-187v98h187v187h98v-187h187v-98h-187v-187h-98z" />
    <glyph glyph-name="comma" unicode="," horiz-adv-x="235" 
d="M41 -73l23 244h146l-58 -244h-111z" />
    <glyph glyph-name="hyphen" unicode="-" horiz-adv-x="396" 
d="M33 260v118h330v-118h-330z" />
    <glyph glyph-name="period" unicode="." horiz-adv-x="270" 
d="M110 0q-28 0 -39.5 10.5t-11.5 34.5v82q0 23 11.5 34t39.5 11h49q29 0 40.5 -11t11.5 -34v-82q0 -24 -11.5 -34.5t-40.5 -10.5h-49z" />
    <glyph glyph-name="slash" unicode="/" horiz-adv-x="510" 
d="M4 -101l383 818h119l-382 -818h-120z" />
    <glyph glyph-name="zero" unicode="0" horiz-adv-x="895" 
d="M314 0q-75 0 -125 12.5t-80 40t-42.5 72t-12.5 109.5v214q0 64 12.5 109t42.5 72.5t80 40t125 12.5h266q76 0 126 -12.5t80 -40t42.5 -72.5t12.5 -109v-214q0 -65 -12.5 -109.5t-42.5 -72t-80 -40t-126 -12.5h-266zM689 441q0 32 -5.5 53t-18.5 34t-35.5 18t-55.5 5h-253
q-36 0 -58.5 -5t-35.5 -18t-17.5 -34t-4.5 -53v-201q0 -33 4.5 -54.5t17.5 -34t35.5 -17t58.5 -4.5h253q33 0 55.5 4.5t35.5 17t18.5 34t5.5 54.5v201z" />
    <glyph glyph-name="one" unicode="1" horiz-adv-x="270" 
d="M59 0v682h152v-682h-152z" />
    <glyph glyph-name="two" unicode="2" horiz-adv-x="917" 
d="M49 0v217q0 48 9 83.5t33 58t65 33.5t106 11h394q40 0 53.5 13.5t13.5 51.5v17q0 40 -13 54t-50 14h-250v129h260q100 0 146.5 -44t46.5 -149v-34q0 -48 -9.5 -80t-32.5 -51.5t-61 -27.5t-94 -8h-397q-47 0 -64 -16t-17 -61v-82h675v-129h-814z" />
    <glyph glyph-name="three" unicode="3" horiz-adv-x="903" 
d="M406 556v126h219q61 0 104 -9t69.5 -28t38.5 -49.5t12 -73.5v-51q0 -60 -21.5 -86t-53.5 -35q18 -5 33.5 -13.5t27 -25t17.5 -41.5t6 -62v-55q0 -41 -11.5 -70t-38 -47.5t-68.5 -27t-102 -8.5h-593v126h590q43 0 62 10.5t19 42.5v40q0 42 -17 55.5t-59 13.5h-591v115h587
q40 0 55 12.5t15 46.5v42q0 31 -18 41.5t-67 10.5h-215z" />
    <glyph glyph-name="four" unicode="4" horiz-adv-x="967" 
d="M741 0v191h-687v491h149v-361h538v361h148v-682h-148z" />
    <glyph glyph-name="five" unicode="5" horiz-adv-x="942" 
d="M60 0v129h605q52 0 69.5 12.5t17.5 47.5v44q0 32 -16.5 48.5t-64.5 16.5h-612v384h495v-129h-356v-137h481q115 0 163.5 -40.5t48.5 -134.5v-61q0 -48 -11.5 -82.5t-37 -56t-65.5 -31.5t-98 -10h-619z" />
    <glyph glyph-name="six" unicode="6" horiz-adv-x="944" 
d="M314 0q-75 0 -125 12.5t-80 40t-42.5 72t-12.5 109.5v214q0 64 12.5 109t42.5 72.5t80 40t125 12.5h216v-129h-211q-33 0 -54.5 -4.5t-35 -16.5t-19 -32.5t-5.5 -51.5v-34h502q52 0 87.5 -13t58 -37t32.5 -58.5t10 -77.5v-42q0 -94 -42.5 -140t-145.5 -46h-393zM744 230
q0 40 -14.5 55t-50.5 15h-474v-69q0 -33 6 -53.5t22 -32t43.5 -15t70.5 -3.5h332q35 0 50 15.5t15 49.5v38z" />
    <glyph glyph-name="seven" unicode="7" horiz-adv-x="904" 
d="M199 0l464 550h-632v132h755q40 0 60.5 -20.5t20.5 -49.5q0 -36 -30 -72l-443 -540h-195z" />
    <glyph glyph-name="eight" unicode="8" horiz-adv-x="902" 
d="M269 0q-60 0 -102.5 8.5t-68.5 27t-38 47.5t-12 70v55q0 37 6.5 62t17.5 41.5t26.5 25t33.5 13.5q-32 9 -53.5 35t-21.5 86v51q0 43 12 73.5t38.5 49.5t69.5 28t105 9h338q61 0 104 -9t69.5 -28t38.5 -49.5t12 -73.5v-51q0 -60 -21 -86t-53 -35q18 -5 33 -13.5t26.5 -25
t17.5 -41.5t6 -62v-55q0 -41 -11.5 -70t-38 -47.5t-68.5 -27t-102 -8.5h-364zM266 292q-42 0 -58.5 -15t-16.5 -57v-40q0 -35 22 -44t70 -9h336q47 0 69.5 9t22.5 44v40q0 42 -16.5 57t-58.5 15h-370zM297 555q-54 0 -75.5 -9t-21.5 -43v-42q0 -34 15 -48t55 -14h362
q39 0 54.5 14t15.5 48v42q0 34 -22 43t-75 9h-308z" />
    <glyph glyph-name="nine" unicode="9" horiz-adv-x="938" 
d="M624 682q75 0 125 -12t80 -38.5t42.5 -68t12.5 -100.5v-229q0 -65 -12.5 -109.5t-42.5 -72t-80 -40t-125 -12.5h-214v127h209q33 0 54.5 4.5t35 16.5t19 32.5t5.5 51.5v27h-500q-52 0 -88 13t-58.5 37t-32.5 58.5t-10 77.5v50q0 47 10 82t32.5 58.5t58.5 35t88 11.5h391z
M196 443q0 -38 14 -53.5t51 -15.5h472v86q0 28 -4 46.5t-15.5 28.5t-33 14t-56.5 4h-363q-35 0 -50 -16t-15 -50v-44z" />
    <glyph glyph-name="colon" unicode=":" horiz-adv-x="270" 
d="M110 0q-28 0 -39.5 10.5t-11.5 34.5v82q0 23 11.5 34t39.5 11h49q29 0 40.5 -11t11.5 -34v-82q0 -24 -11.5 -34.5t-40.5 -10.5h-49zM110 359q-28 0 -39.5 11t-11.5 35v81q0 24 11.5 35t39.5 11h49q29 0 40.5 -11t11.5 -35v-81q0 -24 -11.5 -35t-40.5 -11h-49z" />
    <glyph glyph-name="semicolon" unicode=";" horiz-adv-x="270" 
d="M42 -73l23 244h146l-58 -244h-111zM109 359q-28 0 -39.5 11t-11.5 35v81q0 24 11.5 35t39.5 11h50q28 0 39.5 -11t11.5 -35v-81q0 -24 -11.5 -35t-39.5 -11h-50z" />
    <glyph glyph-name="less" unicode="&#x3c;" horiz-adv-x="590" 
d="M59 329q0 24 12.5 39t32.5 26l427 235v-113l-347 -187l347 -189v-113l-427 236q-20 11 -32.5 25.5t-12.5 40.5z" />
    <glyph glyph-name="equal" unicode="=" horiz-adv-x="590" 
d="M59 427v98h472v-98h-472zM59 182v97h472v-97h-472z" />
    <glyph glyph-name="greater" unicode="&#x3e;" horiz-adv-x="590" 
d="M531 329q0 -26 -12.5 -40.5t-32.5 -25.5l-427 -236v113l347 189l-347 187v113l427 -235q20 -11 32.5 -26t12.5 -39z" />
    <glyph glyph-name="question" unicode="?" horiz-adv-x="595" 
d="M242 282q-26 0 -35 -11t-9 -35v-29h-148v42q0 37 8.5 64.5t28 44.5t52 25.5t80.5 8.5h146q31 0 46.5 13.5t15.5 52.5v28q0 39 -16 53.5t-51 14.5h-150v128h160q103 0 149.5 -44t46.5 -146v-38q0 -45 -8.5 -77.5t-29.5 -53.5t-57 -31t-91 -10h-138zM101 0
q-28 0 -39.5 10.5t-11.5 34.5v58q0 24 11.5 35t39.5 11h49q28 0 40 -11t12 -35v-58q0 -24 -12 -34.5t-40 -10.5h-49z" />
    <glyph glyph-name="at" unicode="@" horiz-adv-x="740" 
d="M236 -162q-51 0 -85.5 8.5t-54.5 27.5t-28.5 49.5t-8.5 74.5v482q0 44 8.5 74.5t28.5 49.5t54.5 27.5t85.5 8.5h281q51 0 85 -8.5t54 -27.5t28 -49.5t8 -74.5v-259q0 -44 -8.5 -74.5t-29 -49.5t-55 -27t-85.5 -8h-55q-51 0 -85 8t-54.5 27t-28.5 49.5t-8 74.5v48
q0 44 8 74.5t28.5 49.5t54.5 27.5t85 8.5h123v47q0 37 -13.5 50.5t-55.5 13.5h-274q-38 0 -53 -14.5t-15 -51.5v-468q0 -38 15.5 -54t56.5 -16h154v-98h-161zM509 156q41 0 57 15t16 52v109h-117q-41 0 -56 -14t-15 -52v-43q0 -38 15 -52.5t56 -14.5h44z" />
    <glyph glyph-name="A" unicode="A" horiz-adv-x="1035" 
d="M752 157h-472l-97 -157h-175l396 630q18 29 43 48t72 19q46 0 71 -19t43 -48l394 -630h-176zM351 274h330l-165 269z" />
    <glyph glyph-name="B" unicode="B" horiz-adv-x="897" 
d="M58 682h575q58 0 99 -8t66.5 -26.5t37.5 -48t12 -72.5v-56q0 -60 -21 -86t-53 -35q18 -4 33.5 -12.5t26.5 -24.5t17 -41.5t6 -63.5v-60q0 -41 -11.5 -69t-37 -45.5t-66.5 -25.5t-99 -8h-585v682zM210 291v-167h425q43 0 61.5 11.5t18.5 43.5v42q0 42 -16.5 56t-58.5 14
h-430zM210 558v-157h426q40 0 55 13t15 47v43q0 31 -18.5 42.5t-66.5 11.5h-411z" />
    <glyph glyph-name="C" unicode="C" horiz-adv-x="826" 
d="M314 0q-75 0 -125 12.5t-80 40t-42.5 72t-12.5 109.5v214q0 64 12.5 109t42.5 72.5t80 40t125 12.5h473v-131h-466q-35 0 -57.5 -5.5t-35.5 -18.5t-18 -34.5t-5 -52.5v-200q0 -32 5 -53t18 -34t36 -18t58 -5h465v-130h-473z" />
    <glyph glyph-name="D" unicode="D" horiz-adv-x="915" 
d="M59 0v682h540q76 0 126.5 -12.5t80.5 -40t42.5 -72.5t12.5 -109v-214q0 -65 -12.5 -109.5t-42.5 -72t-80.5 -40t-126.5 -12.5h-540zM709 441q0 31 -5.5 52.5t-19 34t-35.5 18t-56 5.5h-382v-421h382q31 0 53 5t36 17.5t20.5 33.5t6.5 53v202z" />
    <glyph glyph-name="E" unicode="E" horiz-adv-x="829" 
d="M314 0q-75 0 -125 12.5t-80 40t-42.5 72t-12.5 109.5v214q0 64 12.5 109t42.5 72.5t80 40t125 12.5h168v-129h-168q-33 0 -54 -5.5t-33.5 -17.5t-17 -32t-4.5 -50v-46h581v-121h-581v-48q0 -31 4.5 -51t16.5 -32t33.5 -16.5t54.5 -4.5h476v-129h-476z" />
    <glyph glyph-name="F" unicode="F" horiz-adv-x="805" 
d="M207 256v-256h-151v448q0 64 12.5 109t42.5 72.5t80 40t125 12.5h160v-131h-156q-63 0 -88 -26t-25 -86v-54h575v-129h-575z" />
    <glyph glyph-name="G" unicode="G" horiz-adv-x="892" 
d="M314 0q-75 0 -125 12.5t-80 40t-42.5 72t-12.5 109.5v214q0 64 12.5 109t42.5 72.5t80 40t125 12.5h178v-131h-171q-34 0 -56.5 -5.5t-35.5 -18.5t-18.5 -34t-5.5 -52v-201q0 -34 5.5 -55.5t19 -33.5t36 -16.5t55.5 -4.5h257q32 0 54 4.5t35.5 17t19.5 35.5t6 59v158h152
v-170q0 -65 -12.5 -109.5t-42.5 -72t-80.5 -40t-126.5 -12.5h-269z" />
    <glyph glyph-name="H" unicode="H" horiz-adv-x="921" 
d="M711 0v272h-500v-272h-152v682h152v-278h500v278h151v-682h-151z" />
    <glyph glyph-name="I" unicode="I" horiz-adv-x="273" 
d="M60 0v682h152v-682h-152z" />
    <glyph glyph-name="J" unicode="J" horiz-adv-x="512" 
d="M17 0v130h165q37 0 60.5 6t37 19.5t19 34.5t5.5 51v441h152v-448q0 -65 -12.5 -109.5t-42.5 -72t-80.5 -40t-126.5 -12.5h-177z" />
    <glyph glyph-name="K" unicode="K" horiz-adv-x="802" 
d="M590 0l-380 333v-333h-151v682h151v-326l372 326h205l-390 -331l401 -351h-208z" />
    <glyph glyph-name="L" unicode="L" horiz-adv-x="754" 
d="M316 0q-75 0 -125 12.5t-80 40t-42.5 72t-12.5 109.5v448h151v-442q0 -30 5.5 -50.5t19.5 -34t37.5 -19.5t59.5 -6h405v-130h-418z" />
    <glyph glyph-name="M" unicode="M" horiz-adv-x="1192" 
d="M995 0v449l-333 -435q-23 -29 -67 -29t-67 29l-332 435v-449h-138v635q0 32 23.5 47t58.5 15q27 0 43 -7.5t29 -24.5l385 -511l388 511q13 17 27.5 24.5t40.5 7.5q35 0 58.5 -15t23.5 -47v-635h-140z" />
    <glyph glyph-name="N" unicode="N" horiz-adv-x="912" 
d="M779 -15q-24 0 -44.5 7.5t-38.5 24.5l-497 468v-485h-141v634q0 32 22.5 47.5t58.5 15.5q26 0 43 -7t28 -18l501 -483v493h144v-634q0 -34 -21 -48.5t-55 -14.5z" />
    <glyph glyph-name="O" unicode="O" 
d="M314 0q-75 0 -125 12.5t-80 40t-42.5 72t-12.5 109.5v214q0 64 12.5 109t42.5 72.5t80 40t125 12.5h259q76 0 126 -12.5t80 -40t42.5 -72.5t12.5 -109v-214q0 -65 -12.5 -109.5t-42.5 -72t-80 -40t-126 -12.5h-259zM682 441q0 32 -5.5 53t-18.5 34t-35.5 18t-55.5 5h-246
q-36 0 -58.5 -5t-35.5 -18t-17.5 -34t-4.5 -53v-201q0 -33 4.5 -54.5t17.5 -34t35.5 -17t58.5 -4.5h246q33 0 55.5 4.5t35.5 17t18.5 34t5.5 54.5v201z" />
    <glyph glyph-name="P" unicode="P" horiz-adv-x="897" 
d="M211 195v-195h-152v682h546q73 0 122 -11.5t79 -38t42.5 -68.5t12.5 -102v-59q0 -61 -12 -101t-41.5 -64t-78.5 -33.5t-124 -9.5h-394zM709 456q0 55 -23.5 75t-84.5 20h-390v-233h392q60 0 83 18.5t23 72.5v47z" />
    <glyph glyph-name="Q" unicode="Q" 
d="M698 -98l-98 105h-286q-76 0 -126 11.5t-80 38.5t-42.5 71t-12.5 109v211q0 64 12.5 109t42.5 72.5t80 40t126 12.5h259q76 0 126 -12.5t80 -40t42.5 -72.5t12.5 -109v-211q0 -75 -17 -122.5t-61 -73.5l129 -139h-187zM682 441q0 32 -5.5 53t-18.5 34t-35.5 18t-55.5 5
h-246q-36 0 -58.5 -5t-35.5 -18t-17.5 -34t-4.5 -53v-174q0 -41 3.5 -67t15.5 -41t35 -20.5t62 -5.5h246q33 0 55.5 4.5t35.5 17t18.5 34t5.5 54.5v198z" />
    <glyph glyph-name="R" unicode="R" horiz-adv-x="908" 
d="M608 0l-399 248v-248h-151v682h534q72 0 123 -9t83.5 -32t47.5 -63t15 -101v-47q0 -59 -16 -97.5t-49.5 -61t-84.5 -31.5t-121 -9h-120l400 -231h-262zM709 469q0 27 -6 44t-20 26t-39 12t-62 3h-373v-208h373q37 0 61.5 3t39 12t20.5 26t6 45v37z" />
    <glyph glyph-name="S" unicode="S" horiz-adv-x="809" 
d="M39 0v129h518q41 0 59 11.5t18 46.5v37q0 32 -18 45.5t-58 13.5h-325q-57 0 -94.5 10.5t-59.5 32t-30.5 54t-8.5 76.5v34q0 52 11 89t34 59.5t60 33t88 10.5h212v-129h-198q-35 0 -51.5 -13.5t-16.5 -54.5v-22q0 -32 15 -45.5t52 -13.5h319q57 0 96.5 -9.5t64.5 -30.5
t36 -54t11 -79v-54q0 -48 -11 -81.5t-36 -54.5t-64.5 -31t-96.5 -10h-526z" />
    <glyph glyph-name="T" unicode="T" horiz-adv-x="764" 
d="M305 0v551h-286v131h725v-131h-286v-551h-153z" />
    <glyph glyph-name="U" unicode="U" 
d="M316 0q-75 0 -125 12.5t-80 40t-42.5 72t-12.5 109.5v448h153v-443q0 -32 6.5 -52.5t20.5 -33.5t37.5 -18t57.5 -5h229q34 0 57.5 5t37.5 18t20.5 34t6.5 53v442h151v-448q0 -65 -12.5 -109.5t-42.5 -72t-80 -40t-126 -12.5h-256z" />
    <glyph glyph-name="V" unicode="V" horiz-adv-x="1025" 
d="M623 50q-19 -31 -43 -48t-69 -17t-69 17t-43 48l-392 632h184l323 -527l322 527h181z" />
    <glyph glyph-name="W" unicode="W" horiz-adv-x="1345" 
d="M671 490l-209 -440q-14 -29 -37.5 -47t-59.5 -18q-37 0 -58 18t-33 47l-265 632h169l200 -493l203 447q15 34 35 47.5t57 13.5t58 -13.5t35 -47.5l195 -447l207 493h166q-12 -26 -34 -76t-49 -111.5t-57 -129t-57.5 -129t-49 -111t-32.5 -75.5q-13 -29 -35 -47t-55 -18
q-36 0 -59 17.5t-37 47.5z" />
    <glyph glyph-name="X" unicode="X" horiz-adv-x="1009" 
d="M781 0l-281 261l-280 -261h-212l392 353l-370 329h219l260 -242l274 242h207l-371 -328l383 -354h-221z" />
    <glyph glyph-name="Y" unicode="Y" horiz-adv-x="963" 
d="M404 0v322l-400 360h205l275 -243l280 243h194l-402 -362v-320h-152z" />
    <glyph glyph-name="Z" unicode="Z" horiz-adv-x="843" 
d="M788 612q0 -37 -29 -63l-478 -419h525v-130h-704q-32 0 -49 18.5t-17 48.5q0 38 31 65l488 419h-503v131h670q32 0 49 -20.5t17 -49.5z" />
    <glyph glyph-name="bracketleft" unicode="[" horiz-adv-x="363" 
d="M106 -220v1075h243v-79h-144v-917h144v-79h-243z" />
    <glyph glyph-name="backslash" unicode="\" horiz-adv-x="510" 
d="M385 -101l-381 818h119l383 -818h-121z" />
    <glyph glyph-name="bracketright" unicode="]" horiz-adv-x="363" 
d="M9 -220v79h144v917h-144v79h243v-1075h-243z" />
    <glyph glyph-name="asciicircum" unicode="^" horiz-adv-x="620" 
d="M309 697q27 0 42.5 -13t26.5 -35l213 -425h-120l-162 328l-162 -328h-119l213 425q11 22 26 35t42 13z" />
    <glyph glyph-name="underscore" unicode="_" horiz-adv-x="670" 
d="M-2 -139v99h675v-99h-675z" />
    <glyph glyph-name="grave" unicode="`" horiz-adv-x="400" 
d="M217 613l-158 218h156l126 -218h-124z" />
    <glyph glyph-name="a" unicode="a" horiz-adv-x="838" 
d="M244 0q-59 0 -97 10t-60.5 28.5t-31.5 45t-9 59.5v51q0 34 8.5 60.5t29.5 45t57.5 28t92.5 9.5h401v12q0 52 -21 69.5t-71 17.5h-148v106h148q65 0 110.5 -12t74.5 -36.5t42.5 -62t13.5 -89.5v-132q0 -59 -11.5 -99t-40 -65t-76 -35.5t-119.5 -10.5h-293zM635 245h-385
q-26 0 -41 -11.5t-15 -43.5v-37q0 -29 16 -40t45 -11h280q26 0 45 4t31 14.5t18 29.5t6 49v46z" />
    <glyph glyph-name="b" unicode="b" horiz-adv-x="821" 
d="M316 0q-75 0 -125 12.5t-80 40t-42.5 72t-12.5 109.5v483h149v-175h301q76 0 126 -12.5t80 -40t42.5 -72.5t12.5 -110v-73q0 -65 -12.5 -109.5t-42.5 -72t-80 -40t-126 -12.5h-190zM618 302q0 35 -5 57t-18 34t-36 16.5t-58 4.5h-296v-177q0 -33 5 -54.5t18 -34
t35.5 -17.5t57.5 -5h180q35 0 58 5t36 17.5t18 34t5 55.5v64z" />
    <glyph glyph-name="c" unicode="c" horiz-adv-x="756" 
d="M314 0q-75 0 -125 12.5t-80 40t-42.5 72t-12.5 109.5v73q0 65 12.5 110t42.5 72.5t80 40t125 12.5h392v-128h-387q-35 0 -57.5 -5t-35.5 -17.5t-18 -34.5t-5 -55v-64q0 -32 5 -53.5t18 -34.5t35.5 -18.5t57.5 -5.5h388v-126h-393z" />
    <glyph glyph-name="d" unicode="d" horiz-adv-x="821" 
d="M315 0q-76 0 -126.5 12.5t-80.5 40t-42.5 72t-12.5 109.5v73q0 65 12.5 110t42.5 72.5t80.5 40t126.5 12.5h301v175h149v-483q0 -65 -12.5 -109.5t-42.5 -72t-80 -40t-126 -12.5h-189zM202 238q0 -36 5.5 -58t20.5 -34t40.5 -16t65.5 -4h166q35 0 57.5 4.5t35.5 17t18 34
t5 55.5v177h-283q-39 0 -64.5 -4t-40.5 -16t-20.5 -34t-5.5 -58v-64z" />
    <glyph glyph-name="e" unicode="e" horiz-adv-x="809" 
d="M203 216v-25q0 -25 4 -40t14.5 -23.5t28 -11.5t43.5 -3h176v-113h-176q-129 0 -184 49t-55 157v125q0 59 11.5 99.5t40 65t75.5 35.5t119 11h262q58 0 96.5 -11t61 -30.5t31.5 -47t9 -59.5v-178h-557zM611 382q0 27 -13.5 36t-47.5 9h-248q-28 0 -47 -2.5t-30.5 -11.5
t-16.5 -26t-5 -46v-29h408v70z" />
    <glyph glyph-name="f" unicode="f" horiz-adv-x="433" 
d="M59 0v571q0 82 43 114t131 32h173v-106h-150q-28 0 -38 -9.5t-10 -35.5v-24h197v-121h-197v-421h-149z" />
    <glyph glyph-name="g" unicode="g" horiz-adv-x="816" 
d="M350 -162v122h207q33 0 47 13t14 45v44h-340q-62 0 -105.5 10t-70.5 31.5t-39 56t-12 83.5v83q0 62 10.5 103.5t37 66.5t72 35.5t114.5 10.5h242q67 0 112.5 -12t73 -38t39 -67t11.5 -99v-316q0 -91 -45 -131.5t-147 -40.5h-221zM618 323q0 54 -21 73t-76 19h-234
q-52 0 -71 -19.5t-19 -73.5v-71q0 -22 4.5 -36t15 -22.5t27.5 -11.5t43 -3h331v145z" />
    <glyph glyph-name="h" unicode="h" horiz-adv-x="827" 
d="M622 0v302q0 34 -5.5 56t-18.5 34.5t-36 17t-57 4.5h-297v-414h-149v717h149v-175h301q76 0 126.5 -12.5t80.5 -40t42.5 -72.5t12.5 -110v-307h-149z" />
    <glyph glyph-name="i" unicode="i" horiz-adv-x="270" 
d="M59 0v528h152v-528h-152zM110 573q-28 0 -39.5 11t-11.5 35v58q0 24 11.5 34.5t39.5 10.5h49q29 0 40.5 -10.5t11.5 -34.5v-58q0 -24 -11.5 -35t-40.5 -11h-49z" />
    <glyph glyph-name="j" unicode="j" horiz-adv-x="285" 
d="M-56 -162v127h33q29 0 48 3.5t30.5 13.5t16.5 26t5 42v478h149v-483q0 -109 -56 -158t-186 -49h-40zM126 573q-28 0 -40 11t-12 35v58q0 24 12 34.5t40 10.5h49q28 0 39.5 -10.5t11.5 -34.5v-58q0 -24 -11.5 -35t-39.5 -11h-49z" />
    <glyph glyph-name="k" unicode="k" horiz-adv-x="731" 
d="M524 0l-315 256v-256h-150v717h150v-426l313 251h194l-337 -261l346 -281h-201z" />
    <glyph glyph-name="l" unicode="l" horiz-adv-x="270" 
d="M59 0v717h152v-717h-152z" />
    <glyph glyph-name="m" unicode="m" horiz-adv-x="1113" 
d="M911 0v326q0 51 -19.5 69.5t-62.5 18.5h-97q-33 0 -54.5 -4.5t-34 -15t-17.5 -27t-5 -41.5v-326h-131v326q0 25 -4.5 41.5t-17 27t-34.5 15t-56 4.5h-95q-45 0 -63.5 -18.5t-18.5 -69.5v-326h-145v348q0 50 10 86.5t33 60.5t60 35.5t91 11.5h131q41 0 70.5 -6t50 -17.5
t33 -29.5t20.5 -42q14 48 53.5 71.5t119.5 23.5h135q54 0 91 -11.5t60 -35.5t33 -60.5t10 -86.5v-348h-146z" />
    <glyph glyph-name="n" unicode="n" horiz-adv-x="814" 
d="M609 0v302q0 34 -5.5 55.5t-19 34t-37 17.5t-59.5 5h-162q-35 0 -58.5 -5t-37.5 -17.5t-19.5 -34t-5.5 -55.5v-302h-149v307q0 65 12.5 110t42.5 72.5t80 40t125 12.5h181q76 0 126 -12.5t80 -40t42.5 -72.5t12.5 -110v-307h-149z" />
    <glyph glyph-name="o" unicode="o" horiz-adv-x="810" 
d="M314 0q-75 0 -125 12.5t-80 40t-42.5 72t-12.5 109.5v73q0 65 12.5 110t42.5 72.5t80 40t125 12.5h181q76 0 126 -12.5t80 -40.5t42.5 -73t12.5 -110v-72q0 -65 -12.5 -109.5t-42.5 -72t-80 -40t-126 -12.5h-181zM607 302q0 34 -5.5 56t-20 34.5t-40.5 17t-66 4.5h-141
q-40 0 -65.5 -4.5t-40 -17t-20 -34.5t-5.5 -56v-64q0 -34 5.5 -55.5t20 -34t40 -17.5t65.5 -5h141q40 0 66 5t40.5 17.5t20 34t5.5 55.5v64z" />
    <glyph glyph-name="p" unicode="p" horiz-adv-x="821" 
d="M506 542q76 0 126 -12.5t80 -40t42.5 -72.5t12.5 -110v-73q0 -65 -12.5 -109.5t-42.5 -72t-80 -40t-126 -12.5h-302v-162h-149v469q0 65 12.5 110t42.5 72.5t80 40t126 12.5h190zM618 303q0 36 -5.5 58t-20.5 34t-40.5 16t-64.5 4h-166q-35 0 -58 -5t-36 -17.5t-18 -34
t-5 -54.5v-177h284q39 0 64 3.5t40 15.5t20.5 34t5.5 59v64z" />
    <glyph glyph-name="q" unicode="q" horiz-adv-x="821" 
d="M504 542q76 0 126 -12.5t80 -40t42.5 -72.5t12.5 -110v-469h-149v162h-301q-76 0 -126.5 12.5t-80.5 40t-42.5 72t-12.5 109.5v73q0 65 12.5 110t42.5 72.5t80.5 40t126.5 12.5h189zM202 239q0 -35 5 -57t18.5 -34t36 -16.5t58.5 -4.5h296v177q0 34 -5 55.5t-18 34
t-35.5 17t-57.5 4.5h-166q-40 0 -65.5 -4t-40.5 -16t-20.5 -34t-5.5 -58v-64z" />
    <glyph glyph-name="r" unicode="r" horiz-adv-x="440" 
d="M59 0v314q0 61 14 104t44.5 70.5t78.5 40.5t117 13h97v-121h-93q-31 0 -52 -5t-33.5 -17t-18 -33t-5.5 -53v-313h-149z" />
    <glyph glyph-name="s" unicode="s" horiz-adv-x="737" 
d="M696 144q0 -40 -7 -67.5t-27.5 -44.5t-56 -24.5t-92.5 -7.5h-466v117h447q30 0 42 10t12 38v18q0 30 -11.5 37.5t-38.5 7.5h-304q-46 0 -74.5 9t-44.5 27t-21.5 44.5t-5.5 62.5v41q0 35 7.5 60t24.5 40.5t46 22.5t73 7h206v-113h-170q-22 0 -31.5 -8t-9.5 -29v-25
q0 -23 9 -31t29 -8h294q52 0 85 -8.5t52 -27t26 -48t7 -72.5v-28z" />
    <glyph glyph-name="t" unicode="t" horiz-adv-x="426" 
d="M90 0v421h-76v121h76v153h152v-153h171v-121h-171v-421h-152z" />
    <glyph glyph-name="u" unicode="u" horiz-adv-x="810" 
d="M316 0q-75 0 -125 12.5t-80 40t-42.5 72t-12.5 109.5v308h150v-304q0 -35 6.5 -56.5t20.5 -33.5t37.5 -16.5t57.5 -4.5h156q36 0 60 4.5t37.5 16.5t19 33.5t5.5 56.5v304h148v-308q0 -65 -12.5 -109.5t-42.5 -72t-80.5 -40t-126.5 -12.5h-176z" />
    <glyph glyph-name="v" unicode="v" horiz-adv-x="937" 
d="M571 36q-17 -23 -39.5 -37t-62.5 -14q-42 0 -64 14t-39 37l-357 506h178l284 -415l281 415h176z" />
    <glyph glyph-name="w" unicode="w" horiz-adv-x="1103" 
d="M551 373l-161 -334q-12 -25 -32.5 -39.5t-50.5 -14.5q-34 0 -51.5 14.5t-28.5 39.5l-217 503h151l156 -365l155 324q14 27 31.5 41.5t50.5 14.5q32 0 50 -13.5t31 -42.5l147 -324l164 365h148l-227 -503q-11 -23 -31.5 -38.5t-50.5 -15.5q-29 0 -49.5 15.5t-31.5 38.5z
" />
    <glyph glyph-name="x" unicode="x" horiz-adv-x="752" 
d="M558 0l-183 196l-186 -196h-182l281 282l-262 260h179l176 -183l180 183h180l-271 -265l274 -277h-186z" />
    <glyph glyph-name="y" unicode="y" horiz-adv-x="828" 
d="M205 260q0 -45 19.5 -62.5t65.5 -17.5h333v362h145v-532q0 -91 -45 -131.5t-147 -40.5h-217v122h204q31 0 45.5 12t14.5 46v44h-342q-61 0 -103.5 11.5t-69 35.5t-38.5 60t-12 85v288h147v-282z" />
    <glyph glyph-name="z" unicode="z" horiz-adv-x="701" 
d="M649 486q0 -30 -23 -50l-372 -323h411v-113h-577q-25 0 -38.5 16.5t-13.5 37.5q0 30 25 52l384 325h-396v111h546q27 0 40.5 -17t13.5 -39z" />
    <glyph glyph-name="braceleft" unicode="{" horiz-adv-x="333" 
d="M218 413q0 -45 -15.5 -69t-39.5 -27q24 -3 39.5 -27t15.5 -69v-318q0 -23 7 -33t24 -10h71v-80h-95q-31 0 -51.5 6.5t-33 20t-17.5 35.5t-5 54v311q0 36 -13 49t-42 13h-12q-21 0 -30 12t-9 36q0 23 9 35t30 12h12q29 0 42 13.5t13 49.5v312q0 31 5 53.5t17.5 36t33 20
t51.5 6.5h95v-80h-71q-17 0 -24 -10t-7 -33v-319z" />
    <glyph glyph-name="bar" unicode="|" horiz-adv-x="265" 
d="M82 -220v1075h100v-1075h-100z" />
    <glyph glyph-name="braceright" unicode="}" horiz-adv-x="333" 
d="M114 732q0 23 -7 33t-24 10h-71v80h95q61 0 84 -26.5t23 -89.5v-312q0 -36 13 -49.5t42 -13.5h12q21 0 30 -12t9 -35q0 -24 -9 -36t-30 -12h-12q-29 0 -42 -13t-13 -49v-311q0 -63 -23 -89.5t-84 -26.5h-95v80h71q17 0 24 10t7 33v318q0 45 15.5 69t39.5 27
q-24 3 -39.5 27t-15.5 69v319z" />
    <glyph glyph-name="asciitilde" unicode="~" horiz-adv-x="590" 
d="M400 270q-8 0 -17 3l-174 60q-5 2 -14 2q-7 0 -17 -3l-120 -46v105l106 41q15 5 25 5q8 0 17 -3l174 -60q5 -2 14 -2q6 0 17 3l120 46v-105l-106 -41q-15 -5 -25 -5z" />
    <glyph glyph-name="nonbreakingspace" unicode="&#xa0;" horiz-adv-x="397" 
 />
    <glyph glyph-name="exclamdown" unicode="&#xa1;" horiz-adv-x="284" 
d="M66 0zM217.004 475.013v-474.971h-150.99v474.971h150.99zM166.007 682q27.999 0 39.498 -10.499q11.499 -10.5 11.499 -34.498v-57.9971q0 -23.998 -11.499 -34.9971q-11.499 -11 -39.498 -11h-48.9971q-27.998 0 -39.4971 11q-11.499 10.999 -11.499 34.9971v57.9971
q0 23.998 11.499 34.498q11.499 10.499 39.4971 10.499h48.9971z" />
    <glyph glyph-name="cent" unicode="&#xa2;" horiz-adv-x="733" 
d="M487 64v-64h-107v64h-72q-76 0 -126 12.5t-80 40t-42.5 72t-12.5 109.5v73q0 65 12.5 110t42.5 72.5t80 40t126 12.5h72v76h107v-76h212v-127h-212v-289h213v-126h-213zM196 302q0 -32 5 -53.5t18 -34.5t35.5 -18.5t57.5 -5.5h68v289h-68q-35 0 -57.5 -5t-35.5 -18
t-18 -35t-5 -55v-64z" />
    <glyph glyph-name="sterling" unicode="&#xa3;" horiz-adv-x="843" 
d="M25 0v127h89v321q0 64 12.5 109t42.5 72.5t80.5 40t127.5 12.5h154v-127h-154q-62 0 -86 -24.5t-24 -82.5v-49h530v-116h-530v-156h534v-127h-776z" />
    <glyph glyph-name="currency" unicode="&#xa4;" horiz-adv-x="724" 
d="M633 6l-150 153h-245l-151 -154l-57 60l151 151v246l-151 150l58 58l150 -151h245l150 151l61 -58l-153 -150v-246l152 -151zM455 433h-188v-189h188v189z" />
    <glyph glyph-name="yen" unicode="&#xa5;" horiz-adv-x="874" 
d="M508 92v-92h-146v92h-250v98h250v68h-250v98h235l-342 326h185l248 -244l254 244h176l-345 -326h239v-98h-254v-68h254v-98h-254z" />
    <glyph glyph-name="brokenbar" unicode="&#xa6;" horiz-adv-x="265" 
d="M82 400v455h100v-455h-100zM82 -220v455h100v-455h-100z" />
    <glyph glyph-name="section" unicode="&#xa7;" horiz-adv-x="735" 
d="M40 -220v112h396q53 0 75.5 18.5t22.5 74.5v61h-272q-65 0 -107.5 10.5t-68 34t-36 61.5t-10.5 93v238q0 55 10.5 93t36 61.5t68 34t107.5 10.5h214v-112h-209q-57 0 -77.5 -20t-20.5 -73v-62h272q64 0 107 -10.5t69 -34t36.5 -61.5t10.5 -93v-236q0 -55 -10.5 -93
t-36.5 -62t-69 -34.5t-107 -10.5h-401zM534 211q0 54 -21.5 73.5t-76.5 19.5h-267v-54q0 -28 4.5 -46t16 -28t30 -14t47.5 -4h267v53z" />
    <glyph glyph-name="dieresis" unicode="&#xa8;" horiz-adv-x="522" 
d="M109 573q-32 0 -42 13t-10 43v45q0 26 11.5 37t40.5 11h46q29 0 40 -11t11 -37v-53q0 -26 -11 -37t-40 -11h-46zM366 573q-29 0 -40 11t-11 37v53q0 26 11 37t40 11h46q28 0 39.5 -11t11.5 -37v-53q0 -26 -11.5 -37t-39.5 -11h-46z" />
    <glyph glyph-name="ordfeminine" unicode="&#xaa;" horiz-adv-x="526" 
d="M166 300q-66 0 -89 21.5t-23 57.5v29q0 38 21.5 58t84.5 20h206v8q0 19 -7.5 26t-26.5 7h-83v71h83q73 0 104 -26.5t31 -85.5v-70q0 -33 -6.5 -55t-22.5 -35.5t-42.5 -19.5t-66.5 -6h-163zM366 427h-189q-11 0 -16.5 -5t-5.5 -19v-13q0 -21 23 -21h149q20 0 29.5 7.5
t9.5 30.5v20z" />
    <glyph glyph-name="guillemotleft" unicode="&#xab;" horiz-adv-x="578" 
d="M19 96zM256 557v-135l-131 -96l131 -97v-133l-195 146q-19 14 -30.5 33t-11.5 52t11.5 51t30.5 32zM545 557v-135l-131 -96l131 -97v-133l-195 146q-19 14 -30.5 33t-11.5 52t11.5 51t30.5 32z" />
    <glyph glyph-name="logicalnot" unicode="&#xac;" horiz-adv-x="577" 
d="M416 0v315h-377v101h479v-416h-102z" />
    <glyph glyph-name="macron" unicode="&#xaf;" horiz-adv-x="646" 
d="M59 658v106h528v-106h-528z" />
    <glyph glyph-name="degree" unicode="&#xb0;" horiz-adv-x="450" 
d="M189 331q-46 0 -76 7t-48 23.5t-25 43t-7 65.5v72q0 38 7 65t25 43.5t48 24t76 7.5h73q45 0 75 -7.5t48 -24t25.5 -43.5t7.5 -65v-72q0 -39 -7.5 -65.5t-25.5 -43t-48 -23.5t-75 -7h-73zM321 538q0 18 -2.5 29.5t-9.5 18t-19.5 9t-31.5 2.5h-65q-19 0 -31.5 -2.5
t-19.5 -9t-9.5 -18t-2.5 -29.5v-64q0 -35 12.5 -47.5t50.5 -12.5h65q39 0 51 12.5t12 47.5v64z" />
    <glyph glyph-name="plusminus" unicode="&#xb1;" horiz-adv-x="590" 
d="M59 0zM246 117v187h-187v98h187v187h98v-187h187v-98h-187v-187h-98zM59 -15v98h472v-98h-472z" />
    <glyph glyph-name="twosuperior" unicode="&#xb2;" horiz-adv-x="493" 
d="M38 351zM38 351v116q0 49 23.5 70.5t86.5 21.5h192q15 0 20.5 5t5.5 19v6q0 14 -5.5 19t-19.5 5h-119v79h129q54 0 77.5 -22t23.5 -76v-19q0 -48 -21.5 -67.5t-80.5 -19.5h-195q-17 0 -24 -6t-7 -21v-31h328v-79h-414z" />
    <glyph glyph-name="threesuperior" unicode="&#xb3;" horiz-adv-x="486" 
d="M36 351zM450 429q0 -42 -25.5 -60t-89.5 -18h-299v76h296q16 0 23 4.5t7 16.5v15q0 14 -6.5 19.5t-22.5 5.5h-295v68h291q16 0 22 5.5t6 17.5v16q0 11 -7 16t-25 5h-105v76h109q65 0 90.5 -19.5t25.5 -63.5v-24q0 -30 -9.5 -42.5t-23.5 -17.5q14 -5 26 -18.5t12 -50.5
v-27z" />
    <glyph glyph-name="acute" unicode="&#xb4;" horiz-adv-x="400" 
d="M59 613l125 218h157l-159 -218h-123z" />
    <glyph glyph-name="paragraph" unicode="&#xb6;" horiz-adv-x="874" 
d="M687 -162v769h-191v-769h-129v432h-124q-63 0 -104.5 10t-66 33t-35 60t-10.5 90v61q0 53 10.5 90t35 60t66 33t104.5 10h572v-879h-128zM367 607h-121q-54 0 -72.5 -18.5t-18.5 -68.5v-54q0 -25 4 -42t14.5 -27t28.5 -14t45 -4h120v228z" />
    <glyph glyph-name="periodcentered" unicode="&#xb7;" horiz-adv-x="270" 
d="M59 240zM110 240q-28 0 -39.5 10.5t-11.5 34.5v82q0 23 11.5 34t39.5 11h49q29 0 40.5 -11t11.5 -34v-82q0 -24 -11.5 -34.5t-40.5 -10.5h-49z" />
    <glyph glyph-name="cedilla" unicode="&#xb8;" horiz-adv-x="275" 
d="M59 -220l22 194h135l-54 -194h-103z" />
    <glyph glyph-name="onesuperior" unicode="&#xb9;" horiz-adv-x="181" 
d="M43 351zM43 351v341h94v-341h-94z" />
    <glyph glyph-name="ordmasculine" unicode="&#xba;" horiz-adv-x="510" 
d="M204 300q-42 0 -70 7t-44.5 22t-23.5 39.5t-7 60.5v40q0 36 7 60.5t23.5 39.5t44.5 22t70 7h102q42 0 70.5 -7t45 -22t23.5 -39.5t7 -60.5v-40q0 -36 -7 -60.5t-23.5 -39.5t-45 -22t-70.5 -7h-102zM351 464q0 29 -11.5 38.5t-43.5 9.5h-82q-32 0 -43 -9.5t-11 -38.5v-31
q0 -28 11 -37.5t43 -9.5h82q32 0 43.5 9.5t11.5 37.5v31z" />
    <glyph glyph-name="guillemotright" unicode="&#xbb;" horiz-adv-x="578" 
d="M19 96zM214 410q19 -14 30.5 -32t11.5 -51t-11.5 -52t-30.5 -33l-195 -146v133l131 97l-131 96v135zM503 410q19 -14 30.5 -32t11.5 -51t-11.5 -52t-30.5 -33l-195 -146v133l131 97l-131 96v135z" />
    <glyph glyph-name="onequarter" unicode="&#xbc;" horiz-adv-x="934" 
d="M54 0zM105 351v341h94v-341h-94zM54 0l479 682h116l-479 -682h-116zM790 -10v89h-333v252h92v-172h241v172h92v-341h-92z" />
    <glyph glyph-name="onehalf" unicode="&#xbd;" horiz-adv-x="840" 
d="M54 0zM105 351v341h94v-341h-94zM54 0l479 682h116l-479 -682h-116zM374 -10v116q0 49 23.5 70.5t86.5 21.5h192q15 0 20.5 5t5.5 19v6q0 14 -5.5 19t-19.5 5h-119v79h129q54 0 77.5 -22t23.5 -76v-19q0 -48 -21.5 -67.5t-80.5 -19.5h-195q-17 0 -24 -6t-7 -21v-31h328
v-79h-414z" />
    <glyph glyph-name="threequarters" unicode="&#xbe;" horiz-adv-x="1113" 
d="M52 0zM466 429q0 -42 -25.5 -60t-89.5 -18h-299v76h296q16 0 23 4.5t7 16.5v15q0 14 -6.5 19.5t-22.5 5.5h-295v68h291q16 0 22 5.5t6 17.5v16q0 11 -7 16t-25 5h-105v76h109q65 0 90.5 -19.5t25.5 -63.5v-24q0 -30 -9.5 -42.5t-23.5 -17.5q14 -5 26 -18.5t12 -50.5v-27z
M243 0l479 682h116l-479 -682h-116zM969 -10v89h-333v252h92v-172h241v172h92v-341h-92z" />
    <glyph glyph-name="questiondown" unicode="&#xbf;" horiz-adv-x="595" 
d="M30 0zM354.015 400.018q25.999 0 34.998 10.999t8.99902 34.998v28.998h147.991v-41.9971q0 -36.998 -8.49902 -64.4961q-8.5 -27.499 -27.999 -44.498q-19.498 -16.999 -51.9961 -25.498q-32.498 -8.5 -80.4951 -8.5h-145.991q-30.998 0 -46.4971 -13.499
t-15.499 -52.4961v-27.999q0 -38.9971 15.999 -53.4961t50.9961 -14.499h149.991v-127.992h-159.99q-102.993 0 -149.491 43.9971q-46.4971 43.9971 -46.4971 145.991v37.9971q0 44.998 8.5 77.4961q8.49902 32.498 29.498 53.4961q20.999 20.999 56.9961 30.998
q35.998 10 90.9951 10h137.991zM495.006 682q27.999 0 39.498 -10.499q11.499 -10.5 11.499 -34.498v-57.9971q0 -23.998 -11.499 -34.9971q-11.499 -11 -39.498 -11h-48.9971q-27.998 0 -39.9971 11q-11.999 10.999 -11.999 34.9971v57.9971q0 23.998 11.999 34.498
q11.999 10.499 39.9971 10.499h48.9971z" />
    <glyph glyph-name="Agrave" unicode="&#xc0;" horiz-adv-x="1035" 
d="M8 0zM752 157h-472l-97 -157h-175l396 630q18 29 43 48t72 19q46 0 71 -19t43 -48l394 -630h-176zM351 274h330l-165 269zM484 753l-158 218h156l126 -218h-124z" />
    <glyph glyph-name="Aacute" unicode="&#xc1;" horiz-adv-x="1035" 
d="M8 0zM752 157h-472l-97 -157h-175l396 630q18 29 43 48t72 19q46 0 71 -19t43 -48l394 -630h-176zM351 274h330l-165 269zM426 753l125 218h157l-159 -218h-123z" />
    <glyph glyph-name="Acircumflex" unicode="&#xc2;" horiz-adv-x="1035" 
d="M8 0zM752 157h-472l-97 -157h-175l396 630q18 29 43 48t72 19q46 0 71 -19t43 -48l394 -630h-176zM351 274h330l-165 269zM628 714l-113 152l-111 -152h-144l169 225q14 18 34 29.5t55 11.5t54 -11.5t33 -29.5l170 -225h-147z" />
    <glyph glyph-name="Atilde" unicode="&#xc3;" horiz-adv-x="1035" 
d="M8 0zM752 157h-472l-97 -157h-175l396 630q18 29 43 48t72 19q46 0 71 -19t43 -48l394 -630h-176zM351 274h330l-165 269zM253 798v106h528v-106h-528z" />
    <glyph glyph-name="Adieresis" unicode="&#xc4;" horiz-adv-x="1035" 
d="M8 0zM752 157h-472l-97 -157h-175l396 630q18 29 43 48t72 19q46 0 71 -19t43 -48l394 -630h-176zM351 274h330l-165 269zM366 713q-32 0 -42 13t-10 43v45q0 26 11.5 37t40.5 11h46q29 0 40 -11t11 -37v-53q0 -26 -11 -37t-40 -11h-46zM623 713q-29 0 -40 11t-11 37v53
q0 26 11 37t40 11h46q28 0 39.5 -11t11.5 -37v-53q0 -26 -11.5 -37t-39.5 -11h-46z" />
    <glyph glyph-name="Aring" unicode="&#xc5;" horiz-adv-x="1035" 
d="M8 0zM752 157h-472l-97 -157h-175l396 630q18 29 43 48t72 19q46 0 71 -19t43 -48l394 -630h-176zM351 274h330l-165 269zM468 708q-36 0 -59.5 5.5t-37.5 18.5t-19.5 33.5t-5.5 50.5v56q0 30 5.5 50.5t19.5 33t37.5 18.5t59.5 6h99q36 0 59.5 -6t37.5 -18.5t19.5 -33
t5.5 -50.5v-56q0 -30 -5.5 -50.5t-19.5 -33.5t-37.5 -18.5t-59.5 -5.5h-99zM616 869q0 28 -11 38t-40 10h-95q-28 0 -40.5 -10t-12.5 -38v-51q0 -29 12 -38.5t41 -9.5h95q28 0 39.5 10t11.5 38v51z" />
    <glyph glyph-name="AE" unicode="&#xc6;" horiz-adv-x="1349" 
d="M286 157l-95 -157h-183l388 616q18 29 43 47.5t71 18.5h506v-129h-274v-154h563v-116h-563v-76q0 -23 4.5 -38.5t16.5 -24.5t32 -13t51 -4h464v-127h-464q-62 0 -106 7.5t-73.5 26t-46 48.5t-22.5 75h-312zM591 551h-64l-171 -277h235v277z" />
    <glyph glyph-name="Ccedilla" unicode="&#xc7;" horiz-adv-x="826" 
d="M54 0zM314 0q-75 0 -125 12.5t-80 40t-42.5 72t-12.5 109.5v214q0 64 12.5 109t42.5 72.5t80 40t125 12.5h473v-131h-466q-35 0 -57.5 -5.5t-35.5 -18.5t-18 -34.5t-5 -52.5v-200q0 -32 5 -53t18 -34t36 -18t58 -5h465v-130h-473zM354 -220l22 194h135l-54 -194h-103z
" />
    <glyph glyph-name="Egrave" unicode="&#xc8;" horiz-adv-x="829" 
d="M54 0zM314 0q-75 0 -125 12.5t-80 40t-42.5 72t-12.5 109.5v214q0 64 12.5 109t42.5 72.5t80 40t125 12.5h168v-129h-168q-33 0 -54 -5.5t-33.5 -17.5t-17 -32t-4.5 -50v-46h581v-121h-581v-48q0 -31 4.5 -51t16.5 -32t33.5 -16.5t54.5 -4.5h476v-129h-476zM381 753
l-158 218h156l126 -218h-124z" />
    <glyph glyph-name="Eacute" unicode="&#xc9;" horiz-adv-x="829" 
d="M54 0zM314 0q-75 0 -125 12.5t-80 40t-42.5 72t-12.5 109.5v214q0 64 12.5 109t42.5 72.5t80 40t125 12.5h168v-129h-168q-33 0 -54 -5.5t-33.5 -17.5t-17 -32t-4.5 -50v-46h581v-121h-581v-48q0 -31 4.5 -51t16.5 -32t33.5 -16.5t54.5 -4.5h476v-129h-476zM323 753
l125 218h157l-159 -218h-123z" />
    <glyph glyph-name="Ecircumflex" unicode="&#xca;" horiz-adv-x="829" 
d="M54 0zM314 0q-75 0 -125 12.5t-80 40t-42.5 72t-12.5 109.5v214q0 64 12.5 109t42.5 72.5t80 40t125 12.5h168v-129h-168q-33 0 -54 -5.5t-33.5 -17.5t-17 -32t-4.5 -50v-46h581v-121h-581v-48q0 -31 4.5 -51t16.5 -32t33.5 -16.5t54.5 -4.5h476v-129h-476zM555 714
l-113 152l-111 -152h-144l169 225q14 18 34 29.5t55 11.5t54 -11.5t33 -29.5l170 -225h-147z" />
    <glyph glyph-name="Edieresis" unicode="&#xcb;" horiz-adv-x="829" 
d="M54 0zM314 0q-75 0 -125 12.5t-80 40t-42.5 72t-12.5 109.5v214q0 64 12.5 109t42.5 72.5t80 40t125 12.5h168v-129h-168q-33 0 -54 -5.5t-33.5 -17.5t-17 -32t-4.5 -50v-46h581v-121h-581v-48q0 -31 4.5 -51t16.5 -32t33.5 -16.5t54.5 -4.5h476v-129h-476zM293 713
q-32 0 -42 13t-10 43v45q0 26 11.5 37t40.5 11h46q29 0 40 -11t11 -37v-53q0 -26 -11 -37t-40 -11h-46zM550 713q-29 0 -40 11t-11 37v53q0 26 11 37t40 11h46q28 0 39.5 -11t11.5 -37v-53q0 -26 -11.5 -37t-39.5 -11h-46z" />
    <glyph glyph-name="Igrave" unicode="&#xcc;" horiz-adv-x="273" 
d="M0 0zM60 0v682h152v-682h-152zM105 753l-158 218h156l126 -218h-124z" />
    <glyph glyph-name="Iacute" unicode="&#xcd;" horiz-adv-x="273" 
d="M47 0zM60 0v682h152v-682h-152zM47 753l125 218h157l-159 -218h-123z" />
    <glyph glyph-name="Icircumflex" unicode="&#xce;" horiz-adv-x="273" 
d="M0 0zM60 0v682h152v-682h-152zM248 714l-113 152l-111 -152h-144l169 225q14 18 34 29.5t55 11.5t54 -11.5t33 -29.5l170 -225h-147z" />
    <glyph glyph-name="Idieresis" unicode="&#xcf;" horiz-adv-x="273" 
d="M0 0zM60 0v682h152v-682h-152zM-13 713q-32 0 -42 13t-10 43v45q0 26 11.5 37t40.5 11h46q29 0 40 -11t11 -37v-53q0 -26 -11 -37t-40 -11h-46zM244 713q-29 0 -40 11t-11 37v53q0 26 11 37t40 11h46q28 0 39.5 -11t11.5 -37v-53q0 -26 -11.5 -37t-39.5 -11h-46z" />
    <glyph glyph-name="Eth" unicode="&#xd0;" horiz-adv-x="941" 
d="M85 0v283h-81v116h81v283h540q76 0 126.5 -12.5t80.5 -40t42.5 -72.5t12.5 -109v-214q0 -65 -12.5 -109.5t-42.5 -72t-80.5 -40t-126.5 -12.5h-540zM735 444q0 32 -5.5 53.5t-19 34t-35.5 18t-56 5.5h-382v-159h281v-110h-281v-160h382q61 0 88.5 23t27.5 88v207z" />
    <glyph glyph-name="Ntilde" unicode="&#xd1;" horiz-adv-x="912" 
d="M58 0zM779 -15q-24 0 -44.5 7.5t-38.5 24.5l-497 468v-485h-141v634q0 32 22.5 47.5t58.5 15.5q26 0 43 -7t28 -18l501 -483v493h144v-634q0 -34 -21 -48.5t-55 -14.5zM192 798v106h528v-106h-528z" />
    <glyph glyph-name="Ograve" unicode="&#xd2;" 
d="M54 0zM314 0q-75 0 -125 12.5t-80 40t-42.5 72t-12.5 109.5v214q0 64 12.5 109t42.5 72.5t80 40t125 12.5h259q76 0 126 -12.5t80 -40t42.5 -72.5t12.5 -109v-214q0 -65 -12.5 -109.5t-42.5 -72t-80 -40t-126 -12.5h-259zM682 441q0 32 -5.5 53t-18.5 34t-35.5 18
t-55.5 5h-246q-36 0 -58.5 -5t-35.5 -18t-17.5 -34t-4.5 -53v-201q0 -33 4.5 -54.5t17.5 -34t35.5 -17t58.5 -4.5h246q33 0 55.5 4.5t35.5 17t18.5 34t5.5 54.5v201zM411 753l-158 218h156l126 -218h-124z" />
    <glyph glyph-name="Oacute" unicode="&#xd3;" 
d="M54 0zM314 0q-75 0 -125 12.5t-80 40t-42.5 72t-12.5 109.5v214q0 64 12.5 109t42.5 72.5t80 40t125 12.5h259q76 0 126 -12.5t80 -40t42.5 -72.5t12.5 -109v-214q0 -65 -12.5 -109.5t-42.5 -72t-80 -40t-126 -12.5h-259zM682 441q0 32 -5.5 53t-18.5 34t-35.5 18
t-55.5 5h-246q-36 0 -58.5 -5t-35.5 -18t-17.5 -34t-4.5 -53v-201q0 -33 4.5 -54.5t17.5 -34t35.5 -17t58.5 -4.5h246q33 0 55.5 4.5t35.5 17t18.5 34t5.5 54.5v201zM353 753l125 218h157l-159 -218h-123z" />
    <glyph glyph-name="Ocircumflex" unicode="&#xd4;" 
d="M54 0zM314 0q-75 0 -125 12.5t-80 40t-42.5 72t-12.5 109.5v214q0 64 12.5 109t42.5 72.5t80 40t125 12.5h259q76 0 126 -12.5t80 -40t42.5 -72.5t12.5 -109v-214q0 -65 -12.5 -109.5t-42.5 -72t-80 -40t-126 -12.5h-259zM682 441q0 32 -5.5 53t-18.5 34t-35.5 18
t-55.5 5h-246q-36 0 -58.5 -5t-35.5 -18t-17.5 -34t-4.5 -53v-201q0 -33 4.5 -54.5t17.5 -34t35.5 -17t58.5 -4.5h246q33 0 55.5 4.5t35.5 17t18.5 34t5.5 54.5v201zM554 714l-113 152l-111 -152h-144l169 225q14 18 34 29.5t55 11.5t54 -11.5t33 -29.5l170 -225h-147z" />
    <glyph glyph-name="Otilde" unicode="&#xd5;" 
d="M54 0zM314 0q-75 0 -125 12.5t-80 40t-42.5 72t-12.5 109.5v214q0 64 12.5 109t42.5 72.5t80 40t125 12.5h259q76 0 126 -12.5t80 -40t42.5 -72.5t12.5 -109v-214q0 -65 -12.5 -109.5t-42.5 -72t-80 -40t-126 -12.5h-259zM682 441q0 32 -5.5 53t-18.5 34t-35.5 18
t-55.5 5h-246q-36 0 -58.5 -5t-35.5 -18t-17.5 -34t-4.5 -53v-201q0 -33 4.5 -54.5t17.5 -34t35.5 -17t58.5 -4.5h246q33 0 55.5 4.5t35.5 17t18.5 34t5.5 54.5v201zM180 798v106h528v-106h-528z" />
    <glyph glyph-name="Odieresis" unicode="&#xd6;" 
d="M54 0zM314 0q-75 0 -125 12.5t-80 40t-42.5 72t-12.5 109.5v214q0 64 12.5 109t42.5 72.5t80 40t125 12.5h259q76 0 126 -12.5t80 -40t42.5 -72.5t12.5 -109v-214q0 -65 -12.5 -109.5t-42.5 -72t-80 -40t-126 -12.5h-259zM682 441q0 32 -5.5 53t-18.5 34t-35.5 18
t-55.5 5h-246q-36 0 -58.5 -5t-35.5 -18t-17.5 -34t-4.5 -53v-201q0 -33 4.5 -54.5t17.5 -34t35.5 -17t58.5 -4.5h246q33 0 55.5 4.5t35.5 17t18.5 34t5.5 54.5v201zM293 713q-32 0 -42 13t-10 43v45q0 26 11.5 37t40.5 11h46q29 0 40 -11t11 -37v-53q0 -26 -11 -37t-40 -11
h-46zM550 713q-29 0 -40 11t-11 37v53q0 26 11 37t40 11h46q28 0 39.5 -11t11.5 -37v-53q0 -26 -11.5 -37t-39.5 -11h-46z" />
    <glyph glyph-name="multiply" unicode="&#xd7;" horiz-adv-x="590" 
d="M427 151l-132 133l-132 -133l-70 70l133 132l-133 132l70 70l132 -133l132 133l70 -70l-133 -132l133 -132z" />
    <glyph glyph-name="Oslash" unicode="&#xd8;" 
d="M314 0h-21t-20 1l-67 -93h-153l88 121q-49 26 -68 75t-19 130v214q0 64 12.5 109t42.5 72.5t80 40t125 12.5h259q11 0 20.5 -0.5t19.5 -0.5l68 93h153l-88 -122q49 -25 68.5 -74.5t19.5 -129.5v-214q0 -65 -12.5 -109.5t-42.5 -72t-80 -40t-126 -12.5h-259zM205 240
q0 -35 5 -56.5t19 -33.5l290 401h-198q-36 0 -58.5 -5t-35.5 -18t-17.5 -34t-4.5 -53v-201zM682 441q0 32 -6 53.5t-20 34.5l-289 -399h200q33 0 55.5 4.5t35.5 17t18.5 34t5.5 54.5v201z" />
    <glyph glyph-name="Ugrave" unicode="&#xd9;" 
d="M56 0zM316 0q-75 0 -125 12.5t-80 40t-42.5 72t-12.5 109.5v448h153v-443q0 -32 6.5 -52.5t20.5 -33.5t37.5 -18t57.5 -5h229q34 0 57.5 5t37.5 18t20.5 34t6.5 53v442h151v-448q0 -65 -12.5 -109.5t-42.5 -72t-80 -40t-126 -12.5h-256zM411 753l-158 218h156l126 -218
h-124z" />
    <glyph glyph-name="Uacute" unicode="&#xda;" 
d="M56 0zM316 0q-75 0 -125 12.5t-80 40t-42.5 72t-12.5 109.5v448h153v-443q0 -32 6.5 -52.5t20.5 -33.5t37.5 -18t57.5 -5h229q34 0 57.5 5t37.5 18t20.5 34t6.5 53v442h151v-448q0 -65 -12.5 -109.5t-42.5 -72t-80 -40t-126 -12.5h-256zM353 753l125 218h157l-159 -218
h-123z" />
    <glyph glyph-name="Ucircumflex" unicode="&#xdb;" 
d="M56 0zM316 0q-75 0 -125 12.5t-80 40t-42.5 72t-12.5 109.5v448h153v-443q0 -32 6.5 -52.5t20.5 -33.5t37.5 -18t57.5 -5h229q34 0 57.5 5t37.5 18t20.5 34t6.5 53v442h151v-448q0 -65 -12.5 -109.5t-42.5 -72t-80 -40t-126 -12.5h-256zM554 714l-113 152l-111 -152h-144
l169 225q14 18 34 29.5t55 11.5t54 -11.5t33 -29.5l170 -225h-147z" />
    <glyph glyph-name="Udieresis" unicode="&#xdc;" 
d="M56 0zM316 0q-75 0 -125 12.5t-80 40t-42.5 72t-12.5 109.5v448h153v-443q0 -32 6.5 -52.5t20.5 -33.5t37.5 -18t57.5 -5h229q34 0 57.5 5t37.5 18t20.5 34t6.5 53v442h151v-448q0 -65 -12.5 -109.5t-42.5 -72t-80 -40t-126 -12.5h-256zM293 713q-32 0 -42 13t-10 43v45
q0 26 11.5 37t40.5 11h46q29 0 40 -11t11 -37v-53q0 -26 -11 -37t-40 -11h-46zM550 713q-29 0 -40 11t-11 37v53q0 26 11 37t40 11h46q28 0 39.5 -11t11.5 -37v-53q0 -26 -11.5 -37t-39.5 -11h-46z" />
    <glyph glyph-name="Yacute" unicode="&#xdd;" horiz-adv-x="963" 
d="M4 0zM404 0v322l-400 360h205l275 -243l280 243h194l-402 -362v-320h-152zM390 753l125 218h157l-159 -218h-123z" />
    <glyph glyph-name="Thorn" unicode="&#xde;" horiz-adv-x="892" 
d="M211 99v-99h-152v682h152v-100h389q76 0 126 -9.5t80 -33.5t42.5 -65t12.5 -105v-57q0 -64 -12.5 -105t-42.5 -65t-80 -33.5t-126 -9.5h-389zM709 361q0 30 -4.5 49t-17 30t-34.5 15t-56 4h-386v-238h386q34 0 56 4t34.5 15t17 30t4.5 48v43z" />
    <glyph glyph-name="germandbls" unicode="&#xdf;" horiz-adv-x="947" 
d="M345 0v126h302q34 0 55.5 5t34 16t17 28.5t4.5 42.5v58q0 44 -18 60.5t-53 16.5h-145q-65 0 -94 28t-29 78v96q0 29 -12 40t-36 11h-115q-25 0 -36.5 -11t-11.5 -40v-555h-149v565q0 87 43 119.5t129 32.5h168q43 0 73.5 -7.5t49.5 -25.5t27.5 -47t8.5 -72v-72
q0 -17 8 -24t28 -7h92q62 0 104.5 -8.5t68 -29.5t36.5 -57.5t11 -91.5v-57q0 -57 -11.5 -98t-41 -68t-80 -39.5t-127.5 -12.5h-301z" />
    <glyph glyph-name="agrave" unicode="&#xe0;" horiz-adv-x="838" 
d="M46 0zM244 0q-59 0 -97 10t-60.5 28.5t-31.5 45t-9 59.5v51q0 34 8.5 60.5t29.5 45t57.5 28t92.5 9.5h401v12q0 52 -21 69.5t-71 17.5h-148v106h148q65 0 110.5 -12t74.5 -36.5t42.5 -62t13.5 -89.5v-132q0 -59 -11.5 -99t-40 -65t-76 -35.5t-119.5 -10.5h-293zM635 245
h-385q-26 0 -41 -11.5t-15 -43.5v-37q0 -29 16 -40t45 -11h280q26 0 45 4t31 14.5t18 29.5t6 49v46zM416 613l-158 218h156l126 -218h-124z" />
    <glyph glyph-name="aacute" unicode="&#xe1;" horiz-adv-x="838" 
d="M46 0zM244 0q-59 0 -97 10t-60.5 28.5t-31.5 45t-9 59.5v51q0 34 8.5 60.5t29.5 45t57.5 28t92.5 9.5h401v12q0 52 -21 69.5t-71 17.5h-148v106h148q65 0 110.5 -12t74.5 -36.5t42.5 -62t13.5 -89.5v-132q0 -59 -11.5 -99t-40 -65t-76 -35.5t-119.5 -10.5h-293zM635 245
h-385q-26 0 -41 -11.5t-15 -43.5v-37q0 -29 16 -40t45 -11h280q26 0 45 4t31 14.5t18 29.5t6 49v46zM358 613l125 218h157l-159 -218h-123z" />
    <glyph glyph-name="acircumflex" unicode="&#xe2;" horiz-adv-x="838" 
d="M46 0zM244 0q-59 0 -97 10t-60.5 28.5t-31.5 45t-9 59.5v51q0 34 8.5 60.5t29.5 45t57.5 28t92.5 9.5h401v12q0 52 -21 69.5t-71 17.5h-148v106h148q65 0 110.5 -12t74.5 -36.5t42.5 -62t13.5 -89.5v-132q0 -59 -11.5 -99t-40 -65t-76 -35.5t-119.5 -10.5h-293zM635 245
h-385q-26 0 -41 -11.5t-15 -43.5v-37q0 -29 16 -40t45 -11h280q26 0 45 4t31 14.5t18 29.5t6 49v46zM559 574l-113 152l-111 -152h-144l169 225q14 18 34 29.5t55 11.5t54 -11.5t33 -29.5l170 -225h-147z" />
    <glyph glyph-name="atilde" unicode="&#xe3;" horiz-adv-x="838" 
d="M46 0zM244 0q-59 0 -97 10t-60.5 28.5t-31.5 45t-9 59.5v51q0 34 8.5 60.5t29.5 45t57.5 28t92.5 9.5h401v12q0 52 -21 69.5t-71 17.5h-148v106h148q65 0 110.5 -12t74.5 -36.5t42.5 -62t13.5 -89.5v-132q0 -59 -11.5 -99t-40 -65t-76 -35.5t-119.5 -10.5h-293zM635 245
h-385q-26 0 -41 -11.5t-15 -43.5v-37q0 -29 16 -40t45 -11h280q26 0 45 4t31 14.5t18 29.5t6 49v46zM185 658v106h528v-106h-528z" />
    <glyph glyph-name="adieresis" unicode="&#xe4;" horiz-adv-x="838" 
d="M46 0zM244 0q-59 0 -97 10t-60.5 28.5t-31.5 45t-9 59.5v51q0 34 8.5 60.5t29.5 45t57.5 28t92.5 9.5h401v12q0 52 -21 69.5t-71 17.5h-148v106h148q65 0 110.5 -12t74.5 -36.5t42.5 -62t13.5 -89.5v-132q0 -59 -11.5 -99t-40 -65t-76 -35.5t-119.5 -10.5h-293zM635 245
h-385q-26 0 -41 -11.5t-15 -43.5v-37q0 -29 16 -40t45 -11h280q26 0 45 4t31 14.5t18 29.5t6 49v46zM298 573q-32 0 -42 13t-10 43v45q0 26 11.5 37t40.5 11h46q29 0 40 -11t11 -37v-53q0 -26 -11 -37t-40 -11h-46zM555 573q-29 0 -40 11t-11 37v53q0 26 11 37t40 11h46
q28 0 39.5 -11t11.5 -37v-53q0 -26 -11.5 -37t-39.5 -11h-46z" />
    <glyph glyph-name="aring" unicode="&#xe5;" horiz-adv-x="838" 
d="M46 0zM244 0q-59 0 -97 10t-60.5 28.5t-31.5 45t-9 59.5v51q0 34 8.5 60.5t29.5 45t57.5 28t92.5 9.5h401v12q0 52 -21 69.5t-71 17.5h-148v106h148q65 0 110.5 -12t74.5 -36.5t42.5 -62t13.5 -89.5v-132q0 -59 -11.5 -99t-40 -65t-76 -35.5t-119.5 -10.5h-293zM635 245
h-385q-26 0 -41 -11.5t-15 -43.5v-37q0 -29 16 -40t45 -11h280q26 0 45 4t31 14.5t18 29.5t6 49v46zM399 568q-36 0 -59.5 5.5t-37.5 18.5t-19.5 33.5t-5.5 50.5v56q0 30 5.5 50.5t19.5 33t37.5 18.5t59.5 6h99q36 0 59.5 -6t37.5 -18.5t19.5 -33t5.5 -50.5v-56
q0 -30 -5.5 -50.5t-19.5 -33.5t-37.5 -18.5t-59.5 -5.5h-99zM547 729q0 28 -11 38t-40 10h-95q-28 0 -40.5 -10t-12.5 -38v-51q0 -29 12 -38.5t41 -9.5h95q28 0 39.5 10t11.5 38v51z" />
    <glyph glyph-name="ae" unicode="&#xe6;" horiz-adv-x="1371" 
d="M625 245h-375q-26 0 -41 -11.5t-15 -43.5v-37q0 -29 16 -40t45 -11h270q26 0 45 4t31 14.5t18 29.5t6 49v46zM1173 382q0 27 -13.5 36t-47.5 9h-238q-28 0 -47 -2.5t-31 -11.5t-17 -26t-5 -46v-29h399v70zM774 216v-25q0 -25 4 -40t14.5 -23.5t28 -11.5t44.5 -3h169v-113
h-169q-54 0 -94 8t-68 26q-28 -18 -71 -26t-104 -8h-284q-59 0 -97 10t-60.5 28.5t-31.5 45t-9 59.5v51q0 34 8.5 60.5t29.5 45t57.5 28t92.5 9.5h391v12q0 52 -21 69.5t-70 17.5h-142v106h142q106 0 162 -35q54 35 175 35h253q58 0 96.5 -11t61 -30.5t31.5 -47t9 -59.5
v-178h-548z" />
    <glyph glyph-name="ccedilla" unicode="&#xe7;" horiz-adv-x="756" 
d="M54 0zM314 0q-75 0 -125 12.5t-80 40t-42.5 72t-12.5 109.5v73q0 65 12.5 110t42.5 72.5t80 40t125 12.5h392v-128h-387q-35 0 -57.5 -5t-35.5 -17.5t-18 -34.5t-5 -55v-64q0 -32 5 -53.5t18 -34.5t35.5 -18.5t57.5 -5.5h388v-126h-393zM309 -220l22 194h135l-54 -194
h-103z" />
    <glyph glyph-name="egrave" unicode="&#xe8;" horiz-adv-x="809" 
d="M54 0zM203 216v-25q0 -25 4 -40t14.5 -23.5t28 -11.5t43.5 -3h176v-113h-176q-129 0 -184 49t-55 157v125q0 59 11.5 99.5t40 65t75.5 35.5t119 11h262q58 0 96.5 -11t61 -30.5t31.5 -47t9 -59.5v-178h-557zM611 382q0 27 -13.5 36t-47.5 9h-248q-28 0 -47 -2.5
t-30.5 -11.5t-16.5 -26t-5 -46v-29h408v70zM371 613l-158 218h156l126 -218h-124z" />
    <glyph glyph-name="eacute" unicode="&#xe9;" horiz-adv-x="809" 
d="M54 0zM203 216v-25q0 -25 4 -40t14.5 -23.5t28 -11.5t43.5 -3h176v-113h-176q-129 0 -184 49t-55 157v125q0 59 11.5 99.5t40 65t75.5 35.5t119 11h262q58 0 96.5 -11t61 -30.5t31.5 -47t9 -59.5v-178h-557zM611 382q0 27 -13.5 36t-47.5 9h-248q-28 0 -47 -2.5
t-30.5 -11.5t-16.5 -26t-5 -46v-29h408v70zM313 613l125 218h157l-159 -218h-123z" />
    <glyph glyph-name="ecircumflex" unicode="&#xea;" horiz-adv-x="809" 
d="M54 0zM203 216v-25q0 -25 4 -40t14.5 -23.5t28 -11.5t43.5 -3h176v-113h-176q-129 0 -184 49t-55 157v125q0 59 11.5 99.5t40 65t75.5 35.5t119 11h262q58 0 96.5 -11t61 -30.5t31.5 -47t9 -59.5v-178h-557zM611 382q0 27 -13.5 36t-47.5 9h-248q-28 0 -47 -2.5
t-30.5 -11.5t-16.5 -26t-5 -46v-29h408v70zM515 574l-113 152l-111 -152h-144l169 225q14 18 34 29.5t55 11.5t54 -11.5t33 -29.5l170 -225h-147z" />
    <glyph glyph-name="edieresis" unicode="&#xeb;" horiz-adv-x="809" 
d="M54 0zM203 216v-25q0 -25 4 -40t14.5 -23.5t28 -11.5t43.5 -3h176v-113h-176q-129 0 -184 49t-55 157v125q0 59 11.5 99.5t40 65t75.5 35.5t119 11h262q58 0 96.5 -11t61 -30.5t31.5 -47t9 -59.5v-178h-557zM611 382q0 27 -13.5 36t-47.5 9h-248q-28 0 -47 -2.5
t-30.5 -11.5t-16.5 -26t-5 -46v-29h408v70zM253 573q-32 0 -42 13t-10 43v45q0 26 11.5 37t40.5 11h46q29 0 40 -11t11 -37v-53q0 -26 -11 -37t-40 -11h-46zM510 573q-29 0 -40 11t-11 37v53q0 26 11 37t40 11h46q28 0 39.5 -11t11.5 -37v-53q0 -26 -11.5 -37t-39.5 -11h-46
z" />
    <glyph glyph-name="igrave" unicode="&#xec;" horiz-adv-x="270" 
d="M0 0zM59 0v528h152v-528h-152zM103 613l-158 218h156l126 -218h-124z" />
    <glyph glyph-name="iacute" unicode="&#xed;" horiz-adv-x="270" 
d="M45 0zM59 0v528h152v-528h-152zM45 613l125 218h157l-159 -218h-123z" />
    <glyph glyph-name="icircumflex" unicode="&#xee;" horiz-adv-x="412" 
d="M0 0zM130 0v528h152v-528h-152zM318 574l-113 152l-111 -152h-144l169 225q14 18 34 29.5t55 11.5t54 -11.5t33 -29.5l170 -225h-147z" />
    <glyph glyph-name="idieresis" unicode="&#xef;" horiz-adv-x="314" 
d="M0 0zM81 0v528h152v-528h-152zM7 573q-32 0 -42 13t-10 43v45q0 26 11.5 37t40.5 11h46q29 0 40 -11t11 -37v-53q0 -26 -11 -37t-40 -11h-46zM264 573q-29 0 -40 11t-11 37v53q0 26 11 37t40 11h46q28 0 39.5 -11t11.5 -37v-53q0 -26 -11.5 -37t-39.5 -11h-46z" />
    <glyph glyph-name="eth" unicode="&#xf0;" horiz-adv-x="823" 
d="M315 0q-75 0 -125 12t-80 39t-42.5 71t-12.5 109v31q0 60 12.5 102t42.5 68.5t80 38.5t125 12h302v122h-382v112h427l65 74h149l-110 -129v-428q0 -65 -12.5 -109.5t-42.5 -72t-80 -40t-126 -12.5h-190zM617 366h-297q-34 0 -56.5 -5t-35.5 -18t-18.5 -34t-5.5 -54v-17
q0 -34 5.5 -56.5t18.5 -35.5t35.5 -18t56.5 -5h180q32 0 54 5.5t36 18.5t20.5 34.5t6.5 54.5v130z" />
    <glyph glyph-name="ntilde" unicode="&#xf1;" horiz-adv-x="814" 
d="M56 0zM609 0v302q0 34 -5.5 55.5t-19 34t-37 17.5t-59.5 5h-162q-35 0 -58.5 -5t-37.5 -17.5t-19.5 -34t-5.5 -55.5v-302h-149v307q0 65 12.5 110t42.5 72.5t80 40t125 12.5h181q76 0 126 -12.5t80 -40t42.5 -72.5t12.5 -110v-307h-149zM143 658v106h528v-106h-528z" />
    <glyph glyph-name="ograve" unicode="&#xf2;" horiz-adv-x="810" 
d="M54 0zM314 0q-75 0 -125 12.5t-80 40t-42.5 72t-12.5 109.5v73q0 65 12.5 110t42.5 72.5t80 40t125 12.5h181q76 0 126 -12.5t80 -40.5t42.5 -73t12.5 -110v-72q0 -65 -12.5 -109.5t-42.5 -72t-80 -40t-126 -12.5h-181zM607 302q0 34 -5.5 56t-20 34.5t-40.5 17t-66 4.5
h-141q-40 0 -65.5 -4.5t-40 -17t-20 -34.5t-5.5 -56v-64q0 -34 5.5 -55.5t20 -34t40 -17.5t65.5 -5h141q40 0 66 5t40.5 17.5t20 34t5.5 55.5v64zM372 613l-158 218h156l126 -218h-124z" />
    <glyph glyph-name="oacute" unicode="&#xf3;" horiz-adv-x="810" 
d="M54 0zM314 0q-75 0 -125 12.5t-80 40t-42.5 72t-12.5 109.5v73q0 65 12.5 110t42.5 72.5t80 40t125 12.5h181q76 0 126 -12.5t80 -40.5t42.5 -73t12.5 -110v-72q0 -65 -12.5 -109.5t-42.5 -72t-80 -40t-126 -12.5h-181zM607 302q0 34 -5.5 56t-20 34.5t-40.5 17t-66 4.5
h-141q-40 0 -65.5 -4.5t-40 -17t-20 -34.5t-5.5 -56v-64q0 -34 5.5 -55.5t20 -34t40 -17.5t65.5 -5h141q40 0 66 5t40.5 17.5t20 34t5.5 55.5v64zM314 613l125 218h157l-159 -218h-123z" />
    <glyph glyph-name="ocircumflex" unicode="&#xf4;" horiz-adv-x="810" 
d="M54 0zM314 0q-75 0 -125 12.5t-80 40t-42.5 72t-12.5 109.5v73q0 65 12.5 110t42.5 72.5t80 40t125 12.5h181q76 0 126 -12.5t80 -40.5t42.5 -73t12.5 -110v-72q0 -65 -12.5 -109.5t-42.5 -72t-80 -40t-126 -12.5h-181zM607 302q0 34 -5.5 56t-20 34.5t-40.5 17t-66 4.5
h-141q-40 0 -65.5 -4.5t-40 -17t-20 -34.5t-5.5 -56v-64q0 -34 5.5 -55.5t20 -34t40 -17.5t65.5 -5h141q40 0 66 5t40.5 17.5t20 34t5.5 55.5v64zM515 574l-113 152l-111 -152h-144l169 225q14 18 34 29.5t55 11.5t54 -11.5t33 -29.5l170 -225h-147z" />
    <glyph glyph-name="otilde" unicode="&#xf5;" horiz-adv-x="810" 
d="M54 0zM314 0q-75 0 -125 12.5t-80 40t-42.5 72t-12.5 109.5v73q0 65 12.5 110t42.5 72.5t80 40t125 12.5h181q76 0 126 -12.5t80 -40.5t42.5 -73t12.5 -110v-72q0 -65 -12.5 -109.5t-42.5 -72t-80 -40t-126 -12.5h-181zM607 302q0 34 -5.5 56t-20 34.5t-40.5 17t-66 4.5
h-141q-40 0 -65.5 -4.5t-40 -17t-20 -34.5t-5.5 -56v-64q0 -34 5.5 -55.5t20 -34t40 -17.5t65.5 -5h141q40 0 66 5t40.5 17.5t20 34t5.5 55.5v64zM141 658v106h528v-106h-528z" />
    <glyph glyph-name="odieresis" unicode="&#xf6;" horiz-adv-x="810" 
d="M54 0zM314 0q-75 0 -125 12.5t-80 40t-42.5 72t-12.5 109.5v73q0 65 12.5 110t42.5 72.5t80 40t125 12.5h181q76 0 126 -12.5t80 -40.5t42.5 -73t12.5 -110v-72q0 -65 -12.5 -109.5t-42.5 -72t-80 -40t-126 -12.5h-181zM607 302q0 34 -5.5 56t-20 34.5t-40.5 17t-66 4.5
h-141q-40 0 -65.5 -4.5t-40 -17t-20 -34.5t-5.5 -56v-64q0 -34 5.5 -55.5t20 -34t40 -17.5t65.5 -5h141q40 0 66 5t40.5 17.5t20 34t5.5 55.5v64zM254 573q-32 0 -42 13t-10 43v45q0 26 11.5 37t40.5 11h46q29 0 40 -11t11 -37v-53q0 -26 -11 -37t-40 -11h-46zM511 573
q-29 0 -40 11t-11 37v53q0 26 11 37t40 11h46q28 0 39.5 -11t11.5 -37v-53q0 -26 -11.5 -37t-39.5 -11h-46z" />
    <glyph glyph-name="divide" unicode="&#xf7;" horiz-adv-x="590" 
d="M59 82zM59 304v98h472v-98h-472zM270 452q-28 0 -39.5 10.5t-11.5 34.5v82q0 23 11.5 34t39.5 11h49q29 0 40.5 -11t11.5 -34v-82q0 -24 -11.5 -34.5t-40.5 -10.5h-49zM270 82q-28 0 -39.5 10.5t-11.5 34.5v82q0 23 11.5 34t39.5 11h49q29 0 40.5 -11t11.5 -34v-82
q0 -24 -11.5 -34.5t-40.5 -10.5h-49z" />
    <glyph glyph-name="oslash" unicode="&#xf8;" horiz-adv-x="810" 
d="M314 0h-20t-18 1l-70 -93h-153l91 120q-51 25 -70.5 75t-19.5 131v73q0 65 12.5 110t42.5 72.5t80 40t125 12.5h181q10 0 19.5 -0.5t18.5 -0.5l70 93h152l-91 -120q51 -25 71.5 -75t20.5 -133v-72q0 -65 -12.5 -109.5t-42.5 -72t-80 -40t-126 -12.5h-181zM607 302
q0 38 -6.5 60.5t-25.5 34.5l-205 -271h105q40 0 66 5t40.5 17.5t20 34t5.5 55.5v64zM203 238q0 -36 6.5 -58t23.5 -35l203 269h-102q-40 0 -65.5 -4.5t-40 -17t-20 -34.5t-5.5 -56v-64z" />
    <glyph glyph-name="ugrave" unicode="&#xf9;" horiz-adv-x="810" 
d="M56 0zM316 0q-75 0 -125 12.5t-80 40t-42.5 72t-12.5 109.5v308h150v-304q0 -35 6.5 -56.5t20.5 -33.5t37.5 -16.5t57.5 -4.5h156q36 0 60 4.5t37.5 16.5t19 33.5t5.5 56.5v304h148v-308q0 -65 -12.5 -109.5t-42.5 -72t-80.5 -40t-126.5 -12.5h-176zM372 613l-158 218
h156l126 -218h-124z" />
    <glyph glyph-name="uacute" unicode="&#xfa;" horiz-adv-x="810" 
d="M56 0zM316 0q-75 0 -125 12.5t-80 40t-42.5 72t-12.5 109.5v308h150v-304q0 -35 6.5 -56.5t20.5 -33.5t37.5 -16.5t57.5 -4.5h156q36 0 60 4.5t37.5 16.5t19 33.5t5.5 56.5v304h148v-308q0 -65 -12.5 -109.5t-42.5 -72t-80.5 -40t-126.5 -12.5h-176zM314 613l125 218h157
l-159 -218h-123z" />
    <glyph glyph-name="ucircumflex" unicode="&#xfb;" horiz-adv-x="810" 
d="M56 0zM316 0q-75 0 -125 12.5t-80 40t-42.5 72t-12.5 109.5v308h150v-304q0 -35 6.5 -56.5t20.5 -33.5t37.5 -16.5t57.5 -4.5h156q36 0 60 4.5t37.5 16.5t19 33.5t5.5 56.5v304h148v-308q0 -65 -12.5 -109.5t-42.5 -72t-80.5 -40t-126.5 -12.5h-176zM515 574l-113 152
l-111 -152h-144l169 225q14 18 34 29.5t55 11.5t54 -11.5t33 -29.5l170 -225h-147z" />
    <glyph glyph-name="udieresis" unicode="&#xfc;" horiz-adv-x="810" 
d="M56 0zM316 0q-75 0 -125 12.5t-80 40t-42.5 72t-12.5 109.5v308h150v-304q0 -35 6.5 -56.5t20.5 -33.5t37.5 -16.5t57.5 -4.5h156q36 0 60 4.5t37.5 16.5t19 33.5t5.5 56.5v304h148v-308q0 -65 -12.5 -109.5t-42.5 -72t-80.5 -40t-126.5 -12.5h-176zM254 573
q-32 0 -42 13t-10 43v45q0 26 11.5 37t40.5 11h46q29 0 40 -11t11 -37v-53q0 -26 -11 -37t-40 -11h-46zM511 573q-29 0 -40 11t-11 37v53q0 26 11 37t40 11h46q28 0 39.5 -11t11.5 -37v-53q0 -26 -11.5 -37t-39.5 -11h-46z" />
    <glyph glyph-name="yacute" unicode="&#xfd;" horiz-adv-x="828" 
d="M58 0zM205 260q0 -45 19.5 -62.5t65.5 -17.5h333v362h145v-532q0 -91 -45 -131.5t-147 -40.5h-217v122h204q31 0 45.5 12t14.5 46v44h-342q-61 0 -103.5 11.5t-69 35.5t-38.5 60t-12 85v288h147v-282zM323 613l125 218h157l-159 -218h-123z" />
    <glyph glyph-name="thorn" unicode="&#xfe;" horiz-adv-x="824" 
d="M211 0v-162h-152v879h152v-175h298q76 0 126 -12.5t80 -40t42.5 -72.5t12.5 -110v-73q0 -65 -12.5 -109.5t-42.5 -72t-80 -40t-126 -12.5h-298zM621 302q0 33 -5 54.5t-18.5 34.5t-36 18t-56.5 5h-294v-288h294q34 0 56.5 5t36 17.5t18.5 34t5 55.5v64z" />
    <glyph glyph-name="ydieresis" unicode="&#xff;" horiz-adv-x="828" 
d="M58 0zM205 260q0 -45 19.5 -62.5t65.5 -17.5h333v362h145v-532q0 -91 -45 -131.5t-147 -40.5h-217v122h204q31 0 45.5 12t14.5 46v44h-342q-61 0 -103.5 11.5t-69 35.5t-38.5 60t-12 85v288h147v-282zM263 573q-32 0 -42 13t-10 43v45q0 26 11.5 37t40.5 11h46
q29 0 40 -11t11 -37v-53q0 -26 -11 -37t-40 -11h-46zM520 573q-29 0 -40 11t-11 37v53q0 26 11 37t40 11h46q28 0 39.5 -11t11.5 -37v-53q0 -26 -11.5 -37t-39.5 -11h-46z" />
    <glyph glyph-name="Amacron" unicode="&#x100;" horiz-adv-x="1035" 
d="M8 0zM752 157h-472l-97 -157h-175l396 630q18 29 43 48t72 19q46 0 71 -19t43 -48l394 -630h-176zM351 274h330l-165 269zM253 798v106h528v-106h-528z" />
    <glyph glyph-name="amacron" unicode="&#x101;" horiz-adv-x="838" 
d="M46 0zM244 0q-59 0 -97 10t-60.5 28.5t-31.5 45t-9 59.5v51q0 34 8.5 60.5t29.5 45t57.5 28t92.5 9.5h401v12q0 52 -21 69.5t-71 17.5h-148v106h148q65 0 110.5 -12t74.5 -36.5t42.5 -62t13.5 -89.5v-132q0 -59 -11.5 -99t-40 -65t-76 -35.5t-119.5 -10.5h-293zM635 245
h-385q-26 0 -41 -11.5t-15 -43.5v-37q0 -29 16 -40t45 -11h280q26 0 45 4t31 14.5t18 29.5t6 49v46zM185 658v106h528v-106h-528z" />
    <glyph glyph-name="Abreve" unicode="&#x102;" horiz-adv-x="1035" 
d="M8 0zM752 157h-472l-97 -157h-175l396 630q18 29 43 48t72 19q46 0 71 -19t43 -48l394 -630h-176zM351 274h330l-165 269zM626 980h107v-51q0 -45 -8 -76t-27.5 -50t-51.5 -27.5t-80 -8.5h-96q-48 0 -80.5 8.5t-52 27.5t-27.5 50t-8 76v51h107v-47q0 -44 13.5 -59.5
t51.5 -15.5h88q38 0 51 17t13 58v47z" />
    <glyph glyph-name="abreve" unicode="&#x103;" horiz-adv-x="838" 
d="M46 0zM244 0q-59 0 -97 10t-60.5 28.5t-31.5 45t-9 59.5v51q0 34 8.5 60.5t29.5 45t57.5 28t92.5 9.5h401v12q0 52 -21 69.5t-71 17.5h-148v106h148q65 0 110.5 -12t74.5 -36.5t42.5 -62t13.5 -89.5v-132q0 -59 -11.5 -99t-40 -65t-76 -35.5t-119.5 -10.5h-293zM635 245
h-385q-26 0 -41 -11.5t-15 -43.5v-37q0 -29 16 -40t45 -11h280q26 0 45 4t31 14.5t18 29.5t6 49v46zM557 840h107v-51q0 -45 -8 -76t-27.5 -50t-51.5 -27.5t-80 -8.5h-96q-48 0 -80.5 8.5t-52 27.5t-27.5 50t-8 76v51h107v-47q0 -44 13.5 -59.5t51.5 -15.5h88q38 0 51 17
t13 58v47z" />
    <glyph glyph-name="Aogonek" unicode="&#x104;" horiz-adv-x="1035" 
d="M752 157h-472l-97 -157h-175l396 630q18 29 43 48t72 19q46 0 71 -19t43 -48l394 -630q-36 -7 -60 -14t-37.5 -15.5t-19 -18t-5.5 -22.5v-19q0 -14 6.5 -19.5t23.5 -5.5h132v-106h-196q-49 0 -70.5 23.5t-21.5 62.5v23q0 28 10 48t27 33t41 20t52 10h-58zM351 274h330
l-165 269z" />
    <glyph glyph-name="aogonek" unicode="&#x105;" horiz-adv-x="838" 
d="M402 -220q-49 0 -70.5 23.5t-21.5 62.5v23q0 28 10 48t27 33t41 20t52 10h-196q-59 0 -97 10t-60.5 28.5t-31.5 45t-9 59.5v51q0 34 8.5 60.5t29.5 45t57.5 28t92.5 9.5h401v12q0 52 -21 69.5t-71 17.5h-148v106h148q65 0 110.5 -12t74.5 -36.5t42.5 -62t13.5 -89.5v-132
q0 -57 -11 -94.5t-37.5 -61t-70 -35.5t-107.5 -19q-37 -4 -60.5 -10.5t-37 -15.5t-19 -20t-5.5 -24v-19q0 -14 6.5 -19.5t23.5 -5.5h132v-106h-196zM635 245h-385q-26 0 -41 -11.5t-15 -43.5v-37q0 -29 16 -40t45 -11h280q26 0 45 4t31 14.5t18 29.5t6 49v46z" />
    <glyph glyph-name="Cacute" unicode="&#x106;" horiz-adv-x="826" 
d="M54 0zM314 0q-75 0 -125 12.5t-80 40t-42.5 72t-12.5 109.5v214q0 64 12.5 109t42.5 72.5t80 40t125 12.5h473v-131h-466q-35 0 -57.5 -5.5t-35.5 -18.5t-18 -34.5t-5 -52.5v-200q0 -32 5 -53t18 -34t36 -18t58 -5h465v-130h-473zM322 753l125 218h157l-159 -218h-123z
" />
    <glyph glyph-name="cacute" unicode="&#x107;" horiz-adv-x="756" 
d="M54 0zM314 0q-75 0 -125 12.5t-80 40t-42.5 72t-12.5 109.5v73q0 65 12.5 110t42.5 72.5t80 40t125 12.5h392v-128h-387q-35 0 -57.5 -5t-35.5 -17.5t-18 -34.5t-5 -55v-64q0 -32 5 -53.5t18 -34.5t35.5 -18.5t57.5 -5.5h388v-126h-393zM287 613l125 218h157l-159 -218
h-123z" />
    <glyph glyph-name="Cdotaccent" unicode="&#x10a;" horiz-adv-x="826" 
d="M54 0zM314 0q-75 0 -125 12.5t-80 40t-42.5 72t-12.5 109.5v214q0 64 12.5 109t42.5 72.5t80 40t125 12.5h473v-131h-466q-35 0 -57.5 -5.5t-35.5 -18.5t-18 -34.5t-5 -52.5v-200q0 -32 5 -53t18 -34t36 -18t58 -5h465v-130h-473zM430 713q-32 0 -42 13t-10 43v45
q0 26 11.5 37t40.5 11h46q29 0 40 -11t11 -37v-53q0 -26 -11 -37t-40 -11h-46z" />
    <glyph glyph-name="cdotaccent" unicode="&#x10b;" horiz-adv-x="756" 
d="M54 0zM314 0q-75 0 -125 12.5t-80 40t-42.5 72t-12.5 109.5v73q0 65 12.5 110t42.5 72.5t80 40t125 12.5h392v-128h-387q-35 0 -57.5 -5t-35.5 -17.5t-18 -34.5t-5 -55v-64q0 -32 5 -53.5t18 -34.5t35.5 -18.5t57.5 -5.5h388v-126h-393zM385 573q-32 0 -42 13t-10 43v45
q0 26 11.5 37t40.5 11h46q29 0 40 -11t11 -37v-53q0 -26 -11 -37t-40 -11h-46z" />
    <glyph glyph-name="Ccaron" unicode="&#x10c;" horiz-adv-x="826" 
d="M54 0zM314 0q-75 0 -125 12.5t-80 40t-42.5 72t-12.5 109.5v214q0 64 12.5 109t42.5 72.5t80 40t125 12.5h473v-131h-466q-35 0 -57.5 -5.5t-35.5 -18.5t-18 -34.5t-5 -52.5v-200q0 -32 5 -53t18 -34t36 -18t58 -5h465v-130h-473zM333 980l112 -152l112 152h144
l-170 -226q-14 -18 -33.5 -29t-54.5 -11q-38 0 -57 13.5t-35 33.5l-166 219h148z" />
    <glyph glyph-name="ccaron" unicode="&#x10d;" horiz-adv-x="756" 
d="M54 0zM314 0q-75 0 -125 12.5t-80 40t-42.5 72t-12.5 109.5v73q0 65 12.5 110t42.5 72.5t80 40t125 12.5h392v-128h-387q-35 0 -57.5 -5t-35.5 -17.5t-18 -34.5t-5 -55v-64q0 -32 5 -53.5t18 -34.5t35.5 -18.5t57.5 -5.5h388v-126h-393zM298 840l112 -152l112 152h144
l-170 -226q-14 -18 -33.5 -29t-54.5 -11q-38 0 -57 13.5t-35 33.5l-166 219h148z" />
    <glyph glyph-name="Dcaron" unicode="&#x10e;" horiz-adv-x="915" 
d="M59 0zM59 0v682h540q76 0 126.5 -12.5t80.5 -40t42.5 -72.5t12.5 -109v-214q0 -65 -12.5 -109.5t-42.5 -72t-80.5 -40t-126.5 -12.5h-540zM709 441q0 31 -5.5 52.5t-19 34t-35.5 18t-56 5.5h-382v-421h382q31 0 53 5t36 17.5t20.5 33.5t6.5 53v202zM327 980l112 -152
l112 152h144l-170 -226q-14 -18 -33.5 -29t-54.5 -11q-38 0 -57 13.5t-35 33.5l-166 219h148z" />
    <glyph glyph-name="dcaron" unicode="&#x10f;" horiz-adv-x="982" 
d="M53 0zM315 0q-76 0 -126.5 12.5t-80.5 40t-42.5 72t-12.5 109.5v73q0 65 12.5 110t42.5 72.5t80.5 40t126.5 12.5h301v175h149v-483q0 -65 -12.5 -109.5t-42.5 -72t-80 -40t-126 -12.5h-189zM202 238q0 -36 5.5 -58t20.5 -34t40.5 -16t65.5 -4h166q35 0 57.5 4.5t35.5 17
t18 34t5 55.5v177h-283q-39 0 -64.5 -4t-40.5 -16t-20.5 -34t-5.5 -58v-64zM820 474l23 245h139l-57 -245h-105z" />
    <glyph glyph-name="Dcroat" unicode="&#x110;" horiz-adv-x="941" 
d="M4 0zM85 0v283h-81v116h81v283h540q76 0 126.5 -12.5t80.5 -40t42.5 -72.5t12.5 -109v-214q0 -65 -12.5 -109.5t-42.5 -72t-80.5 -40t-126.5 -12.5h-540zM735 444q0 32 -5.5 53.5t-19 34t-35.5 18t-56 5.5h-382v-159h281v-110h-281v-160h382q61 0 88.5 23t27.5 88v207z
" />
    <glyph glyph-name="dmacron" unicode="&#x111;" horiz-adv-x="821" 
d="M765 578v-344q0 -65 -12.5 -109.5t-42.5 -72t-80 -40t-126 -12.5h-189q-76 0 -126.5 12.5t-80.5 40t-42.5 72t-12.5 109.5v73q0 65 12.5 110t42.5 72.5t80.5 40t126.5 12.5h301v36h-329v106h329v33h149v-33h50v-106h-50zM202 238q0 -36 5.5 -58t20.5 -34t40.5 -16
t65.5 -4h166q35 0 57.5 4.5t35.5 17t18 34t5 55.5v177h-283q-39 0 -64.5 -4t-40.5 -16t-20.5 -34t-5.5 -58v-64z" />
    <glyph glyph-name="Emacron" unicode="&#x112;" horiz-adv-x="829" 
d="M54 0zM314 0q-75 0 -125 12.5t-80 40t-42.5 72t-12.5 109.5v214q0 64 12.5 109t42.5 72.5t80 40t125 12.5h168v-129h-168q-33 0 -54 -5.5t-33.5 -17.5t-17 -32t-4.5 -50v-46h581v-121h-581v-48q0 -31 4.5 -51t16.5 -32t33.5 -16.5t54.5 -4.5h476v-129h-476zM177 798v106
h528v-106h-528z" />
    <glyph glyph-name="emacron" unicode="&#x113;" horiz-adv-x="809" 
d="M54 0zM203 216v-25q0 -25 4 -40t14.5 -23.5t28 -11.5t43.5 -3h176v-113h-176q-129 0 -184 49t-55 157v125q0 59 11.5 99.5t40 65t75.5 35.5t119 11h262q58 0 96.5 -11t61 -30.5t31.5 -47t9 -59.5v-178h-557zM611 382q0 27 -13.5 36t-47.5 9h-248q-28 0 -47 -2.5
t-30.5 -11.5t-16.5 -26t-5 -46v-29h408v70zM140 658v106h528v-106h-528z" />
    <glyph glyph-name="Ebreve" unicode="&#x114;" horiz-adv-x="829" 
d="M54 0zM314 0q-75 0 -125 12.5t-80 40t-42.5 72t-12.5 109.5v214q0 64 12.5 109t42.5 72.5t80 40t125 12.5h168v-129h-168q-33 0 -54 -5.5t-33.5 -17.5t-17 -32t-4.5 -50v-46h581v-121h-581v-48q0 -31 4.5 -51t16.5 -32t33.5 -16.5t54.5 -4.5h476v-129h-476zM553 980h107
v-51q0 -45 -8 -76t-27.5 -50t-51.5 -27.5t-80 -8.5h-96q-48 0 -80.5 8.5t-52 27.5t-27.5 50t-8 76v51h107v-47q0 -44 13.5 -59.5t51.5 -15.5h88q38 0 51 17t13 58v47z" />
    <glyph glyph-name="ebreve" unicode="&#x115;" horiz-adv-x="809" 
d="M54 0zM203 216v-25q0 -25 4 -40t14.5 -23.5t28 -11.5t43.5 -3h176v-113h-176q-129 0 -184 49t-55 157v125q0 59 11.5 99.5t40 65t75.5 35.5t119 11h262q58 0 96.5 -11t61 -30.5t31.5 -47t9 -59.5v-178h-557zM611 382q0 27 -13.5 36t-47.5 9h-248q-28 0 -47 -2.5
t-30.5 -11.5t-16.5 -26t-5 -46v-29h408v70zM513 840h107v-51q0 -45 -8 -76t-27.5 -50t-51.5 -27.5t-80 -8.5h-96q-48 0 -80.5 8.5t-52 27.5t-27.5 50t-8 76v51h107v-47q0 -44 13.5 -59.5t51.5 -15.5h88q38 0 51 17t13 58v47z" />
    <glyph glyph-name="Edotaccent" unicode="&#x116;" horiz-adv-x="829" 
d="M54 0zM314 0q-75 0 -125 12.5t-80 40t-42.5 72t-12.5 109.5v214q0 64 12.5 109t42.5 72.5t80 40t125 12.5h168v-129h-168q-33 0 -54 -5.5t-33.5 -17.5t-17 -32t-4.5 -50v-46h581v-121h-581v-48q0 -31 4.5 -51t16.5 -32t33.5 -16.5t54.5 -4.5h476v-129h-476zM422 713
q-32 0 -42 13t-10 43v45q0 26 11.5 37t40.5 11h46q29 0 40 -11t11 -37v-53q0 -26 -11 -37t-40 -11h-46z" />
    <glyph glyph-name="edotaccent" unicode="&#x117;" horiz-adv-x="809" 
d="M54 0zM203 216v-25q0 -25 4 -40t14.5 -23.5t28 -11.5t43.5 -3h176v-113h-176q-129 0 -184 49t-55 157v125q0 59 11.5 99.5t40 65t75.5 35.5t119 11h262q58 0 96.5 -11t61 -30.5t31.5 -47t9 -59.5v-178h-557zM611 382q0 27 -13.5 36t-47.5 9h-248q-28 0 -47 -2.5
t-30.5 -11.5t-16.5 -26t-5 -46v-29h408v70zM382 573q-32 0 -42 13t-10 43v45q0 26 11.5 37t40.5 11h46q29 0 40 -11t11 -37v-53q0 -26 -11 -37t-40 -11h-46z" />
    <glyph glyph-name="Eogonek" unicode="&#x118;" horiz-adv-x="829" 
d="M634 -220q-49 0 -70.5 23.5t-21.5 62.5v23q0 28 10 48t27 33t41 20t52 10h-358q-75 0 -125 12.5t-80 40t-42.5 72t-12.5 109.5v214q0 64 12.5 109t42.5 72.5t80 40t125 12.5h168v-129h-168q-33 0 -54 -5.5t-33.5 -17.5t-17 -32t-4.5 -50v-46h581v-121h-581v-48
q0 -31 4.5 -51t16.5 -32t33.5 -16.5t54.5 -4.5h476v-129q-36 -7 -60 -14t-37.5 -15.5t-19 -18t-5.5 -22.5v-19q0 -14 6.5 -19.5t23.5 -5.5h132v-106h-196z" />
    <glyph glyph-name="eogonek" unicode="&#x119;" horiz-adv-x="809" 
d="M313 -220q-49 0 -70.5 23.5t-21.5 62.5v23q0 28 10 48t27 33t41 20t52 10h-58q-129 0 -184 49t-55 157v125q0 59 11.5 99.5t40 65t75.5 35.5t119 11h262q58 0 96.5 -11t61 -30.5t31.5 -47t9 -59.5v-178h-557v-25q0 -25 4 -40t14.5 -23.5t28 -11.5t43.5 -3h176v-113
q-36 -7 -60 -14t-37.5 -15.5t-19 -18t-5.5 -22.5v-19q0 -14 6.5 -19.5t23.5 -5.5h132v-106h-196zM611 382q0 27 -13.5 36t-47.5 9h-248q-28 0 -47 -2.5t-30.5 -11.5t-16.5 -26t-5 -46v-29h408v70z" />
    <glyph glyph-name="Ecaron" unicode="&#x11a;" horiz-adv-x="829" 
d="M54 0zM314 0q-75 0 -125 12.5t-80 40t-42.5 72t-12.5 109.5v214q0 64 12.5 109t42.5 72.5t80 40t125 12.5h168v-129h-168q-33 0 -54 -5.5t-33.5 -17.5t-17 -32t-4.5 -50v-46h581v-121h-581v-48q0 -31 4.5 -51t16.5 -32t33.5 -16.5t54.5 -4.5h476v-129h-476zM334 980
l112 -152l112 152h144l-170 -226q-14 -18 -33.5 -29t-54.5 -11q-38 0 -57 13.5t-35 33.5l-166 219h148z" />
    <glyph glyph-name="ecaron" unicode="&#x11b;" horiz-adv-x="809" 
d="M54 0zM203 216v-25q0 -25 4 -40t14.5 -23.5t28 -11.5t43.5 -3h176v-113h-176q-129 0 -184 49t-55 157v125q0 59 11.5 99.5t40 65t75.5 35.5t119 11h262q58 0 96.5 -11t61 -30.5t31.5 -47t9 -59.5v-178h-557zM611 382q0 27 -13.5 36t-47.5 9h-248q-28 0 -47 -2.5
t-30.5 -11.5t-16.5 -26t-5 -46v-29h408v70zM294 840l112 -152l112 152h144l-170 -226q-14 -18 -33.5 -29t-54.5 -11q-38 0 -57 13.5t-35 33.5l-166 219h148z" />
    <glyph glyph-name="Gbreve" unicode="&#x11e;" horiz-adv-x="892" 
d="M54 0zM314 0q-75 0 -125 12.5t-80 40t-42.5 72t-12.5 109.5v214q0 64 12.5 109t42.5 72.5t80 40t125 12.5h178v-131h-171q-34 0 -56.5 -5.5t-35.5 -18.5t-18.5 -34t-5.5 -52v-201q0 -34 5.5 -55.5t19 -33.5t36 -16.5t55.5 -4.5h257q32 0 54 4.5t35.5 17t19.5 35.5t6 59
v158h152v-170q0 -65 -12.5 -109.5t-42.5 -72t-80.5 -40t-126.5 -12.5h-269zM554 980h107v-51q0 -45 -8 -76t-27.5 -50t-51.5 -27.5t-80 -8.5h-96q-48 0 -80.5 8.5t-52 27.5t-27.5 50t-8 76v51h107v-47q0 -44 13.5 -59.5t51.5 -15.5h88q38 0 51 17t13 58v47z" />
    <glyph glyph-name="gbreve" unicode="&#x11f;" horiz-adv-x="816" 
d="M51 0zM350 -162v122h207q33 0 47 13t14 45v44h-340q-62 0 -105.5 10t-70.5 31.5t-39 56t-12 83.5v83q0 62 10.5 103.5t37 66.5t72 35.5t114.5 10.5h242q67 0 112.5 -12t73 -38t39 -67t11.5 -99v-316q0 -91 -45 -131.5t-147 -40.5h-221zM618 323q0 54 -21 73t-76 19h-234
q-52 0 -71 -19.5t-19 -73.5v-71q0 -22 4.5 -36t15 -22.5t27.5 -11.5t43 -3h331v145zM516 840h107v-51q0 -45 -8 -76t-27.5 -50t-51.5 -27.5t-80 -8.5h-96q-48 0 -80.5 8.5t-52 27.5t-27.5 50t-8 76v51h107v-47q0 -44 13.5 -59.5t51.5 -15.5h88q38 0 51 17t13 58v47z" />
    <glyph glyph-name="Gdotaccent" unicode="&#x120;" horiz-adv-x="892" 
d="M54 0zM314 0q-75 0 -125 12.5t-80 40t-42.5 72t-12.5 109.5v214q0 64 12.5 109t42.5 72.5t80 40t125 12.5h178v-131h-171q-34 0 -56.5 -5.5t-35.5 -18.5t-18.5 -34t-5.5 -52v-201q0 -34 5.5 -55.5t19 -33.5t36 -16.5t55.5 -4.5h257q32 0 54 4.5t35.5 17t19.5 35.5t6 59
v158h152v-170q0 -65 -12.5 -109.5t-42.5 -72t-80.5 -40t-126.5 -12.5h-269zM423 713q-32 0 -42 13t-10 43v45q0 26 11.5 37t40.5 11h46q29 0 40 -11t11 -37v-53q0 -26 -11 -37t-40 -11h-46z" />
    <glyph glyph-name="gdotaccent" unicode="&#x121;" horiz-adv-x="816" 
d="M51 0zM350 -162v122h207q33 0 47 13t14 45v44h-340q-62 0 -105.5 10t-70.5 31.5t-39 56t-12 83.5v83q0 62 10.5 103.5t37 66.5t72 35.5t114.5 10.5h242q67 0 112.5 -12t73 -38t39 -67t11.5 -99v-316q0 -91 -45 -131.5t-147 -40.5h-221zM618 323q0 54 -21 73t-76 19h-234
q-52 0 -71 -19.5t-19 -73.5v-71q0 -22 4.5 -36t15 -22.5t27.5 -11.5t43 -3h331v145zM385 573q-32 0 -42 13t-10 43v45q0 26 11.5 37t40.5 11h46q29 0 40 -11t11 -37v-53q0 -26 -11 -37t-40 -11h-46z" />
    <glyph glyph-name="Gcommaaccent" unicode="&#x122;" horiz-adv-x="892" 
d="M54 0zM314 0q-75 0 -125 12.5t-80 40t-42.5 72t-12.5 109.5v214q0 64 12.5 109t42.5 72.5t80 40t125 12.5h178v-131h-171q-34 0 -56.5 -5.5t-35.5 -18.5t-18.5 -34t-5.5 -52v-201q0 -34 5.5 -55.5t19 -33.5t36 -16.5t55.5 -4.5h257q32 0 54 4.5t35.5 17t19.5 35.5t6 59
v158h152v-170q0 -65 -12.5 -109.5t-42.5 -72t-80.5 -40t-126.5 -12.5h-269zM367 -220l22 194h135l-54 -194h-103z" />
    <glyph glyph-name="gcommaaccent" unicode="&#x123;" horiz-adv-x="816" 
d="M51 0zM350 -162v122h207q33 0 47 13t14 45v44h-340q-62 0 -105.5 10t-70.5 31.5t-39 56t-12 83.5v83q0 62 10.5 103.5t37 66.5t72 35.5t114.5 10.5h242q67 0 112.5 -12t73 -38t39 -67t11.5 -99v-316q0 -91 -45 -131.5t-147 -40.5h-221zM618 323q0 54 -21 73t-76 19h-234
q-52 0 -71 -19.5t-19 -73.5v-71q0 -22 4.5 -36t15 -22.5t27.5 -11.5t43 -3h331v145zM496.004 793.986l-21.999 -193.988h-134.991l53.9961 193.988h102.994z" />
    <glyph glyph-name="Hbar" unicode="&#x126;" horiz-adv-x="921" 
d="M711 0v272h-500v-272h-152v682h152v-88h500v88h151v-682h-151zM711 404v84h-500v-84h500z" />
    <glyph glyph-name="hbar" unicode="&#x127;" horiz-adv-x="827" 
d="M208 578v-36h301q76 0 126.5 -12.5t80.5 -40t42.5 -72.5t12.5 -110v-307h-149v302q0 34 -5.5 56t-18.5 34.5t-36 17t-57 4.5h-297v-414h-149v578h-42v106h42v33h149v-33h337v-106h-337z" />
    <glyph glyph-name="uni012A" unicode="&#x12a;" horiz-adv-x="273" 
d="M0 0zM60 0v682h152v-682h-152zM-126 798v106h528v-106h-528z" />
    <glyph glyph-name="imacron" unicode="&#x12b;" horiz-adv-x="422" 
d="M0 0zM135 0v528h152v-528h-152zM-52 658v106h528v-106h-528z" />
    <glyph glyph-name="Ibreve" unicode="&#x12c;" horiz-adv-x="273" 
d="M0 0zM60 0v682h152v-682h-152zM246 980h107v-51q0 -45 -8 -76t-27.5 -50t-51.5 -27.5t-80 -8.5h-96q-48 0 -80.5 8.5t-52 27.5t-27.5 50t-8 76v51h107v-47q0 -44 13.5 -59.5t51.5 -15.5h88q38 0 51 17t13 58v47z" />
    <glyph glyph-name="ibreve" unicode="&#x12d;" horiz-adv-x="293" 
d="M0 0zM71 0v528h152v-528h-152zM257 840h107v-51q0 -45 -8 -76t-27.5 -50t-51.5 -27.5t-80 -8.5h-96q-48 0 -80.5 8.5t-52 27.5t-27.5 50t-8 76v51h107v-47q0 -44 13.5 -59.5t51.5 -15.5h88q38 0 51 17t13 58v47z" />
    <glyph glyph-name="Iogonek" unicode="&#x12e;" horiz-adv-x="273" 
d="M56 -220q-49 0 -70.5 23.5t-21.5 62.5v23q0 28 10 48t27 33t41 20t52 10h-34v682h152v-682q-36 -7 -60 -14t-37.5 -15.5t-19 -18t-5.5 -22.5v-19q0 -14 6.5 -19.5t23.5 -5.5h132v-106h-196z" />
    <glyph glyph-name="iogonek" unicode="&#x12f;" horiz-adv-x="270" 
d="M55 -220q-49 0 -70.5 23.5t-21.5 62.5v23q0 28 10 48t27 33t41 20t52 10h-34v528h152v-528q-36 -7 -60 -14t-37.5 -15.5t-19 -18t-5.5 -22.5v-19q0 -14 6.5 -19.5t23.5 -5.5h132v-106h-196zM110 573q-28 0 -39.5 11t-11.5 35v58q0 24 11.5 34.5t39.5 10.5h49
q29 0 40.5 -10.5t11.5 -34.5v-58q0 -24 -11.5 -35t-40.5 -11h-49z" />
    <glyph glyph-name="Idotaccent" unicode="&#x130;" horiz-adv-x="273" 
d="M60 0zM60 0v682h152v-682h-152zM114 713q-32 0 -42 13t-10 43v45q0 26 11.5 37t40.5 11h46q29 0 40 -11t11 -37v-53q0 -26 -11 -37t-40 -11h-46z" />
    <glyph glyph-name="dotlessi" unicode="&#x131;" horiz-adv-x="270" 
d="M59 0v528h152v-528h-152z" />
    <glyph glyph-name="IJ" unicode="&#x132;" horiz-adv-x="785" 
d="M60 0zM60 0v682h152v-682h-152zM290 0v130h165q37 0 60.5 6t37 19.5t19 34.5t5.5 51v441h152v-448q0 -65 -12.5 -109.5t-42.5 -72t-80.5 -40t-126.5 -12.5h-177z" />
    <glyph glyph-name="ij" unicode="&#x133;" horiz-adv-x="555" 
d="M59 0zM59 0v528h152v-528h-152zM110 573q-28 0 -39.5 11t-11.5 35v58q0 24 11.5 34.5t39.5 10.5h49q29 0 40.5 -10.5t11.5 -34.5v-58q0 -24 -11.5 -35t-40.5 -11h-49zM214 -162v127h33q29 0 48 3.5t30.5 13.5t16.5 26t5 42v478h149v-483q0 -109 -56 -158t-186 -49h-40z
M396 573q-28 0 -40 11t-12 35v58q0 24 12 34.5t40 10.5h49q28 0 39.5 -10.5t11.5 -34.5v-58q0 -24 -11.5 -35t-39.5 -11h-49z" />
    <glyph glyph-name="Kcommaaccent" unicode="&#x136;" horiz-adv-x="802" 
d="M59 0zM590 0l-380 333v-333h-151v682h151v-326l372 326h205l-390 -331l401 -351h-208zM322 -220l22 194h135l-54 -194h-103z" />
    <glyph glyph-name="kcommaaccent" unicode="&#x137;" horiz-adv-x="731" 
d="M59 0zM524 0l-315 256v-256h-150v717h150v-426l313 251h194l-337 -261l346 -281h-201zM287 -220l22 194h135l-54 -194h-103z" />
    <glyph glyph-name="Lacute" unicode="&#x139;" horiz-adv-x="754" 
d="M47 0zM316 0q-75 0 -125 12.5t-80 40t-42.5 72t-12.5 109.5v448h151v-442q0 -30 5.5 -50.5t19.5 -34t37.5 -19.5t59.5 -6h405v-130h-418zM47 753l125 218h157l-159 -218h-123z" />
    <glyph glyph-name="lacute" unicode="&#x13a;" horiz-adv-x="270" 
d="M45 0zM59 0v717h152v-717h-152zM45 753l125 218h157l-159 -218h-123z" />
    <glyph glyph-name="Lcommaaccent" unicode="&#x13b;" horiz-adv-x="754" 
d="M56 0zM316 0q-75 0 -125 12.5t-80 40t-42.5 72t-12.5 109.5v448h151v-442q0 -30 5.5 -50.5t19.5 -34t37.5 -19.5t59.5 -6h405v-130h-418zM328 -220l22 194h135l-54 -194h-103z" />
    <glyph glyph-name="lcommaaccent" unicode="&#x13c;" horiz-adv-x="270" 
d="M48 0zM59 0v717h152v-717h-152zM48 -220l22 194h135l-54 -194h-103z" />
    <glyph glyph-name="Lcaron" unicode="&#x13d;" horiz-adv-x="754" 
d="M56 0zM316 0q-75 0 -125 12.5t-80 40t-42.5 72t-12.5 109.5v448h151v-442q0 -30 5.5 -50.5t19.5 -34t37.5 -19.5t59.5 -6h405v-130h-418zM391 474l23 245h139l-57 -245h-105z" />
    <glyph glyph-name="lcaron" unicode="&#x13e;" horiz-adv-x="427" 
d="M59 0zM59 0v717h152v-717h-152zM265 474l23 245h139l-57 -245h-105z" />
    <glyph glyph-name="Ldot" unicode="&#x13f;" horiz-adv-x="754" 
d="M56 0zM316 0q-75 0 -125 12.5t-80 40t-42.5 72t-12.5 109.5v448h151v-442q0 -30 5.5 -50.5t19.5 -34t37.5 -19.5t59.5 -6h405v-130h-418zM441 314q-32 0 -42 13t-10 43v45q0 26 11.5 37t40.5 11h46q29 0 40 -11t11 -37v-53q0 -26 -11 -37t-40 -11h-46z" />
    <glyph glyph-name="ldot" unicode="&#x140;" horiz-adv-x="416" 
d="M59 0zM59 0v717h152v-717h-152zM319 294q-32 0 -42 13t-10 43v45q0 26 11.5 37t40.5 11h46q29 0 40 -11t11 -37v-53q0 -26 -11 -37t-40 -11h-46z" />
    <glyph glyph-name="Lslash" unicode="&#x141;" horiz-adv-x="784" 
d="M346 0q-76 0 -126.5 12.5t-80.5 40t-42.5 72t-12.5 109.5v172l-80 -14v119l80 14v157h152v-132l311 52v-119l-311 -52v-192q0 -57 27 -83t89 -26h410v-130h-416z" />
    <glyph glyph-name="lslash" unicode="&#x142;" horiz-adv-x="323" 
d="M86 0v406l-82 -12v119l82 12v192h152v-171l81 12v-119l-81 -12v-427h-152z" />
    <glyph glyph-name="Nacute" unicode="&#x143;" horiz-adv-x="912" 
d="M58 0zM779 -15q-24 0 -44.5 7.5t-38.5 24.5l-497 468v-485h-141v634q0 32 22.5 47.5t58.5 15.5q26 0 43 -7t28 -18l501 -483v493h144v-634q0 -34 -21 -48.5t-55 -14.5zM365 753l125 218h157l-159 -218h-123z" />
    <glyph glyph-name="nacute" unicode="&#x144;" horiz-adv-x="814" 
d="M56 0zM609 0v302q0 34 -5.5 55.5t-19 34t-37 17.5t-59.5 5h-162q-35 0 -58.5 -5t-37.5 -17.5t-19.5 -34t-5.5 -55.5v-302h-149v307q0 65 12.5 110t42.5 72.5t80 40t125 12.5h181q76 0 126 -12.5t80 -40t42.5 -72.5t12.5 -110v-307h-149zM316 613l125 218h157l-159 -218
h-123z" />
    <glyph glyph-name="Ncommaaccent" unicode="&#x145;" horiz-adv-x="912" 
d="M58 0zM779 -15q-24 0 -44.5 7.5t-38.5 24.5l-497 468v-485h-141v634q0 32 22.5 47.5t58.5 15.5q26 0 43 -7t28 -18l501 -483v493h144v-634q0 -34 -21 -48.5t-55 -14.5zM377 -220l22 194h135l-54 -194h-103z" />
    <glyph glyph-name="ncommaaccent" unicode="&#x146;" horiz-adv-x="814" 
d="M56 0zM609 0v302q0 34 -5.5 55.5t-19 34t-37 17.5t-59.5 5h-162q-35 0 -58.5 -5t-37.5 -17.5t-19.5 -34t-5.5 -55.5v-302h-149v307q0 65 12.5 110t42.5 72.5t80 40t125 12.5h181q76 0 126 -12.5t80 -40t42.5 -72.5t12.5 -110v-307h-149zM328 -220l22 194h135l-54 -194
h-103z" />
    <glyph glyph-name="Ncaron" unicode="&#x147;" horiz-adv-x="912" 
d="M58 0zM779 -15q-24 0 -44.5 7.5t-38.5 24.5l-497 468v-485h-141v634q0 32 22.5 47.5t58.5 15.5q26 0 43 -7t28 -18l501 -483v493h144v-634q0 -34 -21 -48.5t-55 -14.5zM346 980l112 -152l112 152h144l-170 -226q-14 -18 -33.5 -29t-54.5 -11q-38 0 -57 13.5t-35 33.5
l-166 219h148z" />
    <glyph glyph-name="ncaron" unicode="&#x148;" horiz-adv-x="814" 
d="M56 0zM609 0v302q0 34 -5.5 55.5t-19 34t-37 17.5t-59.5 5h-162q-35 0 -58.5 -5t-37.5 -17.5t-19.5 -34t-5.5 -55.5v-302h-149v307q0 65 12.5 110t42.5 72.5t80 40t125 12.5h181q76 0 126 -12.5t80 -40t42.5 -72.5t12.5 -110v-307h-149zM297 840l112 -152l112 152h144
l-170 -226q-14 -18 -33.5 -29t-54.5 -11q-38 0 -57 13.5t-35 33.5l-166 219h148z" />
    <glyph glyph-name="Eng" unicode="&#x14a;" horiz-adv-x="912" 
d="M573 -220v127h33q58 0 81.5 17t23.5 68v12q-1 1 -4.5 4t-18.5 17t-46.5 43.5t-88 82.5t-143 134.5t-211.5 199.5v-485h-141v634q0 32 22.5 47.5t58.5 15.5q26 0 43 -7t28 -18l501 -483v493h144v-695q0 -109 -56 -158t-186 -49h-40z" />
    <glyph glyph-name="eng" unicode="&#x14b;" horiz-adv-x="814" 
d="M476 -220v127h33q29 0 48 3.5t30.5 13.5t16.5 26t5 42v310q0 34 -5.5 55.5t-19 34t-37 17.5t-59.5 5h-162q-35 0 -58.5 -5t-37.5 -17.5t-19.5 -34t-5.5 -55.5v-302h-149v307q0 65 12.5 110t42.5 72.5t80 40t125 12.5h181q76 0 126 -12.5t80 -40t42.5 -72.5t12.5 -110
v-320q0 -109 -56 -158t-186 -49h-40z" />
    <glyph glyph-name="Omacron" unicode="&#x14c;" 
d="M54 0zM314 0q-75 0 -125 12.5t-80 40t-42.5 72t-12.5 109.5v214q0 64 12.5 109t42.5 72.5t80 40t125 12.5h259q76 0 126 -12.5t80 -40t42.5 -72.5t12.5 -109v-214q0 -65 -12.5 -109.5t-42.5 -72t-80 -40t-126 -12.5h-259zM682 441q0 32 -5.5 53t-18.5 34t-35.5 18
t-55.5 5h-246q-36 0 -58.5 -5t-35.5 -18t-17.5 -34t-4.5 -53v-201q0 -33 4.5 -54.5t17.5 -34t35.5 -17t58.5 -4.5h246q33 0 55.5 4.5t35.5 17t18.5 34t5.5 54.5v201zM180 798v106h528v-106h-528z" />
    <glyph glyph-name="omacron" unicode="&#x14d;" horiz-adv-x="810" 
d="M54 0zM314 0q-75 0 -125 12.5t-80 40t-42.5 72t-12.5 109.5v73q0 65 12.5 110t42.5 72.5t80 40t125 12.5h181q76 0 126 -12.5t80 -40.5t42.5 -73t12.5 -110v-72q0 -65 -12.5 -109.5t-42.5 -72t-80 -40t-126 -12.5h-181zM607 302q0 34 -5.5 56t-20 34.5t-40.5 17t-66 4.5
h-141q-40 0 -65.5 -4.5t-40 -17t-20 -34.5t-5.5 -56v-64q0 -34 5.5 -55.5t20 -34t40 -17.5t65.5 -5h141q40 0 66 5t40.5 17.5t20 34t5.5 55.5v64zM141 658v106h528v-106h-528z" />
    <glyph glyph-name="Obreve" unicode="&#x14e;" 
d="M54 0zM314 0q-75 0 -125 12.5t-80 40t-42.5 72t-12.5 109.5v214q0 64 12.5 109t42.5 72.5t80 40t125 12.5h259q76 0 126 -12.5t80 -40t42.5 -72.5t12.5 -109v-214q0 -65 -12.5 -109.5t-42.5 -72t-80 -40t-126 -12.5h-259zM682 441q0 32 -5.5 53t-18.5 34t-35.5 18
t-55.5 5h-246q-36 0 -58.5 -5t-35.5 -18t-17.5 -34t-4.5 -53v-201q0 -33 4.5 -54.5t17.5 -34t35.5 -17t58.5 -4.5h246q33 0 55.5 4.5t35.5 17t18.5 34t5.5 54.5v201zM552 980h107v-51q0 -45 -8 -76t-27.5 -50t-51.5 -27.5t-80 -8.5h-96q-48 0 -80.5 8.5t-52 27.5t-27.5 50
t-8 76v51h107v-47q0 -44 13.5 -59.5t51.5 -15.5h88q38 0 51 17t13 58v47z" />
    <glyph glyph-name="obreve" unicode="&#x14f;" horiz-adv-x="810" 
d="M54 0zM314 0q-75 0 -125 12.5t-80 40t-42.5 72t-12.5 109.5v73q0 65 12.5 110t42.5 72.5t80 40t125 12.5h181q76 0 126 -12.5t80 -40.5t42.5 -73t12.5 -110v-72q0 -65 -12.5 -109.5t-42.5 -72t-80 -40t-126 -12.5h-181zM607 302q0 34 -5.5 56t-20 34.5t-40.5 17t-66 4.5
h-141q-40 0 -65.5 -4.5t-40 -17t-20 -34.5t-5.5 -56v-64q0 -34 5.5 -55.5t20 -34t40 -17.5t65.5 -5h141q40 0 66 5t40.5 17.5t20 34t5.5 55.5v64zM513 840h107v-51q0 -45 -8 -76t-27.5 -50t-51.5 -27.5t-80 -8.5h-96q-48 0 -80.5 8.5t-52 27.5t-27.5 50t-8 76v51h107v-47
q0 -44 13.5 -59.5t51.5 -15.5h88q38 0 51 17t13 58v47z" />
    <glyph glyph-name="Ohungarumlaut" unicode="&#x150;" 
d="M54 0zM314 0q-75 0 -125 12.5t-80 40t-42.5 72t-12.5 109.5v214q0 64 12.5 109t42.5 72.5t80 40t125 12.5h259q76 0 126 -12.5t80 -40t42.5 -72.5t12.5 -109v-214q0 -65 -12.5 -109.5t-42.5 -72t-80 -40t-126 -12.5h-259zM682 441q0 32 -5.5 53t-18.5 34t-35.5 18
t-55.5 5h-246q-36 0 -58.5 -5t-35.5 -18t-17.5 -34t-4.5 -53v-201q0 -33 4.5 -54.5t17.5 -34t35.5 -17t58.5 -4.5h246q33 0 55.5 4.5t35.5 17t18.5 34t5.5 54.5v201zM490 753l125 218h157l-159 -218h-123zM216 753l125 218h157l-159 -218h-123z" />
    <glyph glyph-name="ohungarumlaut" unicode="&#x151;" horiz-adv-x="810" 
d="M54 0zM314 0q-75 0 -125 12.5t-80 40t-42.5 72t-12.5 109.5v73q0 65 12.5 110t42.5 72.5t80 40t125 12.5h181q76 0 126 -12.5t80 -40.5t42.5 -73t12.5 -110v-72q0 -65 -12.5 -109.5t-42.5 -72t-80 -40t-126 -12.5h-181zM607 302q0 34 -5.5 56t-20 34.5t-40.5 17t-66 4.5
h-141q-40 0 -65.5 -4.5t-40 -17t-20 -34.5t-5.5 -56v-64q0 -34 5.5 -55.5t20 -34t40 -17.5t65.5 -5h141q40 0 66 5t40.5 17.5t20 34t5.5 55.5v64zM451 613l125 218h157l-159 -218h-123zM177 613l125 218h157l-159 -218h-123z" />
    <glyph glyph-name="OE" unicode="&#x152;" horiz-adv-x="1438" 
d="M673 441q0 32 -5.5 53t-19 34t-35.5 18t-56 5h-236q-36 0 -58.5 -5t-35.5 -18t-17.5 -34t-4.5 -53v-201q0 -33 4.5 -54.5t17.5 -34t35.5 -17t58.5 -4.5h236q34 0 56 4.5t35.5 17t19 34t5.5 54.5v201zM934 0q-65 0 -110.5 9t-74.5 30q-30 -21 -75 -30t-111 -9h-249
q-75 0 -125 12.5t-80 40t-42.5 72t-12.5 109.5v214q0 64 12.5 109t42.5 72.5t80 40t125 12.5h249q66 0 111 -9.5t75 -30.5q29 21 74.5 30.5t110.5 9.5h161v-129h-161q-32 0 -53 -5t-33.5 -16t-17.5 -30t-5 -46v-54h570v-121h-570v-56q0 -29 5 -47.5t17.5 -29t33.5 -15
t53 -4.5h465v-129h-465z" />
    <glyph glyph-name="oe" unicode="&#x153;" horiz-adv-x="1343" 
d="M746 216v-25q0 -25 4 -40t14.5 -23.5t28 -11.5t44.5 -3h169v-113h-169q-114 0 -167 38q-30 -20 -75 -29t-110 -9h-171q-75 0 -125 12.5t-80 40t-42.5 72t-12.5 109.5v73q0 65 12.5 110t42.5 72.5t80 40t125 12.5h171q63 0 107 -8.5t74 -28.5q28 20 71.5 28.5t106.5 8.5
h252q58 0 96.5 -11t61 -30.5t31.5 -47t9 -59.5v-178h-548zM598 302q0 34 -5.5 56t-20.5 34.5t-40.5 17t-65.5 4.5h-132q-40 0 -65.5 -4.5t-40 -17t-20 -34.5t-5.5 -56v-64q0 -34 5.5 -55.5t20 -34t40 -17.5t65.5 -5h132q40 0 65.5 5t40.5 17.5t20.5 34t5.5 55.5v64z
M1146 382q0 27 -13.5 36t-48.5 9h-238q-28 0 -47 -2.5t-31 -11.5t-17 -26t-5 -46v-29h400v70z" />
    <glyph glyph-name="Racute" unicode="&#x154;" horiz-adv-x="908" 
d="M58 0zM608 0l-399 248v-248h-151v682h534q72 0 123 -9t83.5 -32t47.5 -63t15 -101v-47q0 -59 -16 -97.5t-49.5 -61t-84.5 -31.5t-121 -9h-120l400 -231h-262zM709 469q0 27 -6 44t-20 26t-39 12t-62 3h-373v-208h373q37 0 61.5 3t39 12t20.5 26t6 45v37zM363 753l125 218
h157l-159 -218h-123z" />
    <glyph glyph-name="racute" unicode="&#x155;" horiz-adv-x="440" 
d="M59 0zM59 0v314q0 61 14 104t44.5 70.5t78.5 40.5t117 13h97v-121h-93q-31 0 -52 -5t-33.5 -17t-18 -33t-5.5 -53v-313h-149zM169 613l125 218h157l-159 -218h-123z" />
    <glyph glyph-name="Rcommaaccent" unicode="&#x156;" horiz-adv-x="908" 
d="M58 0zM608 0l-399 248v-248h-151v682h534q72 0 123 -9t83.5 -32t47.5 -63t15 -101v-47q0 -59 -16 -97.5t-49.5 -61t-84.5 -31.5t-121 -9h-120l400 -231h-262zM709 469q0 27 -6 44t-20 26t-39 12t-62 3h-373v-208h373q37 0 61.5 3t39 12t20.5 26t6 45v37zM375 -220l22 194
h135l-54 -194h-103z" />
    <glyph glyph-name="rcommaaccent" unicode="&#x157;" horiz-adv-x="440" 
d="M42 0zM59 0v314q0 61 14 104t44.5 70.5t78.5 40.5t117 13h97v-121h-93q-31 0 -52 -5t-33.5 -17t-18 -33t-5.5 -53v-313h-149zM42 -220l22 194h135l-54 -194h-103z" />
    <glyph glyph-name="Rcaron" unicode="&#x158;" horiz-adv-x="908" 
d="M58 0zM608 0l-399 248v-248h-151v682h534q72 0 123 -9t83.5 -32t47.5 -63t15 -101v-47q0 -59 -16 -97.5t-49.5 -61t-84.5 -31.5t-121 -9h-120l400 -231h-262zM709 469q0 27 -6 44t-20 26t-39 12t-62 3h-373v-208h373q37 0 61.5 3t39 12t20.5 26t6 45v37zM324 980
l112 -152l112 152h144l-170 -226q-14 -18 -33.5 -29t-54.5 -11q-38 0 -57 13.5t-35 33.5l-166 219h148z" />
    <glyph glyph-name="rcaron" unicode="&#x159;" horiz-adv-x="440" 
d="M3 0zM59 0v314q0 61 14 104t44.5 70.5t78.5 40.5t117 13h97v-121h-93q-31 0 -52 -5t-33.5 -17t-18 -33t-5.5 -53v-313h-149zM151 840l112 -152l112 152h144l-170 -226q-14 -18 -33.5 -29t-54.5 -11q-38 0 -57 13.5t-35 33.5l-166 219h148z" />
    <glyph glyph-name="Sacute" unicode="&#x15a;" horiz-adv-x="809" 
d="M39 0zM39 0v129h518q41 0 59 11.5t18 46.5v37q0 32 -18 45.5t-58 13.5h-325q-57 0 -94.5 10.5t-59.5 32t-30.5 54t-8.5 76.5v34q0 52 11 89t34 59.5t60 33t88 10.5h212v-129h-198q-35 0 -51.5 -13.5t-16.5 -54.5v-22q0 -32 15 -45.5t52 -13.5h319q57 0 96.5 -9.5
t64.5 -30.5t36 -54t11 -79v-54q0 -48 -11 -81.5t-36 -54.5t-64.5 -31t-96.5 -10h-526zM313 753l125 218h157l-159 -218h-123z" />
    <glyph glyph-name="sacute" unicode="&#x15b;" horiz-adv-x="737" 
d="M47 0zM696 144q0 -40 -7 -67.5t-27.5 -44.5t-56 -24.5t-92.5 -7.5h-466v117h447q30 0 42 10t12 38v18q0 30 -11.5 37.5t-38.5 7.5h-304q-46 0 -74.5 9t-44.5 27t-21.5 44.5t-5.5 62.5v41q0 35 7.5 60t24.5 40.5t46 22.5t73 7h206v-113h-170q-22 0 -31.5 -8t-9.5 -29v-25
q0 -23 9 -31t29 -8h294q52 0 85 -8.5t52 -27t26 -48t7 -72.5v-28zM277 613l125 218h157l-159 -218h-123z" />
    <glyph glyph-name="Scedilla" unicode="&#x15e;" horiz-adv-x="809" 
d="M39 0zM39 0v129h518q41 0 59 11.5t18 46.5v37q0 32 -18 45.5t-58 13.5h-325q-57 0 -94.5 10.5t-59.5 32t-30.5 54t-8.5 76.5v34q0 52 11 89t34 59.5t60 33t88 10.5h212v-129h-198q-35 0 -51.5 -13.5t-16.5 -54.5v-22q0 -32 15 -45.5t52 -13.5h319q57 0 96.5 -9.5
t64.5 -30.5t36 -54t11 -79v-54q0 -48 -11 -81.5t-36 -54.5t-64.5 -31t-96.5 -10h-526zM326 -220l22 194h135l-54 -194h-103z" />
    <glyph glyph-name="scedilla" unicode="&#x15f;" horiz-adv-x="737" 
d="M47 0zM696 144q0 -40 -7 -67.5t-27.5 -44.5t-56 -24.5t-92.5 -7.5h-466v117h447q30 0 42 10t12 38v18q0 30 -11.5 37.5t-38.5 7.5h-304q-46 0 -74.5 9t-44.5 27t-21.5 44.5t-5.5 62.5v41q0 35 7.5 60t24.5 40.5t46 22.5t73 7h206v-113h-170q-22 0 -31.5 -8t-9.5 -29v-25
q0 -23 9 -31t29 -8h294q52 0 85 -8.5t52 -27t26 -48t7 -72.5v-28zM290 -220l22 194h135l-54 -194h-103z" />
    <glyph glyph-name="Scaron" unicode="&#x160;" horiz-adv-x="809" 
d="M39 0zM39 0v129h518q41 0 59 11.5t18 46.5v37q0 32 -18 45.5t-58 13.5h-325q-57 0 -94.5 10.5t-59.5 32t-30.5 54t-8.5 76.5v34q0 52 11 89t34 59.5t60 33t88 10.5h212v-129h-198q-35 0 -51.5 -13.5t-16.5 -54.5v-22q0 -32 15 -45.5t52 -13.5h319q57 0 96.5 -9.5
t64.5 -30.5t36 -54t11 -79v-54q0 -48 -11 -81.5t-36 -54.5t-64.5 -31t-96.5 -10h-526zM294 980l112 -152l112 152h144l-170 -226q-14 -18 -33.5 -29t-54.5 -11q-38 0 -57 13.5t-35 33.5l-166 219h148z" />
    <glyph glyph-name="scaron" unicode="&#x161;" horiz-adv-x="737" 
d="M47 0zM696 144q0 -40 -7 -67.5t-27.5 -44.5t-56 -24.5t-92.5 -7.5h-466v117h447q30 0 42 10t12 38v18q0 30 -11.5 37.5t-38.5 7.5h-304q-46 0 -74.5 9t-44.5 27t-21.5 44.5t-5.5 62.5v41q0 35 7.5 60t24.5 40.5t46 22.5t73 7h206v-113h-170q-22 0 -31.5 -8t-9.5 -29v-25
q0 -23 9 -31t29 -8h294q52 0 85 -8.5t52 -27t26 -48t7 -72.5v-28zM258 840l112 -152l112 152h144l-170 -226q-14 -18 -33.5 -29t-54.5 -11q-38 0 -57 13.5t-35 33.5l-166 219h148z" />
    <glyph glyph-name="Tcommaaccent" unicode="&#x162;" horiz-adv-x="764" 
d="M19 0zM305 0v551h-286v131h725v-131h-286v-551h-153zM293 -220l22 194h135l-54 -194h-103z" />
    <glyph glyph-name="tcommaaccent" unicode="&#x163;" horiz-adv-x="426" 
d="M14 0zM90 0v421h-76v121h76v153h152v-153h171v-121h-171v-421h-152zM74 -220l22 194h135l-54 -194h-103z" />
    <glyph glyph-name="Tcaron" unicode="&#x164;" horiz-adv-x="764" 
d="M19 0zM305 0v551h-286v131h725v-131h-286v-551h-153zM272 980l112 -152l112 152h144l-170 -226q-14 -18 -33.5 -29t-54.5 -11q-38 0 -57 13.5t-35 33.5l-166 219h148z" />
    <glyph glyph-name="tcaron" unicode="&#x165;" horiz-adv-x="592" 
d="M14 0zM90 0v421h-76v121h76v153h152v-153h171v-121h-171v-421h-152zM430 474l23 245h139l-57 -245h-105z" />
    <glyph glyph-name="Tbar" unicode="&#x166;" horiz-adv-x="764" 
d="M305 0v250h-128v118h128v183h-286v131h725v-131h-286v-183h129v-118h-129v-250h-153z" />
    <glyph glyph-name="tbar" unicode="&#x167;" horiz-adv-x="426" 
d="M90 0v170h-62v118h62v133h-76v121h76v153h152v-153h171v-121h-171v-133h146v-118h-146v-170h-152z" />
    <glyph glyph-name="Utilde" unicode="&#x168;" 
d="M56 0zM316 0q-75 0 -125 12.5t-80 40t-42.5 72t-12.5 109.5v448h153v-443q0 -32 6.5 -52.5t20.5 -33.5t37.5 -18t57.5 -5h229q34 0 57.5 5t37.5 18t20.5 34t6.5 53v442h151v-448q0 -65 -12.5 -109.5t-42.5 -72t-80 -40t-126 -12.5h-256zM180 798v106h528v-106h-528z" />
    <glyph glyph-name="utilde" unicode="&#x169;" horiz-adv-x="810" 
d="M56 0zM316 0q-75 0 -125 12.5t-80 40t-42.5 72t-12.5 109.5v308h150v-304q0 -35 6.5 -56.5t20.5 -33.5t37.5 -16.5t57.5 -4.5h156q36 0 60 4.5t37.5 16.5t19 33.5t5.5 56.5v304h148v-308q0 -65 -12.5 -109.5t-42.5 -72t-80.5 -40t-126.5 -12.5h-176zM141 658v106h528
v-106h-528z" />
    <glyph glyph-name="Umacron" unicode="&#x16a;" 
d="M56 0zM316 0q-75 0 -125 12.5t-80 40t-42.5 72t-12.5 109.5v448h153v-443q0 -32 6.5 -52.5t20.5 -33.5t37.5 -18t57.5 -5h229q34 0 57.5 5t37.5 18t20.5 34t6.5 53v442h151v-448q0 -65 -12.5 -109.5t-42.5 -72t-80 -40t-126 -12.5h-256zM180 798v106h528v-106h-528z" />
    <glyph glyph-name="umacron" unicode="&#x16b;" horiz-adv-x="810" 
d="M56 0zM316 0q-75 0 -125 12.5t-80 40t-42.5 72t-12.5 109.5v308h150v-304q0 -35 6.5 -56.5t20.5 -33.5t37.5 -16.5t57.5 -4.5h156q36 0 60 4.5t37.5 16.5t19 33.5t5.5 56.5v304h148v-308q0 -65 -12.5 -109.5t-42.5 -72t-80.5 -40t-126.5 -12.5h-176zM141 658v106h528
v-106h-528z" />
    <glyph glyph-name="Ubreve" unicode="&#x16c;" 
d="M56 0zM316 0q-75 0 -125 12.5t-80 40t-42.5 72t-12.5 109.5v448h153v-443q0 -32 6.5 -52.5t20.5 -33.5t37.5 -18t57.5 -5h229q34 0 57.5 5t37.5 18t20.5 34t6.5 53v442h151v-448q0 -65 -12.5 -109.5t-42.5 -72t-80 -40t-126 -12.5h-256zM552 980h107v-51q0 -45 -8 -76
t-27.5 -50t-51.5 -27.5t-80 -8.5h-96q-48 0 -80.5 8.5t-52 27.5t-27.5 50t-8 76v51h107v-47q0 -44 13.5 -59.5t51.5 -15.5h88q38 0 51 17t13 58v47z" />
    <glyph glyph-name="ubreve" unicode="&#x16d;" horiz-adv-x="810" 
d="M56 0zM316 0q-75 0 -125 12.5t-80 40t-42.5 72t-12.5 109.5v308h150v-304q0 -35 6.5 -56.5t20.5 -33.5t37.5 -16.5t57.5 -4.5h156q36 0 60 4.5t37.5 16.5t19 33.5t5.5 56.5v304h148v-308q0 -65 -12.5 -109.5t-42.5 -72t-80.5 -40t-126.5 -12.5h-176zM513 840h107v-51
q0 -45 -8 -76t-27.5 -50t-51.5 -27.5t-80 -8.5h-96q-48 0 -80.5 8.5t-52 27.5t-27.5 50t-8 76v51h107v-47q0 -44 13.5 -59.5t51.5 -15.5h88q38 0 51 17t13 58v47z" />
    <glyph glyph-name="Uring" unicode="&#x16e;" 
d="M56 0zM316 0q-75 0 -125 12.5t-80 40t-42.5 72t-12.5 109.5v448h153v-443q0 -32 6.5 -52.5t20.5 -33.5t37.5 -18t57.5 -5h229q34 0 57.5 5t37.5 18t20.5 34t6.5 53v442h151v-448q0 -65 -12.5 -109.5t-42.5 -72t-80 -40t-126 -12.5h-256zM394 708q-36 0 -59.5 5.5
t-37.5 18.5t-19.5 33.5t-5.5 50.5v56q0 30 5.5 50.5t19.5 33t37.5 18.5t59.5 6h99q36 0 59.5 -6t37.5 -18.5t19.5 -33t5.5 -50.5v-56q0 -30 -5.5 -50.5t-19.5 -33.5t-37.5 -18.5t-59.5 -5.5h-99zM542 869q0 28 -11 38t-40 10h-95q-28 0 -40.5 -10t-12.5 -38v-51
q0 -29 12 -38.5t41 -9.5h95q28 0 39.5 10t11.5 38v51z" />
    <glyph glyph-name="uring" unicode="&#x16f;" horiz-adv-x="810" 
d="M56 0zM316 0q-75 0 -125 12.5t-80 40t-42.5 72t-12.5 109.5v308h150v-304q0 -35 6.5 -56.5t20.5 -33.5t37.5 -16.5t57.5 -4.5h156q36 0 60 4.5t37.5 16.5t19 33.5t5.5 56.5v304h148v-308q0 -65 -12.5 -109.5t-42.5 -72t-80.5 -40t-126.5 -12.5h-176zM355 568
q-36 0 -59.5 5.5t-37.5 18.5t-19.5 33.5t-5.5 50.5v56q0 30 5.5 50.5t19.5 33t37.5 18.5t59.5 6h99q36 0 59.5 -6t37.5 -18.5t19.5 -33t5.5 -50.5v-56q0 -30 -5.5 -50.5t-19.5 -33.5t-37.5 -18.5t-59.5 -5.5h-99zM503 729q0 28 -11 38t-40 10h-95q-28 0 -40.5 -10t-12.5 -38
v-51q0 -29 12 -38.5t41 -9.5h95q28 0 39.5 10t11.5 38v51z" />
    <glyph glyph-name="Uhungarumlaut" unicode="&#x170;" 
d="M56 0zM316 0q-75 0 -125 12.5t-80 40t-42.5 72t-12.5 109.5v448h153v-443q0 -32 6.5 -52.5t20.5 -33.5t37.5 -18t57.5 -5h229q34 0 57.5 5t37.5 18t20.5 34t6.5 53v442h151v-448q0 -65 -12.5 -109.5t-42.5 -72t-80 -40t-126 -12.5h-256zM490 753l125 218h157l-159 -218
h-123zM216 753l125 218h157l-159 -218h-123z" />
    <glyph glyph-name="uhungarumlaut" unicode="&#x171;" horiz-adv-x="810" 
d="M56 0zM316 0q-75 0 -125 12.5t-80 40t-42.5 72t-12.5 109.5v308h150v-304q0 -35 6.5 -56.5t20.5 -33.5t37.5 -16.5t57.5 -4.5h156q36 0 60 4.5t37.5 16.5t19 33.5t5.5 56.5v304h148v-308q0 -65 -12.5 -109.5t-42.5 -72t-80.5 -40t-126.5 -12.5h-176zM451 613l125 218h157
l-159 -218h-123zM177 613l125 218h157l-159 -218h-123z" />
    <glyph glyph-name="Uogonek" unicode="&#x172;" 
d="M417 -220q-49 0 -70.5 23.5t-21.5 62.5v23q0 28 10 48t27 33t41 20t52 10h-139q-75 0 -125 12.5t-80 40t-42.5 72t-12.5 109.5v448h153v-443q0 -32 6.5 -52.5t20.5 -33.5t37.5 -18t57.5 -5h229q34 0 57.5 5t37.5 18t20.5 34t6.5 53v442h151v-448q0 -65 -12.5 -109.5
t-42.5 -72t-80 -40t-125 -12.5q-36 -7 -60 -14t-37.5 -15.5t-19 -18t-5.5 -22.5v-19q0 -14 6.5 -19.5t23.5 -5.5h132v-106h-196z" />
    <glyph glyph-name="uogonek" unicode="&#x173;" horiz-adv-x="810" 
d="M368 -220q-49 0 -70.5 23.5t-21.5 62.5v23q0 28 10 48t27 33t41 20t52 10h-90q-75 0 -125 12.5t-80 40t-42.5 72t-12.5 109.5v308h150v-304q0 -35 6.5 -56.5t20.5 -33.5t37.5 -16.5t57.5 -4.5h156q36 0 60 4.5t37.5 16.5t19 33.5t5.5 56.5v304h148v-308q0 -63 -11.5 -107
t-38.5 -72t-71 -41t-109 -14q-36 -7 -60 -14t-37.5 -15.5t-19 -18t-5.5 -22.5v-19q0 -14 6.5 -19.5t23.5 -5.5h132v-106h-196z" />
    <glyph glyph-name="Wcircumflex" unicode="&#x174;" horiz-adv-x="1345" 
d="M9 0zM671 490l-209 -440q-14 -29 -37.5 -47t-59.5 -18q-37 0 -58 18t-33 47l-265 632h169l200 -493l203 447q15 34 35 47.5t57 13.5t58 -13.5t35 -47.5l195 -447l207 493h166q-12 -26 -34 -76t-49 -111.5t-57 -129t-57.5 -129t-49 -111t-32.5 -75.5q-13 -29 -35 -47
t-55 -18q-36 0 -59 17.5t-37 47.5zM783 714l-113 152l-111 -152h-144l169 225q14 18 34 29.5t55 11.5t54 -11.5t33 -29.5l170 -225h-147z" />
    <glyph glyph-name="wcircumflex" unicode="&#x175;" horiz-adv-x="1103" 
d="M10 0zM551 373l-161 -334q-12 -25 -32.5 -39.5t-50.5 -14.5q-34 0 -51.5 14.5t-28.5 39.5l-217 503h151l156 -365l155 324q14 27 31.5 41.5t50.5 14.5q32 0 50 -13.5t31 -42.5l147 -324l164 365h148l-227 -503q-11 -23 -31.5 -38.5t-50.5 -15.5q-29 0 -49.5 15.5
t-31.5 38.5zM662 574l-113 152l-111 -152h-144l169 225q14 18 34 29.5t55 11.5t54 -11.5t33 -29.5l170 -225h-147z" />
    <glyph glyph-name="Ycircumflex" unicode="&#x176;" horiz-adv-x="963" 
d="M4 0zM404 0v322l-400 360h205l275 -243l280 243h194l-402 -362v-320h-152zM592 714l-113 152l-111 -152h-144l169 225q14 18 34 29.5t55 11.5t54 -11.5t33 -29.5l170 -225h-147z" />
    <glyph glyph-name="ycircumflex" unicode="&#x177;" horiz-adv-x="828" 
d="M58 0zM205 260q0 -45 19.5 -62.5t65.5 -17.5h333v362h145v-532q0 -91 -45 -131.5t-147 -40.5h-217v122h204q31 0 45.5 12t14.5 46v44h-342q-61 0 -103.5 11.5t-69 35.5t-38.5 60t-12 85v288h147v-282zM524 574l-113 152l-111 -152h-144l169 225q14 18 34 29.5t55 11.5
t54 -11.5t33 -29.5l170 -225h-147z" />
    <glyph glyph-name="Ydieresis" unicode="&#x178;" horiz-adv-x="963" 
d="M4 0zM404 0v322l-400 360h205l275 -243l280 243h194l-402 -362v-320h-152zM330 713q-32 0 -42 13t-10 43v45q0 26 11.5 37t40.5 11h46q29 0 40 -11t11 -37v-53q0 -26 -11 -37t-40 -11h-46zM587 713q-29 0 -40 11t-11 37v53q0 26 11 37t40 11h46q28 0 39.5 -11t11.5 -37
v-53q0 -26 -11.5 -37t-39.5 -11h-46z" />
    <glyph glyph-name="Zacute" unicode="&#x179;" horiz-adv-x="843" 
d="M36 0zM788 612q0 -37 -29 -63l-478 -419h525v-130h-704q-32 0 -49 18.5t-17 48.5q0 38 31 65l488 419h-503v131h670q32 0 49 -20.5t17 -49.5zM330 753l125 218h157l-159 -218h-123z" />
    <glyph glyph-name="zacute" unicode="&#x17a;" horiz-adv-x="701" 
d="M36 0zM649 486q0 -30 -23 -50l-372 -323h411v-113h-577q-25 0 -38.5 16.5t-13.5 37.5q0 30 25 52l384 325h-396v111h546q27 0 40.5 -17t13.5 -39zM259 613l125 218h157l-159 -218h-123z" />
    <glyph glyph-name="Zdotaccent" unicode="&#x17b;" horiz-adv-x="843" 
d="M36 0zM788 612q0 -37 -29 -63l-478 -419h525v-130h-704q-32 0 -49 18.5t-17 48.5q0 38 31 65l488 419h-503v131h670q32 0 49 -20.5t17 -49.5zM389 713q-32 0 -42 13t-10 43v45q0 26 11.5 37t40.5 11h46q29 0 40 -11t11 -37v-53q0 -26 -11 -37t-40 -11h-46z" />
    <glyph glyph-name="zdotaccent" unicode="&#x17c;" horiz-adv-x="701" 
d="M36 0zM649 486q0 -30 -23 -50l-372 -323h411v-113h-577q-25 0 -38.5 16.5t-13.5 37.5q0 30 25 52l384 325h-396v111h546q27 0 40.5 -17t13.5 -39zM318 573q-32 0 -42 13t-10 43v45q0 26 11.5 37t40.5 11h46q29 0 40 -11t11 -37v-53q0 -26 -11 -37t-40 -11h-46z" />
    <glyph glyph-name="Zcaron" unicode="&#x17d;" horiz-adv-x="843" 
d="M36 0zM788 612q0 -37 -29 -63l-478 -419h525v-130h-704q-32 0 -49 18.5t-17 48.5q0 38 31 65l488 419h-503v131h670q32 0 49 -20.5t17 -49.5zM311 980l112 -152l112 152h144l-170 -226q-14 -18 -33.5 -29t-54.5 -11q-38 0 -57 13.5t-35 33.5l-166 219h148z" />
    <glyph glyph-name="zcaron" unicode="&#x17e;" horiz-adv-x="701" 
d="M36 0zM649 486q0 -30 -23 -50l-372 -323h411v-113h-577q-25 0 -38.5 16.5t-13.5 37.5q0 30 25 52l384 325h-396v111h546q27 0 40.5 -17t13.5 -39zM240 840l112 -152l112 152h144l-170 -226q-14 -18 -33.5 -29t-54.5 -11q-38 0 -57 13.5t-35 33.5l-166 219h148z" />
    <glyph glyph-name="florin" unicode="&#x192;" horiz-adv-x="551" 
d="M337 319l-40 -223q-9 -50 -25 -86.5t-45.5 -60.5t-74 -35.5t-110.5 -11.5h-20v102h22q32 0 55 5.5t39 17.5t26 32t15 49l38 211h-122v98h139l13 71q9 52 25.5 88.5t45.5 60t73.5 34.5t110.5 11h21v-102h-22q-33 0 -56.5 -5.5t-39.5 -18.5t-25.5 -34t-15.5 -52l-9 -53h151
v-98h-169z" />
    <glyph glyph-name="Scommaaccent" unicode="&#x218;" horiz-adv-x="809" 
d="M39 0zM39 0v129h518q41 0 59 11.5t18 46.5v37q0 32 -18 45.5t-58 13.5h-325q-57 0 -94.5 10.5t-59.5 32t-30.5 54t-8.5 76.5v34q0 52 11 89t34 59.5t60 33t88 10.5h212v-129h-198q-35 0 -51.5 -13.5t-16.5 -54.5v-22q0 -32 15 -45.5t52 -13.5h319q57 0 96.5 -9.5
t64.5 -30.5t36 -54t11 -79v-54q0 -48 -11 -81.5t-36 -54.5t-64.5 -31t-96.5 -10h-526zM326 -220l22 194h135l-54 -194h-103z" />
    <glyph glyph-name="scommaaccent" unicode="&#x219;" horiz-adv-x="737" 
d="M47 0zM696 144q0 -40 -7 -67.5t-27.5 -44.5t-56 -24.5t-92.5 -7.5h-466v117h447q30 0 42 10t12 38v18q0 30 -11.5 37.5t-38.5 7.5h-304q-46 0 -74.5 9t-44.5 27t-21.5 44.5t-5.5 62.5v41q0 35 7.5 60t24.5 40.5t46 22.5t73 7h206v-113h-170q-22 0 -31.5 -8t-9.5 -29v-25
q0 -23 9 -31t29 -8h294q52 0 85 -8.5t52 -27t26 -48t7 -72.5v-28zM290 -220l22 194h135l-54 -194h-103z" />
    <glyph glyph-name="uni021A" unicode="&#x21a;" horiz-adv-x="764" 
d="M19 0zM305 0v551h-286v131h725v-131h-286v-551h-153zM293 -220l22 194h135l-54 -194h-103z" />
    <glyph glyph-name="uni021B" unicode="&#x21b;" horiz-adv-x="426" 
d="M14 0zM90 0v421h-76v121h76v153h152v-153h171v-121h-171v-421h-152zM74 -220l22 194h135l-54 -194h-103z" />
    <glyph glyph-name="circumflex" unicode="&#x2c6;" horiz-adv-x="633" 
d="M427 574l-113 152l-111 -152h-144l169 225q14 18 34 29.5t55 11.5t54 -11.5t33 -29.5l170 -225h-147z" />
    <glyph glyph-name="caron" unicode="&#x2c7;" horiz-adv-x="633" 
d="M206 840l112 -152l112 152h144l-170 -226q-14 -18 -33.5 -29t-54.5 -11q-38 0 -57 13.5t-35 33.5l-166 219h148z" />
    <glyph glyph-name="breve" unicode="&#x2d8;" horiz-adv-x="548" 
d="M382 840h107v-51q0 -45 -8 -76t-27.5 -50t-51.5 -27.5t-80 -8.5h-96q-48 0 -80.5 8.5t-52 27.5t-27.5 50t-8 76v51h107v-47q0 -44 13.5 -59.5t51.5 -15.5h88q38 0 51 17t13 58v47z" />
    <glyph glyph-name="dotaccent" unicode="&#x2d9;" horiz-adv-x="264" 
d="M109 573q-32 0 -42 13t-10 43v45q0 26 11.5 37t40.5 11h46q29 0 40 -11t11 -37v-53q0 -26 -11 -37t-40 -11h-46z" />
    <glyph glyph-name="ring" unicode="&#x2da;" horiz-adv-x="461" 
d="M181 568q-36 0 -59.5 5.5t-37.5 18.5t-19.5 33.5t-5.5 50.5v56q0 30 5.5 50.5t19.5 33t37.5 18.5t59.5 6h99q36 0 59.5 -6t37.5 -18.5t19.5 -33t5.5 -50.5v-56q0 -30 -5.5 -50.5t-19.5 -33.5t-37.5 -18.5t-59.5 -5.5h-99zM329 729q0 28 -11 38t-40 10h-95
q-28 0 -40.5 -10t-12.5 -38v-51q0 -29 12 -38.5t41 -9.5h95q28 0 39.5 10t11.5 38v51z" />
    <glyph glyph-name="ogonek" unicode="&#x2db;" horiz-adv-x="406" 
d="M151 -220q-49 0 -70.5 23.5t-21.5 62.5v23q0 28 10 48t27 33t41 20t52 10h118q-36 -7 -60 -14t-37.5 -15.5t-19 -18t-5.5 -22.5v-19q0 -14 6.5 -19.5t23.5 -5.5h132v-106h-196z" />
    <glyph glyph-name="tilde" unicode="&#x2dc;" horiz-adv-x="646" 
d="M59 658v106h528v-106h-528z" />
    <glyph glyph-name="hungarumlaut" unicode="&#x2dd;" horiz-adv-x="675" 
d="M333 613l125 218h157l-159 -218h-123zM59 613l125 218h157l-159 -218h-123z" />
    <glyph glyph-name="Delta" unicode="&#x394;" horiz-adv-x="1035" 
d="M8 0l398 632q18 29 42.5 47t70.5 18q45 0 70 -18t43 -47l395 -632h-1019zM516 527l-253 -401h507z" />
    <glyph glyph-name="Lambda" unicode="&#x39b;" horiz-adv-x="1026" 
d="M402 632q19 30 43 47.5t69 17.5t69 -17.5t43 -47.5l391 -632h-184l-322 526l-322 -526h-182z" />
    <glyph glyph-name="Omega" unicode="&#x3a9;" horiz-adv-x="891" 
d="M54 0v130h140l-93 115q-14 17 -23 31.5t-14 30t-7 35t-2 46.5v114q0 43 11.5 76.5t38.5 56.5t71 35t110 12h319q65 0 109 -12t71 -35t38.5 -56.5t11.5 -76.5v-114q0 -27 -2 -46.5t-7 -35t-14 -30t-23 -31.5l-93 -115h140v-130h-263v129l83 111q17 22 22.5 52t5.5 78v87
q0 52 -19 72.5t-74 20.5h-292q-54 0 -73 -20.5t-19 -72.5v-87q0 -46 6.5 -78t21.5 -52l83 -111v-129h-264z" />
    <glyph glyph-name="mu" unicode="&#x3bc;" horiz-adv-x="830" 
d="M208 0v-162h-149v704h149v-415h297q34 0 56.5 5t36 17.5t19 34t5.5 54.5v304h149v-308q0 -65 -12.5 -109.5t-42.5 -72t-80.5 -40t-126.5 -12.5h-301z" />
    <glyph glyph-name="pi" unicode="&#x3c0;" horiz-adv-x="822" 
d="M614 0v414h-406v-414h-149v542h704v-542h-149z" />
    <glyph glyph-name="Wgrave" unicode="&#x1e80;" horiz-adv-x="1345" 
d="M9 0zM671 490l-209 -440q-14 -29 -37.5 -47t-59.5 -18q-37 0 -58 18t-33 47l-265 632h169l200 -493l203 447q15 34 35 47.5t57 13.5t58 -13.5t35 -47.5l195 -447l207 493h166q-12 -26 -34 -76t-49 -111.5t-57 -129t-57.5 -129t-49 -111t-32.5 -75.5q-13 -29 -35 -47
t-55 -18q-36 0 -59 17.5t-37 47.5zM639 753l-158 218h156l126 -218h-124z" />
    <glyph glyph-name="wgrave" unicode="&#x1e81;" horiz-adv-x="1103" 
d="M10 0zM551 373l-161 -334q-12 -25 -32.5 -39.5t-50.5 -14.5q-34 0 -51.5 14.5t-28.5 39.5l-217 503h151l156 -365l155 324q14 27 31.5 41.5t50.5 14.5q32 0 50 -13.5t31 -42.5l147 -324l164 365h148l-227 -503q-11 -23 -31.5 -38.5t-50.5 -15.5q-29 0 -49.5 15.5
t-31.5 38.5zM518 613l-158 218h156l126 -218h-124z" />
    <glyph glyph-name="Wacute" unicode="&#x1e82;" horiz-adv-x="1345" 
d="M9 0zM671 490l-209 -440q-14 -29 -37.5 -47t-59.5 -18q-37 0 -58 18t-33 47l-265 632h169l200 -493l203 447q15 34 35 47.5t57 13.5t58 -13.5t35 -47.5l195 -447l207 493h166q-12 -26 -34 -76t-49 -111.5t-57 -129t-57.5 -129t-49 -111t-32.5 -75.5q-13 -29 -35 -47
t-55 -18q-36 0 -59 17.5t-37 47.5zM581 753l125 218h157l-159 -218h-123z" />
    <glyph glyph-name="wacute" unicode="&#x1e83;" horiz-adv-x="1103" 
d="M10 0zM551 373l-161 -334q-12 -25 -32.5 -39.5t-50.5 -14.5q-34 0 -51.5 14.5t-28.5 39.5l-217 503h151l156 -365l155 324q14 27 31.5 41.5t50.5 14.5q32 0 50 -13.5t31 -42.5l147 -324l164 365h148l-227 -503q-11 -23 -31.5 -38.5t-50.5 -15.5q-29 0 -49.5 15.5
t-31.5 38.5zM460 613l125 218h157l-159 -218h-123z" />
    <glyph glyph-name="Wdieresis" unicode="&#x1e84;" horiz-adv-x="1345" 
d="M9 0zM671 490l-209 -440q-14 -29 -37.5 -47t-59.5 -18q-37 0 -58 18t-33 47l-265 632h169l200 -493l203 447q15 34 35 47.5t57 13.5t58 -13.5t35 -47.5l195 -447l207 493h166q-12 -26 -34 -76t-49 -111.5t-57 -129t-57.5 -129t-49 -111t-32.5 -75.5q-13 -29 -35 -47
t-55 -18q-36 0 -59 17.5t-37 47.5zM521 713q-32 0 -42 13t-10 43v45q0 26 11.5 37t40.5 11h46q29 0 40 -11t11 -37v-53q0 -26 -11 -37t-40 -11h-46zM778 713q-29 0 -40 11t-11 37v53q0 26 11 37t40 11h46q28 0 39.5 -11t11.5 -37v-53q0 -26 -11.5 -37t-39.5 -11h-46z" />
    <glyph glyph-name="wdieresis" unicode="&#x1e85;" horiz-adv-x="1103" 
d="M10 0zM551 373l-161 -334q-12 -25 -32.5 -39.5t-50.5 -14.5q-34 0 -51.5 14.5t-28.5 39.5l-217 503h151l156 -365l155 324q14 27 31.5 41.5t50.5 14.5q32 0 50 -13.5t31 -42.5l147 -324l164 365h148l-227 -503q-11 -23 -31.5 -38.5t-50.5 -15.5q-29 0 -49.5 15.5
t-31.5 38.5zM400 573q-32 0 -42 13t-10 43v45q0 26 11.5 37t40.5 11h46q29 0 40 -11t11 -37v-53q0 -26 -11 -37t-40 -11h-46zM657 573q-29 0 -40 11t-11 37v53q0 26 11 37t40 11h46q28 0 39.5 -11t11.5 -37v-53q0 -26 -11.5 -37t-39.5 -11h-46z" />
    <glyph glyph-name="Ygrave" unicode="&#x1ef2;" horiz-adv-x="963" 
d="M4 0zM404 0v322l-400 360h205l275 -243l280 243h194l-402 -362v-320h-152zM448 753l-158 218h156l126 -218h-124z" />
    <glyph glyph-name="ygrave" unicode="&#x1ef3;" horiz-adv-x="828" 
d="M58 0zM205 260q0 -45 19.5 -62.5t65.5 -17.5h333v362h145v-532q0 -91 -45 -131.5t-147 -40.5h-217v122h204q31 0 45.5 12t14.5 46v44h-342q-61 0 -103.5 11.5t-69 35.5t-38.5 60t-12 85v288h147v-282zM381 613l-158 218h156l126 -218h-124z" />
    <glyph glyph-name="endash" unicode="&#x2013;" horiz-adv-x="699" 
d="M33 260v118h634v-118h-634z" />
    <glyph glyph-name="emdash" unicode="&#x2014;" horiz-adv-x="958" 
d="M33 260v118h893v-118h-893z" />
    <glyph glyph-name="quoteleft" unicode="&#x2018;" horiz-adv-x="228" 
d="M98 474l-57 245h139l23 -245h-105z" />
    <glyph glyph-name="quoteright" unicode="&#x2019;" horiz-adv-x="228" 
d="M41 474l23 245h139l-57 -245h-105z" />
    <glyph glyph-name="quotesinglbase" unicode="&#x201a;" horiz-adv-x="228" 
d="M41 -73l23 244h139l-57 -244h-105z" />
    <glyph glyph-name="quotedblleft" unicode="&#x201c;" horiz-adv-x="456" 
d="M41 474zM98 474l-57 245h139l23 -245h-105zM326 474l-57 245h139l23 -245h-105z" />
    <glyph glyph-name="quotedblright" unicode="&#x201d;" horiz-adv-x="456" 
d="M41 474zM41 474l23 245h139l-57 -245h-105zM269 474l23 245h139l-57 -245h-105z" />
    <glyph glyph-name="quotedblbase" unicode="&#x201e;" horiz-adv-x="456" 
d="M41 0zM41 -73l23 244h139l-57 -244h-105zM269 -73l23 244h139l-57 -244h-105z" />
    <glyph glyph-name="dagger" unicode="&#x2020;" horiz-adv-x="428" 
d="M174 0v436h-146v76h146v170h87v-170h139v-76h-139v-436h-87z" />
    <glyph glyph-name="daggerdbl" unicode="&#x2021;" horiz-adv-x="428" 
d="M174 -1v169h-146v76h146v192h-146v76h146v170h87v-170h139v-76h-139v-192h139v-76h-139v-169h-87z" />
    <glyph glyph-name="bullet" unicode="&#x2022;" horiz-adv-x="385" 
d="M159 190q-45 0 -72.5 24.5t-27.5 69.5v104q0 45 28 71t72 26h68q99 0 99 -96v-105q0 -45 -27 -69.5t-72 -24.5h-68z" />
    <glyph glyph-name="ellipsis" unicode="&#x2026;" horiz-adv-x="1350" 
d="M59 0zM110 0q-28 0 -39.5 10.5t-11.5 34.5v82q0 23 11.5 34t39.5 11h49q29 0 40.5 -11t11.5 -34v-82q0 -24 -11.5 -34.5t-40.5 -10.5h-49zM650 0q-28 0 -39.5 10.5t-11.5 34.5v82q0 23 11.5 34t39.5 11h49q29 0 40.5 -11t11.5 -34v-82q0 -24 -11.5 -34.5t-40.5 -10.5h-49
zM1190 0q-28 0 -39.5 10.5t-11.5 34.5v82q0 23 11.5 34t39.5 11h49q29 0 40.5 -11t11.5 -34v-82q0 -24 -11.5 -34.5t-40.5 -10.5h-49z" />
    <glyph glyph-name="perthousand" unicode="&#x2030;" horiz-adv-x="1441" 
d="M52 0zM184 351q-38 0 -63.5 6t-40.5 20t-21.5 36.5t-6.5 54.5v107q0 32 6.5 54.5t21.5 36.5t40.5 20t63.5 6h135q39 0 64.5 -6t40.5 -20t21.5 -36.5t6.5 -54.5v-107q0 -32 -6.5 -54.5t-21.5 -36.5t-40.5 -20t-64.5 -6h-135zM358 568q0 25 -9.5 34t-35.5 9h-122
q-27 0 -36.5 -9t-9.5 -34v-94q0 -25 9.5 -34t36.5 -9h122q26 0 35.5 9t9.5 34v94zM204 0l479 682h116l-479 -682h-116zM689 -10q-38 0 -63.5 6t-40.5 20t-21.5 36.5t-6.5 54.5v107q0 32 6.5 54.5t21.5 36.5t40.5 20t63.5 6h135q39 0 64.5 -6t40.5 -20t21.5 -36.5t6.5 -54.5
v-107q0 -32 -6.5 -54.5t-21.5 -36.5t-40.5 -20t-64.5 -6h-135zM863 207q0 25 -9.5 34t-35.5 9h-122q-27 0 -36.5 -9t-9.5 -34v-94q0 -25 9.5 -34t36.5 -9h122q26 0 35.5 9t9.5 34v94zM1121 -10q-38 0 -63.5 6t-40.5 20t-21.5 36.5t-6.5 54.5v107q0 32 6.5 54.5t21.5 36.5
t40.5 20t63.5 6h135q39 0 64.5 -6t40.5 -20t21.5 -36.5t6.5 -54.5v-107q0 -32 -6.5 -54.5t-21.5 -36.5t-40.5 -20t-64.5 -6h-135zM1295 207q0 25 -9.5 34t-35.5 9h-122q-27 0 -36.5 -9t-9.5 -34v-94q0 -25 9.5 -34t36.5 -9h122q26 0 35.5 9t9.5 34v94z" />
    <glyph glyph-name="guilsinglleft" unicode="&#x2039;" horiz-adv-x="289" 
d="M256 557v-135l-131 -96l131 -97v-133l-195 146q-19 14 -30.5 33t-11.5 52t11.5 51t30.5 32z" />
    <glyph glyph-name="guilsinglright" unicode="&#x203a;" horiz-adv-x="289" 
d="M214 410q19 -14 30.5 -32t11.5 -51t-11.5 -52t-30.5 -33l-195 -146v133l131 97l-131 96v135z" />
    <glyph glyph-name="fraction" unicode="&#x2044;" horiz-adv-x="316" 
d="M-139 0l479 682h116l-479 -682h-116z" />
    <glyph glyph-name="zerosuperior" unicode="&#x2070;" horiz-adv-x="482" 
d="M41 351zM173 351q-38 0 -63.5 6t-40.5 20t-21.5 36.5t-6.5 54.5v107q0 32 6.5 54.5t21.5 36.5t40.5 20t63.5 6h135q39 0 64.5 -6t40.5 -20t21.5 -36.5t6.5 -54.5v-107q0 -32 -6.5 -54.5t-21.5 -36.5t-40.5 -20t-64.5 -6h-135zM347 568q0 25 -9.5 34t-35.5 9h-122
q-27 0 -36.5 -9t-9.5 -34v-94q0 -25 9.5 -34t36.5 -9h122q26 0 35.5 9t9.5 34v94z" />
    <glyph glyph-name="foursuperior" unicode="&#x2074;" horiz-adv-x="519" 
d="M41 351zM374 351v89h-333v252h92v-172h241v172h92v-341h-92z" />
    <glyph glyph-name="fivesuperior" unicode="&#x2075;" horiz-adv-x="506" 
d="M43 351zM44 351v79h305q18 0 25 5t7 17v14q0 11 -7 17t-24 6h-307v203h252v-79h-166v-51h228q60 0 85 -20.5t25 -68.5v-31q0 -49 -25 -70t-85 -21h-313z" />
    <glyph glyph-name="sixsuperior" unicode="&#x2076;" horiz-adv-x="507" 
d="M41 351zM173 351q-38 0 -63.5 6t-40.5 20t-21.5 36.5t-6.5 54.5v107q0 32 6.5 54.5t21.5 36.5t40.5 20t63.5 6h110v-79h-107q-24 0 -33 -8t-9 -30v-15h240q52 0 73.5 -25t21.5 -69v-21q0 -48 -21.5 -71t-73.5 -23h-201zM375 468q0 24 -23 24h-218v-26q0 -23 10 -30.5
t39 -7.5h169q23 0 23 23v17z" />
    <glyph glyph-name="sevensuperior" unicode="&#x2077;" horiz-adv-x="487" 
d="M29 351zM104 351l130 152q18 21 31 36t23.5 27.5t20 23t19.5 21.5h-299v81h372q26 0 39 -12t13 -31q0 -25 -20 -48l-209 -250h-120z" />
    <glyph glyph-name="eightsuperior" unicode="&#x2078;" horiz-adv-x="485" 
d="M38 351zM447 429q0 -42 -26 -60t-89 -18h-179q-64 0 -89.5 18t-25.5 60v27q0 37 12 50.5t26 18.5q-14 5 -24 17.5t-10 42.5v24q0 44 26 63.5t91 19.5h167q65 0 90.5 -19.5t25.5 -63.5v-24q0 -30 -9.5 -42.5t-23.5 -17.5q14 -5 26 -18.5t12 -50.5v-27zM359 464
q-1 14 -7 20t-22 6h-175q-29 0 -29 -26v-15q0 -15 10.5 -18t31.5 -3h149q20 0 31 3t11 18v15zM355 594q0 14 -11 17.5t-33 3.5h-137q-23 0 -33.5 -3.5t-10.5 -17.5v-16q0 -23 29 -23h167q29 0 29 23v16z" />
    <glyph glyph-name="ninesuperior" unicode="&#x2079;" horiz-adv-x="504" 
d="M36 351zM222 351v77h106q24 0 33 8t9 30v13h-239q-52 0 -73.5 25t-21.5 69v24q0 48 21.5 71.5t73.5 23.5h200q38 0 63.5 -6t40.5 -18.5t21.5 -31.5t6.5 -46v-122q0 -32 -6.5 -54.5t-21.5 -36.5t-40.5 -20t-63.5 -6h-109zM370 586q0 16 -6 21.5t-20 5.5h-191
q-23 0 -23 -24v-18q0 -12 4.5 -17.5t18.5 -5.5h217v38z" />
    <glyph glyph-name="zeroinferior" unicode="&#x2080;" horiz-adv-x="482" 
d="M173 -10q-38 0 -63.5 6t-40.5 20t-21.5 36.5t-6.5 54.5v107q0 32 6.5 54.5t21.5 36.5t40.5 20t63.5 6h135q39 0 64.5 -6t40.5 -20t21.5 -36.5t6.5 -54.5v-107q0 -32 -6.5 -54.5t-21.5 -36.5t-40.5 -20t-64.5 -6h-135zM347 207q0 25 -9.5 34t-35.5 9h-122q-27 0 -36.5 -9
t-9.5 -34v-94q0 -25 9.5 -34t36.5 -9h122q26 0 35.5 9t9.5 34v94z" />
    <glyph glyph-name="oneinferior" unicode="&#x2081;" horiz-adv-x="181" 
d="M43 -10v341h94v-341h-94z" />
    <glyph glyph-name="twoinferior" unicode="&#x2082;" horiz-adv-x="493" 
d="M38 -10v116q0 49 23.5 70.5t86.5 21.5h192q15 0 20.5 5t5.5 19v6q0 14 -5.5 19t-19.5 5h-119v79h129q54 0 77.5 -22t23.5 -76v-19q0 -48 -21.5 -67.5t-80.5 -19.5h-195q-17 0 -24 -6t-7 -21v-31h328v-79h-414z" />
    <glyph glyph-name="threeinferior" unicode="&#x2083;" horiz-adv-x="486" 
d="M450 68q0 -42 -25.5 -60t-89.5 -18h-299v76h296q16 0 23 4.5t7 16.5v15q0 14 -6.5 19.5t-22.5 5.5h-295v68h291q16 0 22 5.5t6 17.5v16q0 11 -7 16t-25 5h-105v76h109q65 0 90.5 -19.5t25.5 -63.5v-24q0 -30 -9.5 -42.5t-23.5 -17.5q14 -5 26 -18.5t12 -50.5v-27z" />
    <glyph glyph-name="fourinferior" unicode="&#x2084;" horiz-adv-x="519" 
d="M374 -10v89h-333v252h92v-172h241v172h92v-341h-92z" />
    <glyph glyph-name="fiveinferior" unicode="&#x2085;" horiz-adv-x="506" 
d="M44 -10v79h305q18 0 25 5t7 17v14q0 11 -7 17t-24 6h-307v203h252v-79h-166v-51h228q60 0 85 -20.5t25 -68.5v-31q0 -49 -25 -70t-85 -21h-313z" />
    <glyph glyph-name="sixinferior" unicode="&#x2086;" horiz-adv-x="507" 
d="M173 -10q-38 0 -63.5 6t-40.5 20t-21.5 36.5t-6.5 54.5v107q0 32 6.5 54.5t21.5 36.5t40.5 20t63.5 6h110v-79h-107q-24 0 -33 -8t-9 -30v-15h240q52 0 73.5 -25t21.5 -69v-21q0 -48 -21.5 -71t-73.5 -23h-201zM375 107q0 24 -23 24h-218v-26q0 -23 10 -30.5t39 -7.5h169
q23 0 23 23v17z" />
    <glyph glyph-name="seveninferior" unicode="&#x2087;" horiz-adv-x="487" 
d="M104 -10l130 152q18 21 31 36t23.5 27.5t20 23t19.5 21.5h-299v81h372q26 0 39 -12t13 -31q0 -25 -20 -48l-209 -250h-120z" />
    <glyph glyph-name="eightinferior" unicode="&#x2088;" horiz-adv-x="485" 
d="M447 68q0 -42 -26 -60t-89 -18h-179q-64 0 -89.5 18t-25.5 60v27q0 37 12 50.5t26 18.5q-14 5 -24 17.5t-10 42.5v24q0 44 26 63.5t91 19.5h167q65 0 90.5 -19.5t25.5 -63.5v-24q0 -30 -9.5 -42.5t-23.5 -17.5q14 -5 26 -18.5t12 -50.5v-27zM359 103q-1 14 -7 20t-22 6
h-175q-29 0 -29 -26v-15q0 -15 10.5 -18t31.5 -3h149q20 0 31 3t11 18v15zM355 233q0 14 -11 17.5t-33 3.5h-137q-23 0 -33.5 -3.5t-10.5 -17.5v-16q0 -23 29 -23h167q29 0 29 23v16z" />
    <glyph glyph-name="nineinferior" unicode="&#x2089;" horiz-adv-x="504" 
d="M222 -10v77h106q24 0 33 8t9 30v13h-239q-52 0 -73.5 25t-21.5 69v24q0 48 21.5 71.5t73.5 23.5h200q38 0 63.5 -6t40.5 -18.5t21.5 -31.5t6.5 -46v-122q0 -32 -6.5 -54.5t-21.5 -36.5t-40.5 -20t-63.5 -6h-109zM370 225q0 16 -6 21.5t-20 5.5h-191q-23 0 -23 -24v-18
q0 -12 4.5 -17.5t18.5 -5.5h217v38z" />
    <glyph glyph-name="Euro" unicode="&#x20ac;" horiz-adv-x="830" 
d="M253 228q1 -30 5.5 -50t17 -31.5t34.5 -16t58 -4.5h433v-126h-436q-75 0 -124.5 12.5t-79.5 39.5t-43 70.5t-14 105.5h-94l23 85h71v55h-94l23 85h71q1 63 14 106.5t43 70.5t79.5 39.5t124.5 12.5h439l-53 -128h-383q-36 0 -58 -5t-34.5 -16.5t-17 -31t-4.5 -48.5h458
l-36 -85h-424v-55h403l-35 -85h-367z" />
    <glyph glyph-name="trademark" unicode="&#x2122;" horiz-adv-x="1244" 
d="M191 256v341h-159v85h417v-85h-161v-341h-97zM1095 256v274l-205 -265q-15 -19 -44 -19q-28 0 -43 19l-204 265v-274h-89v396q0 20 16.5 30t36.5 10q17 0 27.5 -5t18.5 -16l239 -313l239 312q9 11 18 16.5t26 5.5q21 0 37 -10t16 -30v-396h-89z" />
    <glyph glyph-name="onethird" unicode="&#x2153;" horiz-adv-x="868" 
d="M54 0zM105 351v341h94v-341h-94zM54 0l479 682h116l-479 -682h-116zM816 68q0 -42 -25.5 -60t-89.5 -18h-299v76h296q16 0 23 4.5t7 16.5v15q0 14 -6.5 19.5t-22.5 5.5h-295v68h291q16 0 22 5.5t6 17.5v16q0 11 -7 16t-25 5h-105v76h109q65 0 90.5 -19.5t25.5 -63.5v-24
q0 -30 -9.5 -42.5t-23.5 -17.5q14 -5 26 -18.5t12 -50.5v-27z" />
    <glyph glyph-name="twothirds" unicode="&#x2154;" horiz-adv-x="1062" 
d="M52 0zM52 351v116q0 49 23.5 70.5t86.5 21.5h192q15 0 20.5 5t5.5 19v6q0 14 -5.5 19t-19.5 5h-119v79h129q54 0 77.5 -22t23.5 -76v-19q0 -48 -21.5 -67.5t-80.5 -19.5h-195q-17 0 -24 -6t-7 -21v-31h328v-79h-414zM268 0l479 682h116l-479 -682h-116zM1010 68
q0 -42 -25.5 -60t-89.5 -18h-299v76h296q16 0 23 4.5t7 16.5v15q0 14 -6.5 19.5t-22.5 5.5h-295v68h291q16 0 22 5.5t6 17.5v16q0 11 -7 16t-25 5h-105v76h109q65 0 90.5 -19.5t25.5 -63.5v-24q0 -30 -9.5 -42.5t-23.5 -17.5q14 -5 26 -18.5t12 -50.5v-27z" />
    <glyph glyph-name="oneeighth" unicode="&#x215b;" horiz-adv-x="895" 
d="M54 0zM105 351v341h94v-341h-94zM54 0l479 682h116l-479 -682h-116zM843 68q0 -42 -26 -60t-89 -18h-179q-64 0 -89.5 18t-25.5 60v27q0 37 12 50.5t26 18.5q-14 5 -24 17.5t-10 42.5v24q0 44 26 63.5t91 19.5h167q65 0 90.5 -19.5t25.5 -63.5v-24q0 -30 -9.5 -42.5
t-23.5 -17.5q14 -5 26 -18.5t12 -50.5v-27zM755 103q-1 14 -7 20t-22 6h-175q-29 0 -29 -26v-15q0 -15 10.5 -18t31.5 -3h149q20 0 31 3t11 18v15zM751 233q0 14 -11 17.5t-33 3.5h-137q-23 0 -33.5 -3.5t-10.5 -17.5v-16q0 -23 29 -23h167q29 0 29 23v16z" />
    <glyph glyph-name="threeeighths" unicode="&#x215c;" horiz-adv-x="1074" 
d="M52 0zM466 429q0 -42 -25.5 -60t-89.5 -18h-299v76h296q16 0 23 4.5t7 16.5v15q0 14 -6.5 19.5t-22.5 5.5h-295v68h291q16 0 22 5.5t6 17.5v16q0 11 -7 16t-25 5h-105v76h109q65 0 90.5 -19.5t25.5 -63.5v-24q0 -30 -9.5 -42.5t-23.5 -17.5q14 -5 26 -18.5t12 -50.5v-27z
M243 0l479 682h116l-479 -682h-116zM1022 68q0 -42 -26 -60t-89 -18h-179q-64 0 -89.5 18t-25.5 60v27q0 37 12 50.5t26 18.5q-14 5 -24 17.5t-10 42.5v24q0 44 26 63.5t91 19.5h167q65 0 90.5 -19.5t25.5 -63.5v-24q0 -30 -9.5 -42.5t-23.5 -17.5q14 -5 26 -18.5t12 -50.5
v-27zM934 103q-1 14 -7 20t-22 6h-175q-29 0 -29 -26v-15q0 -15 10.5 -18t31.5 -3h149q20 0 31 3t11 18v15zM930 233q0 14 -11 17.5t-33 3.5h-137q-23 0 -33.5 -3.5t-10.5 -17.5v-16q0 -23 29 -23h167q29 0 29 23v16z" />
    <glyph glyph-name="fiveeighths" unicode="&#x215d;" horiz-adv-x="1077" 
d="M52 0zM53 351v79h305q18 0 25 5t7 17v14q0 11 -7 17t-24 6h-307v203h252v-79h-166v-51h228q60 0 85 -20.5t25 -68.5v-31q0 -49 -25 -70t-85 -21h-313zM246 0l479 682h116l-479 -682h-116zM1025 68q0 -42 -26 -60t-89 -18h-179q-64 0 -89.5 18t-25.5 60v27q0 37 12 50.5
t26 18.5q-14 5 -24 17.5t-10 42.5v24q0 44 26 63.5t91 19.5h167q65 0 90.5 -19.5t25.5 -63.5v-24q0 -30 -9.5 -42.5t-23.5 -17.5q14 -5 26 -18.5t12 -50.5v-27zM937 103q-1 14 -7 20t-22 6h-175q-29 0 -29 -26v-15q0 -15 10.5 -18t31.5 -3h149q20 0 31 3t11 18v15zM933 233
q0 14 -11 17.5t-33 3.5h-137q-23 0 -33.5 -3.5t-10.5 -17.5v-16q0 -23 29 -23h167q29 0 29 23v16z" />
    <glyph glyph-name="seveneighths" unicode="&#x215e;" horiz-adv-x="962" 
d="M52 0zM127 351l130 152q18 21 31 36t23.5 27.5t20 23t19.5 21.5h-299v81h372q26 0 39 -12t13 -31q0 -25 -20 -48l-209 -250h-120zM121 0l479 682h116l-479 -682h-116zM910 68q0 -42 -26 -60t-89 -18h-179q-64 0 -89.5 18t-25.5 60v27q0 37 12 50.5t26 18.5
q-14 5 -24 17.5t-10 42.5v24q0 44 26 63.5t91 19.5h167q65 0 90.5 -19.5t25.5 -63.5v-24q0 -30 -9.5 -42.5t-23.5 -17.5q14 -5 26 -18.5t12 -50.5v-27zM822 103q-1 14 -7 20t-22 6h-175q-29 0 -29 -26v-15q0 -15 10.5 -18t31.5 -3h149q20 0 31 3t11 18v15zM818 233
q0 14 -11 17.5t-33 3.5h-137q-23 0 -33.5 -3.5t-10.5 -17.5v-16q0 -23 29 -23h167q29 0 29 23v16z" />
    <glyph glyph-name="partialdiff" unicode="&#x2202;" horiz-adv-x="679" 
d="M262 695q22 5 41.5 6.5t39.5 1.5q59 0 114 -16.5t97 -51.5t67.5 -90t25.5 -131q0 -86 -16.5 -164.5t-55.5 -138.5t-103.5 -96t-161.5 -36q-277 0 -277 255q0 60 18.5 103t51.5 70.5t77 40.5t95 13q52 0 93 -10.5t72.5 -29t55 -44.5t41.5 -56q2 14 3.5 28.5t1.5 28.5
q0 60 -15 104t-43 72t-67 41.5t-88 13.5q-12 0 -29.5 -1.5t-37.5 -5.5v93zM506 227q-23 61 -72 100t-126 39q-71 0 -114.5 -35.5t-43.5 -105.5q0 -78 42.5 -115.5t117.5 -37.5q80 0 127 41t69 114z" />
    <glyph glyph-name="product" unicode="&#x220f;" horiz-adv-x="623" 
d="M442 -219v824h-261v-824h-122v936h505v-936h-122z" />
    <glyph glyph-name="summation" unicode="&#x2211;" horiz-adv-x="639" 
d="M42 -220v83l273 384l-273 386v84h559v-120h-388l244 -350l-244 -348h388v-119h-559z" />
    <glyph glyph-name="minus" unicode="&#x2212;" horiz-adv-x="590" 
d="M59 304v98h472v-98h-472z" />
    <glyph glyph-name="radical" unicode="&#x221a;" horiz-adv-x="578" 
d="M212 0l-104 287h-72v86h154l89 -269l174 578h110l-210 -682h-141z" />
    <glyph glyph-name="infinity" unicode="&#x221e;" horiz-adv-x="775" 
d="M559 545q36 0 68 -13.5t55.5 -39.5t37.5 -66t14 -92t-13.5 -91t-37 -65t-55.5 -39t-69 -13q-61 0 -104.5 28.5t-67.5 80.5q-45 -109 -173 -109q-36 0 -67.5 13t-55.5 39t-37.5 65t-13.5 91t13.5 92t37.5 66t55.5 39.5t67.5 13.5q65 0 107 -26.5t66 -85.5q25 57 66.5 84.5
t105.5 27.5zM547 457q-45 0 -77 -31.5t-46 -93.5q11 -57 43.5 -90t79.5 -33q50 0 78.5 31.5t28.5 93.5q0 59 -28.5 91t-78.5 32zM228 209q48 0 80 31t43 92q-14 64 -46 94.5t-77 30.5q-50 0 -78.5 -32t-28.5 -91q0 -62 27.5 -93.5t79.5 -31.5z" />
    <glyph glyph-name="integral" unicode="&#x222b;" horiz-adv-x="393" 
d="M22 -220v79h29q48 0 72 24t24 76v715q0 36 10.5 68.5t34 57.5t60.5 40t91 15h28v-80h-29q-48 0 -72 -24t-24 -76v-715q0 -36 -10.5 -68.5t-34 -57t-61 -39.5t-90.5 -15h-28z" />
    <glyph glyph-name="approxequal" unicode="&#x2248;" horiz-adv-x="590" 
d="M58 171zM400 171q-8 0 -17 3l-174 60q-5 2 -14 2q-7 0 -17 -3l-120 -46v105l106 41q15 5 25 5q8 0 17 -3l174 -60q5 -2 14 -2q6 0 17 3l120 46v-105l-106 -41q-15 -5 -25 -5zM400 370q-8 0 -17 3l-174 60q-5 2 -14 2q-7 0 -17 -3l-120 -46v105l106 41q15 5 25 5
q8 0 17 -3l174 -60q5 -2 14 -2q6 0 17 3l120 46v-105l-106 -41q-15 -5 -25 -5z" />
    <glyph glyph-name="notequal" unicode="&#x2260;" horiz-adv-x="590" 
d="M-3 0l127 182h-65v97h132l103 148h-235v98h303l110 157h120l-110 -157h49v-98h-117l-103 -148h220v-97h-287l-127 -182h-120z" />
    <glyph glyph-name="lessequal" unicode="&#x2264;" horiz-adv-x="590" 
d="M59 0zM59 329q0 24 12.5 39t32.5 26l427 235v-113l-347 -187l347 -189v-113l-427 236q-20 11 -32.5 25.5t-12.5 40.5zM59 -97v98h472v-98h-472z" />
    <glyph glyph-name="greaterequal" unicode="&#x2265;" horiz-adv-x="590" 
d="M59 0zM531 329q0 -26 -12.5 -40.5t-32.5 -25.5l-427 -236v113l347 189l-347 187v113l427 -235q20 -11 32.5 -26t12.5 -39zM59 -97v98h472v-98h-472z" />
    <glyph glyph-name="lozenge" unicode="&#x25ca;" horiz-adv-x="558" 
d="M344 29q-10 -20 -25 -32.5t-40 -12.5q-26 0 -40.5 12.5t-24.5 32.5l-155 312l155 311q11 20 25 32.5t40 12.5q25 0 39.5 -12.5t25.5 -32.5l155 -311zM392 341l-113 227l-114 -227l114 -229z" />
    <glyph glyph-name="fi" unicode="&#xfb01;" horiz-adv-x="703" 
d="M59 0zM59 0v571q0 82 43 114t131 32h173v-106h-150q-28 0 -38 -9.5t-10 -35.5v-24h197v-121h-197v-421h-149zM492 0v528h152v-528h-152zM543 573q-28 0 -39.5 11t-11.5 35v58q0 24 11.5 34.5t39.5 10.5h49q29 0 40.5 -10.5t11.5 -34.5v-58q0 -24 -11.5 -35t-40.5 -11h-49
z" />
    <glyph glyph-name="fl" unicode="&#xfb02;" horiz-adv-x="703" 
d="M59 0zM59 0v571q0 82 43 114t131 32h173v-106h-150q-28 0 -38 -9.5t-10 -35.5v-24h197v-121h-197v-421h-149zM492 0v717h152v-717h-152z" />
    <glyph glyph-name="nonmarkingreturn" horiz-adv-x="397" 
 />
    <glyph glyph-name=".null" horiz-adv-x="0" 
 />
    <glyph glyph-name=".ttfautohint" horiz-adv-x="0" 
d="M0 0z" />
    </font>
</defs>
</svg>
